<svg xmlns="http://www.w3.org/2000/svg" width="136.358" height="91.188" viewBox="0 0 136.358 91.188">
  <g id="five" transform="translate(-679.068 -275.744)">
    <path id="Path_1620" data-name="Path 1620" d="M804.014,356.778c-4.969.525-11.588,1.26-18.214,1.92-22.265,2.217-44.529,4.457-66.8,6.581-7.473.712-14.975,1.124-22.467,1.627a11.127,11.127,0,0,1-8.436-3.041,8.44,8.44,0,0,1-2.912-5.729c-1.931-19.9-4.3-39.744-6.07-59.66a11.654,11.654,0,0,1,10.537-12.446c24.855-2.159,49.661-4.877,74.487-7.373,9.692-.974,19.385-1.937,29.086-2.832a25.488,25.488,0,0,1,5.1.117c5.775.634,8.223,2.854,9.173,8.508,2.916,17.367,5.1,34.835,7.17,52.319.22,1.866.417,3.734.637,5.6C816.154,349.6,812.636,354.7,804.014,356.778Zm1.468-70.512c-1.71-6.817-3.59-8.23-10.365-7.621-5.275.475-10.541,1.049-15.816,1.521q-37.263,3.329-74.529,6.625c-5.443.483-10.925.714-16.319,1.522-5.116.766-6.835,3.46-6.639,8.555.217,5.629.89,11.228,1.423,16.815,1.394,14.626,3.359,29.2,5.127,43.789a7.091,7.091,0,0,0,6.264,6.406,53.5,53.5,0,0,0,8.171.167c2.552-.121,5.465.087,7.534-1.072,2.516-1.409,1.669-4.906,2.189-7.448,1.149-5.614,4.28-8.471,9.865-9.53,10.087-1.912,20.237-3.3,30.439-4.31,7.47-.738,14.91-1.777,22.437-1.994,3.962-.115,6.836.886,8.891,4.573,1.814,3.253,4.35,6.1,6.445,9.2a2.428,2.428,0,0,0,2.455,1.381c4.075-.46,8.208-.64,12.212-1.452,5.273-1.07,7.185-4.079,6.586-9.58q-2.3-21.149-4.7-42.288C806.573,296.444,806.593,291.291,805.482,286.266Zm-18.15,69.064c-1.758-3.452-3.492-6.232-4.617-9.239-1.2-3.205-3.348-3.978-6.391-3.71-6.8.6-13.6,1.095-20.4,1.7-11.207,1-22.387,2.187-33.477,4.184-4.448.8-7.138,2.913-7.607,7.534-.12,1.184-.43,2.348-.577,3.531-.423,3.387-.347,3.461,3.165,3.116,11.045-1.087,22.091-2.161,33.131-3.286C762.591,357.934,774.616,356.656,787.331,355.329Z" fill="#2b2c33"/>
    <path id="Path_1621" data-name="Path 1621" d="M806.468,287.267c1.111,5.025,1.091,10.178,1.668,15.263q2.4,21.139,4.7,42.288c.6,5.5-1.313,8.51-6.586,9.58-4,.813-8.137.993-12.212,1.452a2.428,2.428,0,0,1-2.455-1.381c-2.095-3.107-4.631-5.95-6.445-9.2-2.056-3.687-4.929-4.688-8.891-4.573-7.528.217-14.968,1.256-22.437,1.994-10.2,1.008-20.352,2.4-30.439,4.31-5.584,1.059-8.716,3.916-9.865,9.53-.519,2.542.327,6.038-2.189,7.448-2.07,1.159-4.982.951-7.534,1.072a53.491,53.491,0,0,1-8.171-.167,7.091,7.091,0,0,1-6.264-6.406c-1.768-14.59-3.734-29.163-5.127-43.789-.533-5.587-1.206-11.186-1.423-16.815-.2-5.1,1.524-7.79,6.639-8.555,5.394-.808,10.876-1.039,16.319-1.522q37.265-3.309,74.529-6.625c5.275-.472,10.541-1.046,15.816-1.521C802.879,279.037,804.759,280.45,806.468,287.267ZM692.325,296c-3.9.863-3.992.869-3.751,3.795.266,3.233.7,6.454,1.084,9.675,1.228,10.178,2.571,20.343,3.643,30.536.29,2.765,1.533,3.535,3.97,3.285.68-.07,1.358-.162,2.038-.222q50.523-4.5,101.045-9c4.88-.434,5.429-1.09,4.848-6.2-1.565-13.733-3.206-27.457-4.679-41.2-.169-1.578-.629-2.174-2.078-2.109-1.023.046-2.045.157-3.064.266q-38.993,4.181-77.985,8.373C708.731,294.144,700.073,295.139,692.325,296Z" transform="translate(-0.986 -1.001)" fill="#db48ff"/>
    <path id="Path_1622" data-name="Path 1622" d="M799.978,379.375c-12.715,1.327-24.741,2.6-36.77,3.83-11.041,1.126-22.087,2.2-33.131,3.286-3.513.345-3.588.271-3.165-3.116.148-1.183.458-2.347.577-3.531.469-4.621,3.159-6.733,7.607-7.534,11.09-2,22.27-3.185,33.477-4.184,6.8-.605,13.6-1.1,20.4-1.7,3.043-.267,5.191.5,6.391,3.71C796.486,373.144,798.219,375.923,799.978,379.375Zm-60.331-1.751c1.47.65,2.54,1.289,3.735,1a2.975,2.975,0,0,0,2.4-2.35,2.619,2.619,0,0,0-1.2-3.078,3.525,3.525,0,0,0-3.415.076,2.56,2.56,0,0,0-1.4,2.007c-.213,1.781-1.117,1.493-2.312,1.026a5.143,5.143,0,0,0-2.015-.2,4.409,4.409,0,0,0-4.317,3.629,3.318,3.318,0,0,0,2.053,4.16c2.132.926,3.888.238,5.482-1.381C739.925,381.225,739.276,379.657,739.646,377.624Zm50.859-6.611c-2.818.894-4.135,2.964-3.582,4.833a3.621,3.621,0,0,0,4.529,2.171,3.849,3.849,0,0,0,2.457-4.88C793.2,371.211,791.792,370.652,790.505,371.014Zm-8.062,3.865c1.751-.7,2.135-2.037,1.588-3.681-.6-1.8-2.089-2.093-3.673-1.718-1.565.371-2.1,1.57-1.771,3.1A3.094,3.094,0,0,0,782.443,374.879Z" transform="translate(-12.646 -24.046)" fill="#00cbcb"/>
    <path id="Path_1623" data-name="Path 1623" d="M694.387,297.827c7.748-.865,16.406-1.86,25.07-2.795q38.991-4.206,77.985-8.373c1.02-.109,2.041-.22,3.064-.266,1.449-.065,1.909.531,2.078,2.109,1.473,13.742,3.114,27.467,4.679,41.2.582,5.107.032,5.763-4.847,6.2q-50.523,4.5-101.045,9c-.68.06-1.358.152-2.038.222-2.436.251-3.679-.52-3.97-3.285-1.072-10.193-2.415-20.358-3.643-30.536-.389-3.222-.818-6.442-1.084-9.675C690.395,298.7,690.482,298.69,694.387,297.827Zm106.532-6.792c.241-2.323-1.586-1.982-3.057-1.832-6.968.713-13.923,1.549-20.891,2.259q-40.277,4.1-80.559,8.155c-3.894.4-3.987.458-3.454,4.365,1.431,10.5,2.846,21,4.492,31.47.386,2.451-.5,5.834,1.589,7.151,1.948,1.224,4.958.051,7.495-.2q29.843-2.982,59.689-5.938c11.4-1.111,22.81-2.039,34.2-3.181,4.485-.45,4.026-.708,3.706-4.239C802.989,316.456,801.99,303.856,800.919,291.035Z" transform="translate(-3.048 -2.824)" fill="#2b2c33"/>
    <path id="Path_1624" data-name="Path 1624" d="M741.177,379.942c-.371,2.032.278,3.6-1,4.9-1.594,1.619-3.35,2.308-5.482,1.381a3.318,3.318,0,0,1-2.053-4.16,4.409,4.409,0,0,1,4.317-3.629,5.141,5.141,0,0,1,2.015.2c1.2.467,2.1.755,2.312-1.026a2.56,2.56,0,0,1,1.4-2.007,3.525,3.525,0,0,1,3.415-.076,2.618,2.618,0,0,1,1.2,3.078,2.974,2.974,0,0,1-2.4,2.35C743.716,381.23,742.647,380.592,741.177,379.942Zm-4.62.311c-1.172.436-2.049,1.148-1.782,2.577a1.534,1.534,0,0,0,1.885,1.245,2.047,2.047,0,0,0,1.784-2.55C738.248,380.552,737.521,380.219,736.556,380.252Zm8.332-2.607c-.164-.161-.409-.569-.593-.543a1.014,1.014,0,0,0-.7.614c-.165.688.458.712.875.7C744.611,378.413,744.743,377.927,744.888,377.645Z" transform="translate(-14.176 -26.363)" fill="#2b2c33"/>
    <path id="Path_1625" data-name="Path 1625" d="M812.2,372.651c1.286-.362,2.7.2,3.4,2.125a3.849,3.849,0,0,1-2.457,4.88,3.621,3.621,0,0,1-4.529-2.171C808.062,375.614,809.379,373.545,812.2,372.651Zm-.59,4.41c.817-.448,1.013-.892.8-1.4-.2-.479-.58-.829-1.146-.453-.4.268-.9.56-.522,1.174C811,376.813,811.334,377.195,811.607,377.061Z" transform="translate(-34.338 -25.683)" fill="#2b2c33"/>
    <path id="Path_1626" data-name="Path 1626" d="M801.133,375.947a3.092,3.092,0,0,1-3.855-2.3c-.331-1.531.206-2.73,1.771-3.1,1.584-.375,3.074-.083,3.673,1.718C803.27,373.91,802.885,375.249,801.133,375.947Z" transform="translate(-31.338 -25.115)" fill="#2b2c33"/>
    <path id="Path_1627" data-name="Path 1627" d="M801.7,292.012c1.071,12.821,2.07,25.421,3.211,38.008.32,3.531.779,3.79-3.706,4.239-11.393,1.142-22.807,2.07-34.2,3.181q-29.851,2.909-59.689,5.938c-2.537.253-5.547,1.426-7.495.2-2.094-1.317-1.2-4.7-1.589-7.151-1.646-10.467-3.061-20.971-4.492-31.47-.533-3.907-.439-3.97,3.455-4.365q40.278-4.086,80.559-8.155c6.968-.71,13.923-1.547,20.891-2.259C800.116,290.03,801.943,289.689,801.7,292.012ZM792.757,302.9c2.189,0,3.024-1.328,2.786-3.936-.534-5.861-.764-6.147-6.806-5.529q-28.564,2.924-57.126,5.876c-9.01.938-18,2.042-27.022,2.9-2.364.225-3.566.847-2.956,3.416a13.245,13.245,0,0,1,.071,2.044c.32,4.409.564,4.582,4.93,4.134q27.023-2.773,54.05-5.519C771.221,305.2,781.753,304.067,792.757,302.9Zm1.148,14.638a12.66,12.66,0,0,0-13.422-9.58c-4.6.318-9.181.873-13.77,1.338-16.137,1.636-32.269,3.317-48.41,4.9-7.331.72-12.577,6.575-11.82,13.422.777,7.017,7.853,12.812,14.792,12.042,20.014-2.221,40.051-4.186,60.139-5.619C790.013,333.435,796.019,325.37,793.905,317.542Z" transform="translate(-3.831 -3.801)" fill="#ffa6da"/>
    <path id="Path_1628" data-name="Path 1628" d="M737.36,382.108c.965-.034,1.692.3,1.887,1.272a2.047,2.047,0,0,1-1.784,2.55,1.534,1.534,0,0,1-1.885-1.245C735.311,383.256,736.187,382.545,737.36,382.108Z" transform="translate(-14.98 -28.219)" fill="#f7f8f8"/>
    <path id="Path_1629" data-name="Path 1629" d="M748.884,378.364c-.145.282-.277.768-.421.771-.417.012-1.04-.013-.875-.7a1.014,1.014,0,0,1,.7-.614C748.475,377.795,748.72,378.2,748.884,378.364Z" transform="translate(-18.172 -27.082)" fill="#f7f8f8"/>
    <path id="Path_1630" data-name="Path 1630" d="M812.368,377.964c-.273.134-.605-.248-.873-.682-.378-.614.118-.906.522-1.174.566-.376.942-.026,1.146.453C813.381,377.072,813.185,377.515,812.368,377.964Z" transform="translate(-35.099 -26.586)" fill="#f7f8f8"/>
    <path id="Path_1631" data-name="Path 1631" d="M795.634,304.039c-11,1.162-21.536,2.3-32.073,3.383q-27.023,2.782-54.05,5.519c-4.365.448-4.609.275-4.93-4.134a13.245,13.245,0,0,0-.071-2.044c-.61-2.568.591-3.191,2.956-3.416,9.018-.857,18.012-1.96,27.022-2.9q28.559-2.976,57.126-5.876c6.042-.618,6.272-.332,6.806,5.529C798.658,302.711,797.823,304.037,795.634,304.039Zm-.459-2.5c.134-4.8.134-4.813-4-4.557-1.021.063-2.036.216-3.053.323q-27.487,2.887-54.972,5.773c-7.975.839-15.955,1.632-23.921,2.557-2.553.3-3.45,2.2-2.219,4.2.984,1.6,2.42.779,3.692.647q20.627-2.138,41.248-4.318Q773.575,303.868,795.175,301.538Z" transform="translate(-6.708 -4.935)" fill="#2b2c33"/>
    <path id="Path_1632" data-name="Path 1632" d="M798.565,323.991c2.114,7.827-3.892,15.893-12.49,16.505-20.089,1.433-40.125,3.4-60.139,5.619-6.939.77-14.016-5.025-14.792-12.042-.757-6.847,4.488-12.7,11.82-13.422,16.141-1.585,32.273-3.266,48.41-4.9,4.588-.465,9.171-1.02,13.77-1.338A12.66,12.66,0,0,1,798.565,323.991Zm-77.237-1.149c-8.392,1.555-10.3,10.833-5.814,16.282a12.365,12.365,0,0,0,11.244,4.859c4.922-.5,9.83-1.162,14.759-1.585,15.123-1.3,30.141-3.634,45.312-4.464,5.781-.316,10.311-6.27,9.648-12.343-.6-5.453-5.985-9.455-11.732-8.9-14.938,1.432-29.892,2.707-44.825,4.2C734.155,321.458,728.324,321.375,721.328,322.842Z" transform="translate(-8.491 -10.249)" fill="#2b2c33"/>
    <path id="Path_1633" data-name="Path 1633" d="M795.937,302.458q-21.59,2.311-43.226,4.623-20.621,2.186-41.248,4.318c-1.272.132-2.707.948-3.692-.647-1.231-1.995-.334-3.9,2.219-4.2,7.965-.924,15.946-1.718,23.921-2.557q27.486-2.89,54.972-5.773c1.018-.107,2.033-.26,3.053-.323C796.071,297.645,796.071,297.655,795.937,302.458Z" transform="translate(-7.47 -5.856)" fill="#00cbcb"/>
    <path id="Path_1634" data-name="Path 1634" d="M722.082,323.658c7-1.467,12.827-1.383,18.591-1.959,14.932-1.488,29.886-2.764,44.825-4.2,5.747-.551,11.137,3.451,11.732,8.9.663,6.074-3.867,12.028-9.648,12.343-15.171.83-30.189,3.167-45.312,4.464-4.929.423-9.837,1.083-14.759,1.585a12.365,12.365,0,0,1-11.244-4.859C711.784,334.491,713.689,325.213,722.082,323.658Zm45.131,12.563c2.031.087,3.111-1.009,2.524-3.774-.5-2.332-.662-4.734-.98-7.1-.287-2.129-.972-3.341-3.65-2.916-4.546.72-9.173.914-13.757,1.414-3,.328-7.038-.769-8.713,1.553-1.764,2.445-.17,6.278.08,9.483.29,3.734.578,3.914,4.519,3.534C753.7,337.786,760.141,337.005,767.213,336.221Zm25.21-9.414c-1.269-5.429-6.553-8.453-12.249-7.012a9.218,9.218,0,0,0-7,10.822c1.135,4.989,6.656,8.316,11.848,7.14C790.432,336.533,793.6,331.846,792.423,326.807ZM739.038,331.8a9.335,9.335,0,0,0-11.452-6.686,9.7,9.7,0,0,0-6.764,11.088c1.128,4.752,6.549,7.755,11.646,6.45C737.61,341.332,740.342,336.819,739.038,331.8Z" transform="translate(-9.244 -11.066)" fill="#ffec00"/>
    <path id="Path_1635" data-name="Path 1635" d="M777.29,337.987c-7.072.784-13.517,1.565-19.977,2.189-3.942.381-4.229.2-4.519-3.534-.25-3.2-1.844-7.038-.08-9.483,1.675-2.322,5.709-1.225,8.713-1.553,4.584-.5,9.211-.694,13.757-1.414,2.678-.425,3.363.787,3.65,2.916.318,2.37.485,4.772.98,7.1C780.4,336.978,779.321,338.074,777.29,337.987Zm-23.332-9.8c-.411,2.973.575,5.578.917,8.244.121.948.613,1.589,1.652,1.524,4.754-.3,6.566-.056,5.77-5.59-.674-4.688-1.231-5.146-5.827-4.569C755.667,327.9,754.869,328.046,753.958,328.189Zm9.094-.525c.842,2.609,1.8,4.838,1.784,7.257-.013,1.682.788,2.126,2.234,1.85,1.255-.24,3.129-.016,2.673-2.135-.563-2.619.082-5.077.672-7.763a15.311,15.311,0,0,0-2.62-.27A10.328,10.328,0,0,0,763.052,327.664Zm9.6,6.307c.186.835.747,2.095,2.855,1.8,2.424-.341,1.791-1.943,1.651-3.434-.143-1.522-.215-3.05-.32-4.576-.088-1.281-.893-1.678-2.05-1.728a1.915,1.915,0,0,0-2.2,1.612A12.188,12.188,0,0,0,772.65,333.971Z" transform="translate(-19.322 -12.832)" fill="#2b2c33"/>
    <path id="Path_1636" data-name="Path 1636" d="M813.746,327.524c1.178,5.038-1.991,9.726-7.4,10.951-5.191,1.175-10.712-2.152-11.848-7.14a9.218,9.218,0,0,1,7-10.822C807.193,319.07,812.477,322.095,813.746,327.524Zm-7.683,8.1c4.082-1,6.5-4.625,5.584-8.384-.923-3.8-5.8-6.575-9.675-5.506a7.307,7.307,0,0,0-5.234,8.72A7.781,7.781,0,0,0,806.063,335.626Z" transform="translate(-30.567 -11.782)" fill="#2b2c33"/>
    <path id="Path_1637" data-name="Path 1637" d="M741.457,334.444c1.3,5.024-1.428,9.536-6.57,10.852-5.1,1.3-10.518-1.7-11.646-6.45A9.7,9.7,0,0,1,730,327.758,9.335,9.335,0,0,1,741.457,334.444Zm-10.977-5.154a6.974,6.974,0,0,0-5.179,8.621,7.119,7.119,0,0,0,8.767,5.041,7.893,7.893,0,0,0,5.239-8.879A6.944,6.944,0,0,0,730.479,329.29Z" transform="translate(-11.663 -13.714)" fill="#2b2c33"/>
    <path id="Path_1638" data-name="Path 1638" d="M754.667,329.45c.911-.143,1.709-.29,2.513-.391,4.6-.577,5.153-.119,5.827,4.569.8,5.534-1.016,5.295-5.77,5.59-1.04.065-1.531-.576-1.652-1.524C755.242,335.028,754.256,332.423,754.667,329.45Z" transform="translate(-20.031 -14.093)" fill="#39d5ff"/>
    <path id="Path_1639" data-name="Path 1639" d="M767.081,328.561a10.327,10.327,0,0,1,4.743-1.062,15.316,15.316,0,0,1,2.62.27c-.591,2.686-1.236,5.144-.672,7.763.455,2.119-1.419,1.9-2.674,2.135-1.445.276-2.247-.168-2.234-1.85C768.885,333.4,767.923,331.17,767.081,328.561Z" transform="translate(-23.351 -13.729)" fill="#f7f8f8"/>
    <path id="Path_1640" data-name="Path 1640" d="M779.983,334.664a12.188,12.188,0,0,1-.069-6.328,1.915,1.915,0,0,1,2.2-1.612c1.156.05,1.962.447,2.05,1.728.105,1.525.177,3.054.32,4.576.14,1.491.773,3.093-1.651,3.434C780.73,336.759,780.169,335.5,779.983,334.664Z" transform="translate(-26.654 -13.525)" fill="#39d5ff"/>
    <path id="Path_1641" data-name="Path 1641" d="M806.865,336.113a7.781,7.781,0,0,1-9.325-5.17,7.307,7.307,0,0,1,5.234-8.72c3.871-1.07,8.752,1.708,9.675,5.506C813.362,331.489,810.947,335.115,806.865,336.113Zm2.78-7.93a5.828,5.828,0,0,0-6.8-3.928,5.1,5.1,0,0,0-3.662,6.3,5.592,5.592,0,0,0,6.742,3.921A5.173,5.173,0,0,0,809.645,328.183Z" transform="translate(-31.37 -12.27)" fill="#f7f8f8"/>
    <path id="Path_1642" data-name="Path 1642" d="M731.209,329.855a6.944,6.944,0,0,1,8.827,4.783,7.893,7.893,0,0,1-5.239,8.879,7.119,7.119,0,0,1-8.767-5.041A6.975,6.975,0,0,1,731.209,329.855Zm.491,2.389a4.95,4.95,0,0,0-3.472,5.912,5,5,0,0,0,5.954,3.394,5.315,5.315,0,0,0,3.485-5.955A5.065,5.065,0,0,0,731.7,332.245Z" transform="translate(-12.392 -14.279)" fill="#f7f8f8"/>
    <path id="Path_1643" data-name="Path 1643" d="M810.262,328.955a5.173,5.173,0,0,1-3.72,6.3,5.592,5.592,0,0,1-6.742-3.921,5.1,5.1,0,0,1,3.662-6.3A5.828,5.828,0,0,1,810.262,328.955Zm-4.245,3.795a2.758,2.758,0,0,0,1.887-3.527c-.473-1.842-1.52-3.08-3.674-2.6a2.945,2.945,0,0,0-2.343,3.856C802.5,332.391,803.856,333.155,806.017,332.749Z" transform="translate(-31.986 -13.042)" fill="#2b2c33"/>
    <path id="Path_1644" data-name="Path 1644" d="M732.531,333.16a5.065,5.065,0,0,1,5.967,3.35,5.315,5.315,0,0,1-3.485,5.955,5,5,0,0,1-5.954-3.394A4.95,4.95,0,0,1,732.531,333.16Zm.339,1.487c-1.468.226-2.147,1.606-1.886,3.228a2.3,2.3,0,0,0,2.955,2.006,2.633,2.633,0,0,0,2.3-3.311C735.972,335.122,734.99,334.192,732.87,334.647Z" transform="translate(-13.223 -15.194)" fill="#2b2c33"/>
    <path id="Path_1645" data-name="Path 1645" d="M806.776,333.333c-2.161.406-3.518-.359-4.13-2.273a2.945,2.945,0,0,1,2.343-3.856c2.154-.478,3.2.76,3.674,2.6A2.758,2.758,0,0,1,806.776,333.333Z" transform="translate(-32.745 -13.626)" fill="#2b2c33"/>
    <path id="Path_1646" data-name="Path 1646" d="M733.6,335.194c2.12-.454,3.1.475,3.369,1.923a2.633,2.633,0,0,1-2.3,3.311,2.3,2.3,0,0,1-2.955-2.006C731.453,336.8,732.132,335.42,733.6,335.194Z" transform="translate(-13.953 -15.742)" fill="#2b2c33"/>
  </g>
</svg>
