<svg xmlns="http://www.w3.org/2000/svg" width="122.605" height="91.188" viewBox="0 0 122.605 91.188">
  <g id="four" transform="translate(-1302.981 -10.468)">
    <path id="Path_1647" data-name="Path 1647" d="M1416.431,38.021A210.752,210.752,0,0,1,1393.28,61.26c-4.014,3.522-8.113,6.939-12.34,10.2-.444.343-.785.626-.7,1.319a3.258,3.258,0,0,1-1.543,3.081c-1.815,1.33-3.608,2.7-6.082,2.348a1.823,1.823,0,0,0-1.3.56c-7.476,5.608-15.316,10.679-23.167,15.736-2.189,1.41-4.3,2.944-6.46,4.4-1,.675-2.057,1.279-3.074,1.937-2.16,1.4-4.191.843-6.094-.486-2.909-2.031-4.716-4.71-4.435-8.423a2.222,2.222,0,0,0-1.09-2.235,13.147,13.147,0,0,1-5.516-7.85,25.433,25.433,0,0,0-2.413-6.075,16.241,16.241,0,0,1-1.51-4.661c-.682-3.588-2.436-6.663-4.281-9.762-2.5-4.2-5.713-7.835-8.605-11.723a7.687,7.687,0,0,1-1.581-3.041,3.323,3.323,0,0,1,1.831-3.93,28.005,28.005,0,0,0,4.112-3.278,103.032,103.032,0,0,0,9.265-9.5,25.328,25.328,0,0,0,3.825-5.746c1.517-3.12,3.8-4.686,7.378-4.446a40.689,40.689,0,0,1,7.4.845,28.173,28.173,0,0,1,5.1,1.288.907.907,0,0,0,.867-.081,7.533,7.533,0,0,1,5.31-.584,1.26,1.26,0,0,0,1.3-.364c1.591-1.7,3.421-1.506,5.344-.659a5.294,5.294,0,0,1,1.953,1.3,1.655,1.655,0,0,0,1.924.558,6.066,6.066,0,0,1,5.051.826c.647.4,1.253.723,1.983.176,2.041-1.528,4.159-.982,6.217-.1a2.945,2.945,0,0,0,2.407.186A7.075,7.075,0,0,1,1379,23.1a9.008,9.008,0,0,0,4.995-.964c2.6-2.14,5.628-2.151,8.633-1.5a3.006,3.006,0,0,0,2.795-.52c2.74-2.107,5.5-4.182,8.229-6.305a22.871,22.871,0,0,1,5.969-3.051,2.925,2.925,0,0,1,2.649.06,6.518,6.518,0,0,0,2.774.7,18.465,18.465,0,0,1,6.757,2.58c3.343,2.051,4.256,4.222,3.584,8.162a18.843,18.843,0,0,1-1.833,5.311A57.182,57.182,0,0,1,1416.431,38.021Zm-67.648-14.213c.027.153.094.175.194.059.006-.007-.036-.065-.064-.087-.19-.152.1.03-.133.078-2.285-1.1-4.707-.922-5.9.464,1.459.821,3.026.627,4.577.511A1.441,1.441,0,0,0,1348.783,23.808Zm6.915,47.778c-.536-.535-.924-.916-1.3-1.3a24.235,24.235,0,0,1-4.046-5.349,53.006,53.006,0,0,1-6.055-16.085,1.466,1.466,0,0,0-1.265-1.293c-1.695-.464-3.4-.932-5.04-1.548-6.268-2.352-11.958-5.631-16.516-10.641-2.165-2.38-2.031-2.254-4.584-.084-3.177,2.7-5.988,5.868-9.726,7.881a3.835,3.835,0,0,0-.715.558,1.035,1.035,0,0,0-.17,1.468,8.359,8.359,0,0,0,.681.853,83.771,83.771,0,0,1,10.02,13.819c1.875,3.373,3.563,6.755,4.059,10.633a15.46,15.46,0,0,0,.985,3.876,54.242,54.242,0,0,1,2.472,7.991,5.834,5.834,0,0,0,1.736,3.12c.63.571,1.218,1.186,1.852,1.752,1.894,1.692,1.932,1.732,3.9.274,5.318-3.946,11.11-7.161,16.594-10.848C1350.929,75.077,1353.292,73.5,1355.7,71.586Zm-12.515-25.494c-.185-1.36-.984-2.324-1.393-3.441-.062-.17-.1-.4-.231-.486-.442-.309-.934-.545-1.376-.853a3.082,3.082,0,0,1-.882-4.327,4.8,4.8,0,0,1,6.258-1.617,2.959,2.959,0,0,1,1.28,4.437,1.406,1.406,0,0,0,.031,1.61,18.406,18.406,0,0,1,1.933,4.1c.338,1.54,1.229,2.058,2.793,2.2a68.6,68.6,0,0,0,43.168-10.112,16.358,16.358,0,0,0,3.3-2.235c2.045-2.077,3.975-4.262,5.815-6.522.853-1.046.817-1.27-.413-1.85a15.467,15.467,0,0,0-9.562-.876,4.073,4.073,0,0,0,1.445,2.92,2.888,2.888,0,0,1,.43,3.819,4.239,4.239,0,0,1-4.5,1.621,3.178,3.178,0,0,1-2.435-3.032,3.612,3.612,0,0,1,.158-.891c.524-1.786.375-2.23-1.2-3.385-1.446,1.177-1.583,2.914-1.939,4.556a1.608,1.608,0,0,0,.681,1.856,3.18,3.18,0,0,1,1.168,3.734,3.5,3.5,0,0,1-3.482,2.156,4.156,4.156,0,0,1-3.453-1.718,2.781,2.781,0,0,1-.3-3.394c.686-1.01.465-1.846.071-3-.976,1.185-3.1-.27-3.45,2.02-.219,1.43-.785,2.805-.43,4.29.127.529.226,1.065.37,1.589a3.086,3.086,0,0,1-2.294,4.055,4.1,4.1,0,0,1-4.1-1.324,3,3,0,0,1-.172-3.727c1.136-1.3.758-2.741.977-4.18-.878.145-1.59.309-2.312.372-2,.174-2.005.157-2.377,2.2-.065.358-.125.717-.169,1.079-.188,1.553-.549,3.082.249,4.628a2.43,2.43,0,0,1-.457,2.567,3.987,3.987,0,0,1-4.928,1.049,3.218,3.218,0,0,1-.507-5.727,1.488,1.488,0,0,0,.773-1.267c.085-1.011.241-2.016.4-3.242a4.054,4.054,0,0,1-2.9-.105c-.53-.246-.725.111-.916.55-.555,1.278-1.125,2.552-1.748,3.8a3.73,3.73,0,0,0-.4,1.9,3.053,3.053,0,0,1-2.764,3.267,3.9,3.9,0,0,1-4.325-2.547,3.157,3.157,0,0,1,1.684-3.96,2.22,2.22,0,0,0,1.362-1.521c.185-.614.439-1.207.657-1.8a2.067,2.067,0,0,0-1.3-.183,20.942,20.942,0,0,1-6.8-1.037c-3.914-1.429-7.911-2.736-11.451-5.055a6.08,6.08,0,0,0-2.678-1.069,1.788,1.788,0,0,0-1.652.513c-1.663,1.845-3.636,3.4-5.053,5.474-.7,1.026-.725,1.067.229,1.939a40.627,40.627,0,0,0,10.336,7.05A42.884,42.884,0,0,0,1343.184,46.092Zm50.437-6.253a71.134,71.134,0,0,1-43.463,9.18c1.056,2.749,2.1,5.264,2.98,7.834a19.645,19.645,0,0,0,1.99,4.261,36.289,36.289,0,0,0,5,5.978,1.154,1.154,0,0,0,1.851.051c.927-.778,1.913-1.486,2.874-2.225,7.451-5.73,14.546-11.886,21.586-18.105A83.6,83.6,0,0,0,1393.621,39.84Zm19.628-26.487a13.274,13.274,0,0,1-1.288,6.752,38.453,38.453,0,0,1-5.251,8.271,108.477,108.477,0,0,1-8.117,9.336c-1.091,1.089-1.106,1.386-.1,2.622a24.68,24.68,0,0,0,5.969,4.968,1.072,1.072,0,0,0,1.569-.226,106.157,106.157,0,0,0,13.344-16.083,24.584,24.584,0,0,0,2.857-5.873,5.949,5.949,0,0,0-2.893-7.275A51.411,51.411,0,0,0,1413.248,13.353Zm-9.215,33.4c-.738-.462-1.471-.87-2.145-1.358-.509-.368-.82-.276-1.218.171-1.008,1.13-2.007,2.266-3.127,3.3-5.733,5.281-12.251,9.482-18.758,13.7-3.559,2.3-7.156,4.551-10.6,7.031a5.179,5.179,0,0,0-1.877,1.742c1.765.64,3.441,1.281,5.17,1.82a2.96,2.96,0,0,0,3.127-.665c2.664-2.2,5.392-4.321,8.075-6.5,6.876-5.579,13.57-11.368,19.928-17.536A5.2,5.2,0,0,0,1404.033,46.756Zm-41.515,21.936a2.161,2.161,0,0,0,.238.478,4.033,4.033,0,0,0,.562.46c1.5,1.006,1.451.933,2.956-.181,2.289-1.694,4.62-3.339,7-4.9,6.647-4.348,13.275-8.722,19.557-13.591a44.211,44.211,0,0,0,6.475-6.119c.464-.54.672-.962,0-1.5a15.606,15.606,0,0,1-2.955-3.427C1385.857,50.632,1374.374,59.917,1362.519,68.692Zm-28.952,27.436c.464.45.872.9,1.331,1.284,1.645,1.385,2.213,1.419,4.015.23,1.974-1.3,3.921-2.644,5.9-3.936q10.9-7.112,21.327-14.889c.38-.284.873-.456,1.043-1.136-1.755.095-3.134-.909-4.567-1.629a2.085,2.085,0,0,0-2.687.478c-3.128,2.683-6.227,5.4-9.473,7.949-4.868,3.821-9.739,7.621-15.3,10.416A3.318,3.318,0,0,0,1333.567,96.127Zm11.59-47.928a47.719,47.719,0,0,0,1.484,5.769,66.414,66.414,0,0,0,3.083,7.364c2.028,4.433,4.676,8.331,8.832,11.051,3,1.966,6.05,3.834,9.7,4.333,1.2.164,2.441.086,3.6.365,2.867.688,4.662-.878,6.434-2.73-.454-.308-.764-.043-1.087.08a7.075,7.075,0,0,1-4.816.174c-1.711-.57-3.467-.968-5.155-1.663a29.8,29.8,0,0,1-13.282-11.2c-2.031-2.95-2.713-6.46-3.877-9.76S1349.018,48.648,1345.156,48.2Zm14.7,26.437c-.354-.227-.615-.382-.863-.556-1.871-1.313-1.87-1.315-3.637-.028-.049.036-.093.079-.143.113-7.816,5.383-15.1,11.559-23.7,15.765-.346.169-.655.295-.538.776a21.5,21.5,0,0,0,1.04,3.664c.251.569.547.885,1.24.46,3.2-1.959,6.542-3.665,9.575-5.894a168.909,168.909,0,0,0,15.015-12.307C1358.49,76.023,1359.353,75.626,1359.852,74.636ZM1322.6,33.984a27.85,27.85,0,0,1,3-4.141,13.315,13.315,0,0,1,3.589-3.04,1.39,1.39,0,0,1,1.359-.321,16.758,16.758,0,0,1,3,1.256,34.357,34.357,0,0,0,7.961,3.952c.77.309,1.218.295,1.6-.483a22.84,22.84,0,0,1,3.047-4.835,6.738,6.738,0,0,1-1.629-.075c-2.784-.929-5.726-1.025-8.565-1.667-2.129-.482-4.289-.823-6.435-1.229a3.778,3.778,0,0,0-4.468,2.2,55.149,55.149,0,0,1-3.565,5.278c-.877,1.3-.909,1.287.066,2.43A1.46,1.46,0,0,0,1322.6,33.984Zm75.881-12.853a58.366,58.366,0,0,1,6.387,4.637c.77.615,1.079.337,1.545-.292A43.55,43.55,0,0,0,1410.2,19.3a9.763,9.763,0,0,0,1.247-4.136c.054-1.942-.438-2.2-2.175-1.419C1405.3,15.536,1402.31,18.726,1398.479,21.132Zm-40.18,6.514a3.925,3.925,0,0,0-1.353,1.8c-1.6,3.125-3.122,6.286-4.738,9.4a1.316,1.316,0,0,0,.289,1.634,1.7,1.7,0,0,0,3.022-.426c1.3-2.932,2.251-6.009,3.717-8.871a1.434,1.434,0,0,0,.023-1.054A6.326,6.326,0,0,0,1358.3,27.646Zm-6.424,6.45c1.408.114,1.429.125,1.9-.843.632-1.3,1.147-2.666,1.861-3.918a4.216,4.216,0,0,0,.145-3.655c-.17-.512-.479-.984-.616-1.5a3.036,3.036,0,0,0-2.482-2.112,1.251,1.251,0,0,0-1.339.272c-.4.407-.064.784.069,1.16A17.316,17.316,0,0,1,1351.875,34.1Zm21.289,4.541a1.667,1.667,0,0,0,2.092.588c.947-.467.514-1.287.34-1.912a5.305,5.305,0,0,1,.19-3.356c.529-1.473.915-3,1.424-4.478a.767.767,0,0,0-.311-1.057c-1.048-.731-1.453-.679-2.139.508a20.988,20.988,0,0,0-2.5,7.512A2.047,2.047,0,0,0,1373.165,38.637Zm-6.54-10.381a3.189,3.189,0,0,0-.586.452c-2.376,3.394-2.961,7.359-3.511,11.314-.113.811.795,1.156,1.407,1.492.5.271.908-.123,1.266-.466.424-.405.2-.91.211-1.377a18.018,18.018,0,0,1,2.047-8.734,1.009,1.009,0,0,0,.063-1.157C1367.245,29.322,1366.977,28.856,1366.625,28.256Zm-5.149-3.588a2.59,2.59,0,0,0-1.247-.334c-1.589-.038-1.9.387-1.315,1.834a31.73,31.73,0,0,1,2.035,7.68c.046.334-.1.823.419.839s1.052.038,1.314-.663c.776-2.08,1.3-4.145.266-6.3-.366-.76-.68-1.546-1.035-2.312A8.353,8.353,0,0,0,1361.476,24.669Zm-11.073-.425a16.413,16.413,0,0,0-6.509,7.789c-.071.164-.135.365.028.5a4.45,4.45,0,0,0,2.172.8c.64.108.772-.46.973-.883a9.955,9.955,0,0,1,3.047-3.777,2.339,2.339,0,0,0,.932-3.066A2.882,2.882,0,0,0,1350.4,24.244Zm36.439,2.116c-2.584-1.113-3.412-.071-4.176,1.706a9.541,9.541,0,0,0-.7,4.418c.091,1.449.686,1.912,2.1,1.8.591-.047.855-.247.742-.905C1384.354,30.77,1385.249,28.524,1386.843,26.36Zm-.648-2.248c.066.1.111.245.2.279a6.865,6.865,0,0,1,4.118,4.311,2.482,2.482,0,0,0,.644,1.078,1.333,1.333,0,0,0,1.667.169,1.077,1.077,0,0,0,.578-1.363,12.563,12.563,0,0,0-1.4-3.328C1390.682,23.088,1388.464,22.653,1386.195,24.112Zm-16.446,9.158c2.542.024,3.036-1.222,1.977-3.355a13.993,13.993,0,0,0-2.976-4.095c-1.026-.952-1.043-.934-2.521-.07C1367.79,28.045,1369.39,30.333,1369.748,33.27Zm32.69-8.148a41.518,41.518,0,0,0-3.87-2.859c-.352-.276-.765-.517-1.163-.259-1.447.935-3.263.864-4.726,1.744.682,1.394.679,1.377,1.964,1.211.84-.108,1.686-.19,2.532-.226A35.047,35.047,0,0,1,1402.438,25.122Zm-50.983,3.736a11.472,11.472,0,0,0-2.653,2.554c-.475.592-1.184,1.294-.877,2.023.283.672,1.284.452,1.962.646.824.235,1.237-.1,1.383-.913A13.581,13.581,0,0,0,1351.455,28.858Zm29.325.994c.666-2.2.581-2.489-1.1-3.414a7.126,7.126,0,0,0-3.464-.944c-.365,0-.879-.13-1.059.569A58.457,58.457,0,0,1,1380.78,29.852Zm-40.275,9.916c2.253-1.887,2.253-1.887,5.456-1.044A2.167,2.167,0,0,0,1344.2,36.5a3.806,3.806,0,0,0-3.682.966A1.676,1.676,0,0,0,1340.505,39.768Zm41.021-4.51a2.76,2.76,0,0,0,3.218,2.6,1.607,1.607,0,0,0,1.394-2.092c-.111-.349-.332-.756-.756-.525C1384.1,35.937,1382.824,35.5,1381.526,35.259Zm-26.857,7.2c-1.535-.146-2.825-.615-3.509-2.119-.2-.45-.783-.186-1.006.457a2.3,2.3,0,0,0,1.274,2.706C1352.678,44.159,1353.753,43.848,1354.669,42.458Zm10.825.289a2.39,2.39,0,0,1-3.174-.734c-.549-.632-1.139-.421-1.329.4a1.43,1.43,0,0,0,.189,1.207,2.51,2.51,0,0,0,2.509,1.076A1.877,1.877,0,0,0,1365.494,42.747Zm29.225-12.337c-1.358,1.219-2.784,1.678-4.364.327.11,1.727,1.041,2.569,2.5,2.42C1394.231,33.016,1394.9,32.075,1394.719,30.41Zm-18.724,9.856c-1.831.7-3.119-.08-4.3-1.218-.381,1.453-.141,2.064.918,2.553C1373.9,42.2,1374.98,41.828,1375.995,40.266Zm-11.62-11.3c1.471-2.365,1.392-2.589-.919-2.987Zm9.154-2.426c-1.171-.34-1.916-1.1-3.061-1.031C1371.9,27.581,1371.9,27.581,1373.529,26.544Zm6.2,3.98c-.233-.194-.4-.353-.587-.485-.272-.193-.571-.52-.88-.1a1.181,1.181,0,0,0-.281.795c.1.466.536.325.866.284A.987.987,0,0,0,1379.731,30.524Zm-6.726-.517,1.046-1.919C1372.231,28.366,1372.195,28.431,1373.005,30.007Zm-4.747,1.843c-.456.5-.8.908-.394,1.431a.656.656,0,0,0,.636.076C1368.99,32.862,1368.6,32.426,1368.258,31.85Zm-11.046-5.012a1.254,1.254,0,0,0-.39-1.878A4.386,4.386,0,0,0,1357.211,26.837Zm2.661,6.362c-.358.3-.648.617-.336,1.109a.333.333,0,0,0,.31.085C1360.3,34.035,1360.192,33.632,1359.872,33.2Zm21.9-7.3c.021.1.007.239.067.288.142.116.33.159.427-.059a.321.321,0,0,0-.043-.293C1382.073,25.691,1381.912,25.76,1381.776,25.9Z" fill="#1e242b"/>
    <path id="Path_1648" data-name="Path 1648" d="M1358.013,89.061c-2.406,1.915-4.769,3.491-7.126,5.075-5.485,3.686-11.277,6.9-16.594,10.848-1.964,1.458-2,1.418-3.9-.274-.634-.566-1.222-1.181-1.852-1.752a5.83,5.83,0,0,1-1.736-3.12,54.242,54.242,0,0,0-2.473-7.991,15.471,15.471,0,0,1-.985-3.876c-.5-3.878-2.184-7.26-4.059-10.633a83.764,83.764,0,0,0-10.02-13.819,8.341,8.341,0,0,1-.681-.853,1.035,1.035,0,0,1,.17-1.468,3.841,3.841,0,0,1,.715-.558c3.738-2.013,6.549-5.182,9.726-7.881,2.553-2.169,2.419-2.3,4.584.084,4.559,5.011,10.249,8.289,16.516,10.641,1.643.617,3.345,1.084,5.04,1.548a1.466,1.466,0,0,1,1.265,1.293,53,53,0,0,0,6.055,16.085,24.236,24.236,0,0,0,4.046,5.349C1357.089,88.145,1357.477,88.526,1358.013,89.061Z" transform="translate(-2.315 -17.475)" fill="#39d5ff"/>
    <path id="Path_1649" data-name="Path 1649" d="M1342.431,118.793a5.28,5.28,0,0,0,.768.874c.63.57,1.218,1.186,1.852,1.752.349.312.635.568.882.768a15.507,15.507,0,0,1,1.187-4.114c.772-1.967,2.055-3.505,2.356-5.429.219-8.083,1.507-14.839,5.618-21.849l-1.026-.856C1347.316,98.415,1345.371,108.776,1342.431,118.793Z" transform="translate(-16.97 -34.185)" fill="#1e242b"/>
    <path id="Path_1650" data-name="Path 1650" d="M1362.535,125.836c1.5-.978,3.013-1.929,4.531-2.878a51.8,51.8,0,0,1,3.849-8.177c.6,1.531,1.174,3.1,1.64,4.7q.821-.534,1.635-1.08.789-.53,1.58-1.063c-1.005-3.33-2.275-6.52-3.139-9.83C1370.595,114.454,1365.945,119.864,1362.535,125.836Z" transform="translate(-25.618 -41.744)" fill="#1e242b"/>
    <path id="Path_1651" data-name="Path 1651" d="M1357.912,71.015a15.972,15.972,0,0,1-2.634,7.616,14.956,14.956,0,0,0,5.16-6.6Q1359.158,71.552,1357.912,71.015Z" transform="translate(-22.496 -26.045)" fill="#1e242b"/>
    <path id="Path_1652" data-name="Path 1652" d="M1354.2,71.276l-.046-.018a14.955,14.955,0,0,1-5.161,6.6,15.968,15.968,0,0,0,2.634-7.616q-1.137-.491-2.243-1.029c-.49,7.171-4.587,13.681-7.626,20.443-.557,1.71-1.371,3.206-.987,4.832,6.222-6.623,10.344-14.72,14.3-22.9C1354.783,71.488,1354.492,71.385,1354.2,71.276Z" transform="translate(-16.213 -25.268)" fill="#1e242b"/>
    <path id="Path_1653" data-name="Path 1653" d="M1325.77,82.487q.519.86,1.01,1.741a40.252,40.252,0,0,1,3.169,6.808c4.89-7.343,8.582-15.319,8.666-23.924C1335.563,73.141,1330.327,77.594,1325.77,82.487Z" transform="translate(-9.803 -24.366)" fill="#1e242b"/>
    <path id="Path_1654" data-name="Path 1654" d="M1309.476,64.208a3.841,3.841,0,0,0-.715.558,1.035,1.035,0,0,0-.17,1.468,8.341,8.341,0,0,0,.681.853q.928,1.08,1.833,2.173a46.784,46.784,0,0,0,4.7-9.869A31.927,31.927,0,0,1,1309.476,64.208Z" transform="translate(-2.315 -21.045)" fill="#1e242b"/>
    <path id="Path_1655" data-name="Path 1655" d="M1333.318,56.841a34.561,34.561,0,0,1-2.747-2.7l-.02-.023c-2.018,5.074-4.665,9.845-6.416,15.049C1328.205,66.4,1331.244,61.785,1333.318,56.841Z" transform="translate(-9.1 -18.778)" fill="#1e242b"/>
    <path id="Path_1656" data-name="Path 1656" d="M1368.724,74.972c.958,7.44-.594,14.654-3.03,22.129-.385.984-.044,2.139-.173,3.336,3.465-5.527,4.119-11.718,7.4-17.289a43.275,43.275,0,0,1-1.735-6.553,1.466,1.466,0,0,0-1.265-1.293Q1369.324,75.138,1368.724,74.972Z" transform="translate(-26.895 -27.747)" fill="#1e242b"/>
    <path id="Path_1657" data-name="Path 1657" d="M1358.529,57.637a42.882,42.882,0,0,1-8.8-3.132,40.624,40.624,0,0,1-10.336-7.05c-.954-.872-.931-.913-.229-1.939,1.417-2.073,3.39-3.63,5.053-5.474a1.787,1.787,0,0,1,1.651-.513,6.079,6.079,0,0,1,2.678,1.069c3.539,2.319,7.537,3.626,11.451,5.055a20.943,20.943,0,0,0,6.8,1.037,2.067,2.067,0,0,1,1.3.183c-.219.59-.472,1.183-.657,1.8a2.22,2.22,0,0,1-1.362,1.521,3.157,3.157,0,0,0-1.684,3.96,3.9,3.9,0,0,0,4.325,2.547,3.052,3.052,0,0,0,2.764-3.267,3.731,3.731,0,0,1,.4-1.9c.623-1.246,1.193-2.52,1.748-3.8.191-.439.386-.8.916-.55a4.054,4.054,0,0,0,2.9.105c-.154,1.226-.31,2.231-.4,3.242a1.488,1.488,0,0,1-.773,1.267,3.218,3.218,0,0,0,.507,5.727,3.988,3.988,0,0,0,4.928-1.049,2.43,2.43,0,0,0,.457-2.567c-.8-1.546-.437-3.074-.249-4.628.044-.361.1-.721.168-1.079.372-2.045.375-2.028,2.377-2.2.722-.063,1.434-.227,2.313-.372-.219,1.439.159,2.884-.977,4.18a3,3,0,0,0,.172,3.727,4.1,4.1,0,0,0,4.1,1.324,3.086,3.086,0,0,0,2.294-4.055c-.144-.524-.244-1.06-.371-1.589-.355-1.484.21-2.859.43-4.29.352-2.29,2.474-.835,3.45-2.02.394,1.156.615,1.992-.071,3a2.781,2.781,0,0,0,.3,3.394,4.157,4.157,0,0,0,3.453,1.718,3.5,3.5,0,0,0,3.482-2.156,3.18,3.18,0,0,0-1.168-3.734,1.608,1.608,0,0,1-.681-1.856c.356-1.642.493-3.379,1.939-4.556,1.577,1.155,1.727,1.6,1.2,3.385a3.618,3.618,0,0,0-.158.891,3.178,3.178,0,0,0,2.435,3.032,4.239,4.239,0,0,0,4.5-1.621,2.889,2.889,0,0,0-.43-3.819,4.073,4.073,0,0,1-1.445-2.92,15.467,15.467,0,0,1,9.562.876c1.23.58,1.266.8.413,1.85-1.841,2.261-3.771,4.445-5.815,6.522a16.361,16.361,0,0,1-3.3,2.235,68.6,68.6,0,0,1-43.168,10.112c-1.563-.143-2.455-.66-2.793-2.2a18.416,18.416,0,0,0-1.933-4.1,1.406,1.406,0,0,1-.031-1.61,2.959,2.959,0,0,0-1.28-4.437,4.8,4.8,0,0,0-6.257,1.617,3.081,3.081,0,0,0,.882,4.327c.442.308.934.544,1.376.853.128.089.169.315.231.486C1357.546,55.314,1358.344,56.278,1358.529,57.637Zm-8.411-14.1a3.024,3.024,0,0,0-4.505.254,3.379,3.379,0,0,0,.446,4.726c1.537,1.285,3.468,1.31,4.59.06A3.581,3.581,0,0,0,1350.119,43.535Z" transform="translate(-15.346 -11.545)" fill="#feea02"/>
    <path id="Path_1658" data-name="Path 1658" d="M1429.232,62.011a83.541,83.541,0,0,1-7.183,6.975c-7.04,6.219-14.135,12.375-21.586,18.105-.961.739-1.947,1.446-2.874,2.225a1.154,1.154,0,0,1-1.851-.051,36.3,36.3,0,0,1-5-5.978,19.662,19.662,0,0,1-1.99-4.261c-.883-2.57-1.924-5.085-2.98-7.834A71.133,71.133,0,0,0,1429.232,62.011Z" transform="translate(-35.612 -22.172)" fill="#39d5ff"/>
    <path id="Path_1659" data-name="Path 1659" d="M1402.673,89.688c.472-2.651.862-8.852,1.693-11.906q-1.578.1-3.171.131c.1,5.146-1.533,11.4-.707,16.478,4.784-4.626,10.443-11.35,12.511-17.7q-1.905.365-3.837.619C1407.935,81.042,1404.3,84.087,1402.673,89.688Z" transform="translate(-41.843 -28.486)" fill="#1e242b"/>
    <path id="Path_1660" data-name="Path 1660" d="M1414.448,92.511q3.566-2.79,7.04-5.689a83.551,83.551,0,0,0,2.054-9.218C1420.7,82.828,1416.884,87.238,1414.448,92.511Z" transform="translate(-47.948 -28.879)" fill="#1e242b"/>
    <path id="Path_1661" data-name="Path 1661" d="M1385.769,78.12c.576,1.5,1.145,2.93,1.69,4.338.807-1.31,1.663-2.62,2.359-4.024C1388.476,78.364,1387.128,78.265,1385.769,78.12Z" transform="translate(-35.612 -29.101)" fill="#1e242b"/>
    <path id="Path_1662" data-name="Path 1662" d="M1408.044,74.155c-2.069,6.35-7.727,13.074-12.511,17.7-.826-5.081.806-11.331.707-16.478-1.7.031-3.417,0-5.147-.094-.7,1.4-1.552,2.714-2.359,4.024.453,1.172.889,2.329,1.289,3.5a19.693,19.693,0,0,0,1.99,4.261,36.29,36.29,0,0,0,5,5.978,1.154,1.154,0,0,0,1.851.051c.927-.778,1.913-1.486,2.874-2.225.553-.425,1.1-.857,1.648-1.287,2.436-5.273,6.253-9.683,9.094-14.907a83.551,83.551,0,0,1-2.054,9.218q3.836-3.194,7.594-6.48c.547-2.22,1.464-4.415,1.833-6.618A70.728,70.728,0,0,1,1408.044,74.155Z" transform="translate(-36.887 -25.95)" fill="#39d5ff"/>
    <path id="Path_1663" data-name="Path 1663" d="M1441.961,69.36c-.368,2.2-1.285,4.4-1.833,6.618q1.792-1.558,3.575-3.127a36.694,36.694,0,0,0,2.811-5.393Q1444.254,68.488,1441.961,69.36Z" transform="translate(-58.995 -24.514)" fill="#1e242b"/>
    <path id="Path_1664" data-name="Path 1664" d="M1484.791,15.53a51.424,51.424,0,0,1,6.091,2.494,5.948,5.948,0,0,1,2.892,7.275,24.579,24.579,0,0,1-2.857,5.873,106.144,106.144,0,0,1-13.344,16.083,1.071,1.071,0,0,1-1.569.226,24.679,24.679,0,0,1-5.969-4.968c-1.007-1.235-.992-1.533.1-2.622a108.563,108.563,0,0,0,8.117-9.336,38.447,38.447,0,0,0,5.25-8.271A13.271,13.271,0,0,0,1484.791,15.53Z" transform="translate(-71.543 -2.177)" fill="#fff"/>
    <path id="Path_1665" data-name="Path 1665" d="M1451.839,72.951a5.2,5.2,0,0,1-1.424,1.7c-6.358,6.168-13.052,11.956-19.928,17.536-2.683,2.177-5.411,4.3-8.075,6.5a2.959,2.959,0,0,1-3.127.665c-1.729-.538-3.4-1.18-5.17-1.82a5.177,5.177,0,0,1,1.878-1.742c3.44-2.48,7.037-4.726,10.6-7.031,6.508-4.214,13.025-8.415,18.758-13.7,1.12-1.031,2.119-2.168,3.127-3.3.4-.447.709-.539,1.219-.171C1450.368,72.081,1451.1,72.489,1451.839,72.951Z" transform="translate(-47.806 -26.195)" fill="#fff"/>
    <path id="Path_1666" data-name="Path 1666" d="M1407.462,90.918c11.855-8.775,23.338-18.06,33.836-28.779a15.607,15.607,0,0,0,2.955,3.427c.673.539.464.962,0,1.5a44.206,44.206,0,0,1-6.475,6.119c-6.282,4.869-12.91,9.243-19.557,13.591-2.383,1.559-4.714,3.2-7,4.9-1.505,1.114-1.454,1.187-2.956.181a4.041,4.041,0,0,1-.562-.46A2.166,2.166,0,0,1,1407.462,90.918Z" transform="translate(-44.943 -22.227)" fill="#fff"/>
    <path id="Path_1667" data-name="Path 1667" d="M1356.655,145.407a3.317,3.317,0,0,1,1.587-1.233c5.564-2.8,10.436-6.595,15.3-10.416,3.246-2.548,6.345-5.265,9.473-7.949a2.085,2.085,0,0,1,2.687-.478c1.433.72,2.812,1.724,4.567,1.629-.17.679-.663.852-1.043,1.136q-10.425,7.786-21.327,14.889c-1.98,1.292-3.927,2.634-5.9,3.936-1.8,1.189-2.371,1.155-4.015-.23C1357.527,146.3,1357.119,145.857,1356.655,145.407Z" transform="translate(-23.088 -49.28)" fill="#fff"/>
    <path id="Path_1668" data-name="Path 1668" d="M1376.993,76.682c3.862.448,3.756.486,4.919,3.785s1.847,6.81,3.877,9.76a29.8,29.8,0,0,0,13.282,11.2c1.688.695,3.444,1.092,5.155,1.663a7.074,7.074,0,0,0,4.816-.174c.323-.124.633-.388,1.087-.08-1.772,1.853-3.567,3.418-6.434,2.73-1.164-.279-2.408-.2-3.6-.365-3.651-.5-6.7-2.367-9.7-4.333-4.156-2.72-6.8-6.618-8.831-11.051a66.391,66.391,0,0,1-3.083-7.364A47.764,47.764,0,0,1,1376.993,76.682Z" transform="translate(-31.837 -28.482)" fill="#fff"/>
    <path id="Path_1669" data-name="Path 1669" d="M1380.96,121.909c-.5.99-1.362,1.386-2.014,1.992a168.891,168.891,0,0,1-15.015,12.307c-3.033,2.229-6.38,3.935-9.575,5.894-.694.425-.989.109-1.241-.46a21.5,21.5,0,0,1-1.04-3.664c-.117-.482.192-.607.538-.776,8.6-4.205,15.887-10.382,23.7-15.765.05-.034.093-.077.142-.113,1.768-1.286,1.766-1.284,3.637.028C1380.345,121.526,1380.606,121.681,1380.96,121.909Z" transform="translate(-21.107 -47.272)" fill="#fff"/>
    <path id="Path_1670" data-name="Path 1670" d="M1336.077,43.671a1.46,1.46,0,0,1-1.033-.679c-.974-1.143-.943-1.129-.065-2.43a55.15,55.15,0,0,0,3.566-5.278,3.778,3.778,0,0,1,4.468-2.2c2.145.406,4.306.748,6.435,1.229,2.838.643,5.781.738,8.565,1.667a6.738,6.738,0,0,0,1.629.075,22.84,22.84,0,0,0-3.047,4.835c-.381.778-.829.792-1.6.483a34.354,34.354,0,0,1-7.961-3.952,16.766,16.766,0,0,0-3-1.256,1.39,1.39,0,0,0-1.36.321,13.315,13.315,0,0,0-3.589,3.04A27.859,27.859,0,0,0,1336.077,43.671Z" transform="translate(-13.48 -9.687)" fill="#ff45d4"/>
    <path id="Path_1671" data-name="Path 1671" d="M1470.567,23.3c3.831-2.405,6.816-5.6,10.794-7.383,1.737-.781,2.229-.523,2.175,1.419a9.763,9.763,0,0,1-1.247,4.136,43.505,43.505,0,0,1-3.791,6.174c-.466.629-.775.907-1.545.292A58.339,58.339,0,0,0,1470.567,23.3Z" transform="translate(-72.089 -2.166)" fill="#fff"/>
    <path id="Path_1672" data-name="Path 1672" d="M1395.328,40.613a6.324,6.324,0,0,1,.961,2.485,1.433,1.433,0,0,1-.023,1.054c-1.466,2.862-2.419,5.939-3.717,8.871a1.7,1.7,0,0,1-3.022.426,1.316,1.316,0,0,1-.289-1.634c1.616-3.115,3.142-6.276,4.738-9.4A3.923,3.923,0,0,1,1395.328,40.613Z" transform="translate(-37.029 -12.967)" fill="#fff"/>
    <path id="Path_1673" data-name="Path 1673" d="M1388.239,42.791a17.318,17.318,0,0,0-.461-10.6c-.134-.376-.472-.753-.069-1.16a1.251,1.251,0,0,1,1.339-.272,3.036,3.036,0,0,1,2.482,2.112c.137.519.446.99.616,1.5A4.216,4.216,0,0,1,1392,38.03c-.715,1.252-1.229,2.617-1.862,3.918C1389.668,42.916,1389.647,42.905,1388.239,42.791Z" transform="translate(-36.364 -8.695)" fill="#fff"/>
    <path id="Path_1674" data-name="Path 1674" d="M1425.436,51.827a2.047,2.047,0,0,1-.9-2.2,20.988,20.988,0,0,1,2.5-7.512c.687-1.186,1.091-1.238,2.139-.508a.767.767,0,0,1,.311,1.057c-.509,1.48-.9,3-1.424,4.478a5.306,5.306,0,0,0-.189,3.356c.174.625.606,1.445-.34,1.912A1.668,1.668,0,0,1,1425.436,51.827Z" transform="translate(-52.272 -13.19)" fill="#fff"/>
    <path id="Path_1675" data-name="Path 1675" d="M1411.568,41.684c.352.6.62,1.066.9,1.525a1.009,1.009,0,0,1-.063,1.157,18.02,18.02,0,0,0-2.047,8.734c-.012.467.213.972-.212,1.377-.358.342-.77.736-1.265.466-.613-.336-1.521-.68-1.408-1.492.551-3.955,1.135-7.92,3.511-11.314A3.212,3.212,0,0,1,1411.568,41.684Z" transform="translate(-44.943 -13.428)" fill="#fff"/>
    <path id="Path_1676" data-name="Path 1676" d="M1403.49,35.134a8.413,8.413,0,0,1,.437.746c.354.766.669,1.552,1.035,2.312,1.036,2.152.51,4.217-.266,6.3-.262.7-.8.679-1.314.663s-.373-.5-.42-.839a31.725,31.725,0,0,0-2.035-7.68c-.589-1.447-.274-1.871,1.315-1.834A2.59,2.59,0,0,1,1403.49,35.134Z" transform="translate(-42.014 -10.466)" fill="#fff"/>
    <path id="Path_1677" data-name="Path 1677" d="M1381.232,34.643a2.881,2.881,0,0,1,.645,1.367,2.339,2.339,0,0,1-.932,3.066,9.955,9.955,0,0,0-3.047,3.777c-.2.423-.333.991-.973.883a4.449,4.449,0,0,1-2.172-.8c-.164-.134-.1-.335-.029-.5A16.413,16.413,0,0,1,1381.232,34.643Z" transform="translate(-30.829 -10.399)" fill="#fff"/>
    <path id="Path_1678" data-name="Path 1678" d="M1379,72.665a9.854,9.854,0,0,1-2.524.939c-1.789-.131-1.537-3.893-3.526-7.631-.463-.87-.9-1.832-1.433-2.712-.391-.651-.766-1.237-.082-1.935a1.945,1.945,0,0,1,2.32-.413,2.089,2.089,0,0,1,1,1A107.266,107.266,0,0,1,1379,72.665Z" transform="translate(-29.284 -21.607)" fill="#fff"/>
    <path id="Path_1679" data-name="Path 1679" d="M1446.449,38.009c-1.593,2.164-2.488,4.41-2.038,7.018.114.658-.151.858-.741.905-1.41.113-2.005-.351-2.1-1.8a9.539,9.539,0,0,1,.7-4.418C1443.037,37.938,1443.865,36.9,1446.449,38.009Z" transform="translate(-59.607 -11.649)" fill="#fff"/>
    <path id="Path_1680" data-name="Path 1680" d="M1449.011,33.768c2.269-1.459,4.487-1.023,5.8,1.145a12.563,12.563,0,0,1,1.4,3.328,1.076,1.076,0,0,1-.578,1.363,1.333,1.333,0,0,1-1.667-.169,2.48,2.48,0,0,1-.645-1.078,6.865,6.865,0,0,0-4.118-4.311C1449.122,34.013,1449.077,33.864,1449.011,33.768Z" transform="translate(-62.816 -9.656)" fill="#fff"/>
    <path id="Path_1681" data-name="Path 1681" d="M1417.492,44.318c-.359-2.936-1.958-5.224-3.519-7.52,1.478-.864,1.495-.883,2.521.07a13.991,13.991,0,0,1,2.976,4.095C1420.528,43.1,1420.034,44.341,1417.492,44.318Z" transform="translate(-47.744 -11.048)" fill="#fff"/>
    <path id="Path_1682" data-name="Path 1682" d="M1470.149,33.747a35.045,35.045,0,0,0-5.262-.389c-.846.035-1.693.117-2.532.226-1.284.165-1.282.182-1.964-1.211,1.463-.88,3.278-.809,4.726-1.744.4-.258.811-.017,1.163.259A41.5,41.5,0,0,1,1470.149,33.747Z" transform="translate(-67.711 -8.625)" fill="#ff45d4"/>
    <path id="Path_1683" data-name="Path 1683" d="M1385.325,42.74a13.584,13.584,0,0,1-.185,4.31c-.146.814-.559,1.149-1.383.913-.678-.194-1.679.026-1.962-.646-.307-.729.4-1.431.877-2.023A11.47,11.47,0,0,1,1385.325,42.74Z" transform="translate(-33.87 -13.882)" fill="#ff45d4"/>
    <path id="Path_1684" data-name="Path 1684" d="M1435.261,41.188a58.473,58.473,0,0,0-5.626-3.789c.181-.7.694-.568,1.059-.569a7.126,7.126,0,0,1,3.464.944C1435.842,38.7,1435.927,38.985,1435.261,41.188Z" transform="translate(-54.481 -11.336)" fill="#fff"/>
    <path id="Path_1685" data-name="Path 1685" d="M1368.485,59.318a1.676,1.676,0,0,1,.009-2.306,3.806,3.806,0,0,1,3.682-.966,2.168,2.168,0,0,1,1.765,2.228C1370.739,57.432,1370.739,57.432,1368.485,59.318Z" transform="translate(-27.98 -19.55)" fill="#b5b4a5"/>
    <path id="Path_1686" data-name="Path 1686" d="M1440.818,53.907c1.3.246,2.577.678,3.856-.018.423-.231.645.177.756.525a1.607,1.607,0,0,1-1.394,2.092A2.76,2.76,0,0,1,1440.818,53.907Z" transform="translate(-59.291 -18.649)" fill="#b5b4a5"/>
    <path id="Path_1687" data-name="Path 1687" d="M1390.2,64.838c-.916,1.39-1.991,1.7-3.241,1.044a2.3,2.3,0,0,1-1.274-2.706c.223-.643.8-.907,1.006-.457C1387.376,64.223,1388.666,64.692,1390.2,64.838Z" transform="translate(-35.532 -22.38)" fill="#b5b4a5"/>
    <path id="Path_1688" data-name="Path 1688" d="M1409.245,66.281a1.877,1.877,0,0,1-1.8,1.945,2.51,2.51,0,0,1-2.509-1.076,1.43,1.43,0,0,1-.189-1.208c.19-.817.78-1.028,1.329-.4A2.39,2.39,0,0,0,1409.245,66.281Z" transform="translate(-43.751 -23.534)" fill="#b5b4a5"/>
    <path id="Path_1689" data-name="Path 1689" d="M1378.9,33.373a1.442,1.442,0,0,1-1.325,1.025c-1.551.117-3.118.31-4.577-.511,1.191-1.386,3.613-1.569,5.9-.464Z" transform="translate(-30.12 -9.565)" fill="#fff"/>
    <path id="Path_1690" data-name="Path 1690" d="M1460.676,45.464c.182,1.665-.489,2.605-1.865,2.747-1.459.15-2.39-.692-2.5-2.42C1457.891,47.142,1459.318,46.683,1460.676,45.464Z" transform="translate(-65.956 -15.054)" fill="#b5b4a5"/>
    <path id="Path_1691" data-name="Path 1691" d="M1427.735,61.84c-1.015,1.562-2.094,1.932-3.384,1.335-1.059-.489-1.3-1.1-.918-2.553C1424.616,61.76,1425.9,62.545,1427.735,61.84Z" transform="translate(-51.74 -21.574)" fill="#b5b4a5"/>
    <path id="Path_1692" data-name="Path 1692" d="M1410.025,40.682l-.919-2.987C1411.417,38.093,1411.5,38.317,1410.025,40.682Z" transform="translate(-45.65 -11.712)" fill="#ff45d4"/>
    <path id="Path_1693" data-name="Path 1693" d="M1424.473,37.9c-1.628,1.037-1.628,1.037-3.061-1.031C1422.557,36.792,1423.3,37.557,1424.473,37.9Z" transform="translate(-50.944 -11.353)" fill="#fff"/>
    <path id="Path_1694" data-name="Path 1694" d="M1436.341,45.067a.987.987,0,0,1-.883.492c-.33.041-.77.181-.866-.284a1.179,1.179,0,0,1,.281-.795c.309-.418.608-.091.88.1C1435.941,44.714,1436.109,44.873,1436.341,45.067Z" transform="translate(-56.61 -14.543)" fill="#ff45d4"/>
    <path id="Path_1695" data-name="Path 1695" d="M1425.482,43.307c-.81-1.576-.774-1.641,1.046-1.919Z" transform="translate(-52.477 -13.3)" fill="#ff45d4"/>
    <path id="Path_1696" data-name="Path 1696" d="M1417.1,47.99c.34.577.733,1.013.242,1.508a.656.656,0,0,1-.636-.076C1416.3,48.9,1416.642,48.492,1417.1,47.99Z" transform="translate(-48.841 -16.14)" fill="#ff45d4"/>
    <path id="Path_1697" data-name="Path 1697" d="M1397.854,37.776a4.382,4.382,0,0,1-.39-1.878A1.254,1.254,0,0,1,1397.854,37.776Z" transform="translate(-40.642 -10.939)" fill="#ff45d4"/>
    <path id="Path_1698" data-name="Path 1698" d="M1402.463,50.359c.32.433.433.835-.025,1.195a.333.333,0,0,1-.311-.085C1401.815,50.976,1402.105,50.664,1402.463,50.359Z" transform="translate(-42.591 -17.159)" fill="#ff45d4"/>
    <path id="Path_1699" data-name="Path 1699" d="M1441.258,37.436c.135-.137.3-.206.45-.065a.321.321,0,0,1,.043.293c-.1.218-.284.176-.427.059C1441.264,37.675,1441.278,37.534,1441.258,37.436Z" transform="translate(-59.481 -11.539)" fill="#ff45d4"/>
    <path id="Path_1700" data-name="Path 1700" d="M1383.352,33.861c.238-.048-.057-.23.133-.078.029.022.07.08.064.087-.1.116-.168.095-.194-.059Z" transform="translate(-34.572 -10.004)" fill="#fff"/>
    <path id="Path_1701" data-name="Path 1701" d="M1354.795,47.571a3.58,3.58,0,0,1,.53,5.04c-1.121,1.25-3.053,1.225-4.589-.06a3.379,3.379,0,0,1-.446-4.726A3.024,3.024,0,0,1,1354.795,47.571Zm-3.169,1.532a2.2,2.2,0,0,0,.3,2.795,1.483,1.483,0,0,0,2.087-.2,1.978,1.978,0,0,0-.307-2.742A1.4,1.4,0,0,0,1351.626,49.1Z" transform="translate(-20.022 -15.581)" fill="#1e242b"/>
    <path id="Path_1702" data-name="Path 1702" d="M1352.929,50.517a1.4,1.4,0,0,1,2.076-.149,1.978,1.978,0,0,1,.307,2.742,1.483,1.483,0,0,1-2.087.2A2.2,2.2,0,0,1,1352.929,50.517Z" transform="translate(-21.325 -16.995)" fill="#b5b4a5"/>
  </g>
</svg>
