<svg xmlns="http://www.w3.org/2000/svg" width="112.205" height="91.579" viewBox="0 0 112.205 91.579">
  <g id="one" transform="translate(526.425 -151.673)">
    <path id="Path_1798" data-name="Path 1798" d="M-462.6,230.073q-23,6.4-46.005,12.79c-2.6.724-2.907.629-3.685-1.956q-4.7-15.594-9.283-31.219c-1.4-4.779-2.835-9.545-4.426-14.264-.647-1.92-.8-3.708,1.356-4.858.2-.107.5-.336.485-.483-.164-1.7,1.127-1.985,2.284-2.349.951-.3.99-.9.776-1.709a28.271,28.271,0,0,1-1.341-5.952c-.143-3.214.718-4.852,3.624-6.26.951-.461,1.972-.779,2.958-1.167,1.1-.433,2.352-.586,2.436-2.265.047-.924,1.107-1.065,1.883-1.309q11.909-3.763,23.817-7.526,10.51-3.3,21.037-6.549a97.753,97.753,0,0,1,13.555-3.2,4.569,4.569,0,0,1,3.755.639,3.029,3.029,0,0,0,3.155.435,16.53,16.53,0,0,1,2.153-.459c4-.617,6.309.656,7.888,5.122.351.993.471,2.067.739,3.093.437,1.668.473,1.755,2.083,1.372,2.437-.581,3.633,1.515,5.4,2.371.209.1.256.573.341.884q6.474,23.865,12.934,47.734a12.154,12.154,0,0,1,.456,2.148,1.621,1.621,0,0,1-1.424,1.932c-5.691,1.139-11.173,3.05-16.758,4.581-10.076,2.763-20.133,5.593-30.2,8.4Zm-43.3-33.5-.1-.34q-7.267,2.167-14.534,4.33c-2.2.65-2.489.274-1.672,2.9q4.573,14.717,9.141,29.437c.548,1.761.566,1.755,2.308,1.207q13.533-4.254,27.068-8.51c1.011-.318,2.018-.65,3.022-.988a1.04,1.04,0,0,0,.779-1.5c-.138-.383-.239-.78-.356-1.17l-8.524-28.6c-.5-1.684-.51-1.711-2.359-1.166C-496.064,193.626-500.983,195.1-505.907,196.572ZM-464.5,184.6c-.67.929-.184,1.583,0,2.239.622,2.176.559,2.182-1.619,2.8-1.221.348-1.865.044-2.2-1.138-.175-.625-.411-1.233-.612-1.851-.112-.341-.293-.572-.694-.465s-.428.435-.352.762c.2.875.434,1.743.636,2.617.109.475.225.962-.322,1.291a2.355,2.355,0,0,1-3.271-1.189c-.245-.722-.442-1.463-.687-2.287-.888.6-.5,1.048-.341,1.441,1.073,2.579,1.055,2.5-1.594,3.4-1.087.371-1.333-.1-1.864-.851-.59-.836-.121-1.932-.983-2.91a4.286,4.286,0,0,0,.315,2.73c.279,1.124-.051,1.741-1.127,2a2.88,2.88,0,0,1-1.9.182c-.491-.21-.622-.011-1.029.4-1.966,1.974-3.4,1.525-4.148-1.129-.2-.692.061-1.951-1.259-1.468-1.242.455-.319,1.415-.1,2.053,3.324,9.822,6.252,19.768,9.346,29.662.881,2.82.575,2.516-1.616,3.169q-14.9,4.437-29.8,8.9a5.615,5.615,0,0,0-2.416.976c.183.617.375,1.307.595,1.987.662,2.043.352,2.088,2.642,1.432q43.56-12.458,87.124-24.9c1.412-.4,2.828-.8,4.24-1.205.381-.111.906-.178.926-.648a3.632,3.632,0,0,0-.627-2.314c-.387-.513-1.061-.025-1.6.085-.32.064-.63.171-.945.258q-12.979,3.6-25.96,7.194c-2.279.629-4.63,1.053-6.831,1.883-1.116.42-1.488.186-1.8-.73-.213-.616-.365-1.254-.543-1.882q-4.273-15.08-8.557-30.156A4.083,4.083,0,0,0-464.5,184.6Zm2.436-12.842.049.167c.86-.256,1.719-.521,2.581-.768,5.178-1.484,10.361-2.951,15.531-4.462.652-.19,1.622-.09,1.763-1.029a2.047,2.047,0,0,1,1.87-1.93c.588-.1.766-.445.71-1.04a11.471,11.471,0,0,0-1.62-5.571c-1.156-1.719-5.22-2-6.455-.319a10.4,10.4,0,0,1-5.423,3.5c-2.161.728-4.381,1.291-6.593,1.855-8.293,2.112-16.628,4.056-24.821,6.558-8.273,2.527-16.609,4.849-24.913,7.273-.628.183-1.281.557-1.894.25-2.078-1.043-3.763,0-5.48.924-1.506.809-2.076,1.785-1.631,3.328a44.128,44.128,0,0,1,1.137,4.751c.188,1.091.725,1.356,1.688.9a1.568,1.568,0,0,1,2.174.337c.3.382.723.265,1.119.146l4.219-1.274c.522-.158.873-.418.686-1.048-.393-1.325.568-1.736,1.491-2.1,1.062-.416,2.162-.733,3.239-1.111,1.1-.385,2.073-.557,2.454.952a.745.745,0,0,0,1.1.6c.552-.233.279-.653.211-1.025-.35-1.908-.353-1.92,1.474-2.486,1.4-.435,2.814-.845,4.225-1.249,1.888-.54,1.9-.538,2.752,1.277.225.481.425.885,1.063.639.483-.186.468-.542.436-.983-.151-2.13-.135-2.12,1.937-2.682a15.6,15.6,0,0,1,3.115-.608c.631-.04,1.249.008,1.381.674.318,1.609,1.266,1.285,2.36.955C-474.112,175.336-468.087,173.552-462.064,171.756Zm-13.883,12.395q22.35-6.472,44.7-12.943c3.648-1.056,3.369-1.014,2.871-4.823-.33-2.522-3.421-.934-3.675-3.1-.033-.283-.73-.208-1.128-.1q-3.315.877-6.626,1.763c-.49.131-1.01.328-1.036.89-.066,1.456-1.209,1.558-2.2,1.851-22.637,6.655-45.272,13.312-67.994,19.674a4.965,4.965,0,0,1-2.138.409c-2.849-.607-5.448.363-8.1,1.063-.461.122-1.258.209-1.245.605.052,1.621-1.05,2.179-2.183,2.841a1.367,1.367,0,0,0-.529,1.531c.126.555.317,1.1.49,1.64.868,2.728.562,2.46,3.1,1.736Q-498.795,190.667-475.948,184.151ZM-444.978,179l-.047-.159q-5.4,1.609-10.79,3.215c-2.033.6-4.067,1.206-6.113,1.77-.869.239-1.279.649-.9,1.573.125.3.189.624.285.936q4.653,15.213,9.3,30.427c.547,1.79.456,1.725,2.371,1.179q13.415-3.828,26.844-7.608c1.57-.444,3.14-.889,4.7-1.358,1.68-.5,1.678-.517,1.362-2.123-.079-.4-.162-.8-.272-1.193-2.821-10.054-5.539-20.135-8.005-30.284-.434-1.785-.5-1.8-2.327-1.264C-434.036,175.724-439.505,177.367-444.978,179Zm-36.139-12.457c3.362-1,6.7-2.1,10.09-2.986,5.838-1.532,11.718-2.9,17.508-4.618a15.344,15.344,0,0,0,3.534-1.662,1.49,1.49,0,0,0,.756-1.839c-.446-1.952-1.5-2.577-3.879-2.169a104.464,104.464,0,0,0-12.354,3.02q-20.647,6.187-41.268,12.462c-1.328.4-2.637.87-3.966,1.268a1.9,1.9,0,0,0-1.547,1.374,3.9,3.9,0,0,0,.959,3.174c.647.938,1.6.47,2.452.179C-499.707,171.635-490.4,169.122-481.117,166.542Zm5.633,18.494.01.033q-20.715,5.888-41.427,11.777-2.707.77-5.408,1.563c-.6.177-1.355.221-1.114,1.216.253,1.039.922.631,1.525.485.159-.038.314-.09.471-.136q16.437-4.822,32.874-9.647a3.727,3.727,0,0,0,1.731-.83,4.076,4.076,0,0,1,3.469-1.2c1.075.078,2.1-1.366,3.5-1.2a2.1,2.1,0,0,1,.7.2.5.5,0,0,0,.65-.106c1.348-2.062,4.4-.425,5.685-2.629.051-.088.331-.121.465-.073,1.932.7,3.468-.358,5.083-1.1a1.748,1.748,0,0,1,1.163-.237c1.277.525,2.4-.035,3.554-.366q16.578-4.777,33.14-9.606c.778-.227,2.378-.246,2.109-1.056-.391-1.179-1.675-.168-2.477.056Q-452.651,178.551-475.485,185.036Zm58.311,29.793c-4.934.847-90.135,25.25-92.259,26.435,1.113.626,2.1.018,3.066-.255q39.826-11.217,79.644-22.467c2.67-.753,5.352-1.466,8.029-2.2C-417.907,216.13-417.081,215.956-417.174,214.829Zm-102.079-27.872c.757-.332.715-.667.687-.98a31.3,31.3,0,0,0-.835-4.8c-.581-2.323.243-3.876,2.322-4.968a12.234,12.234,0,0,1,3.436-1.222.776.776,0,0,0,.676-1.057c-.132-.594-.471-.78-1.059-.651a20.754,20.754,0,0,0-3.338.708c-3.265,1.319-4.622,2.864-3.694,6.839C-520.579,182.873-519.874,184.872-519.252,186.957Zm81.8-27.821-.02,0c-.018-.079-.038-.158-.054-.238-.963-5.006-3.145-6.211-7.67-5.111-.881.214-2.647,0-2.455.789.317,1.3,1.769.3,2.641.123a4.246,4.246,0,0,1,4.436,1.228,9,9,0,0,1,2.32,4.741c.067.562.131,1.127.238,1.683.08.413.276.816.794.667a.652.652,0,0,0,.393-.789C-437.018,161.2-437.243,160.167-437.453,159.135Zm-56.88,22.144.006.018c.619-.184,1.242-.358,1.857-.557.459-.147.955-.272.775-.962-.164-.627-.455-1.029-1.182-.814-1.393.411-2.792.807-4.178,1.24-.581.182-.643.651-.489,1.17.175.59.59.688,1.122.528Zm19.456,7.675.019-.007c-.2-.528-.419-1.05-.6-1.584a.781.781,0,0,0-1.091-.592c-.612.165-.818.568-.622,1.073.349.9.246,1.917.784,2.771.349.555.758.444,1.242.3.55-.166.836-.452.613-1.051C-474.648,189.559-474.763,189.257-474.877,188.955Zm-4.549,1.143c-.15-.5-.245-.808-.333-1.118-.168-.595-.416-1.031-1.176-.86-.778.174-.792.659-.634,1.275a8.411,8.411,0,0,0,.183.948c.314.812.137,2.288,1.6,1.839C-478.555,191.8-479.5,190.689-479.426,190.1Zm6.84-2.593c.235.637.458,1.245.684,1.85a.829.829,0,0,0,.932.59c.564-.086.456-.549.394-.943-.1-.639-.178-1.283-.325-1.911-.186-.793-.032-2.046-1.467-1.563C-473.737,185.989-472.433,186.859-472.586,187.5Zm-12.917-8.817,0,.011c.466-.139.933-.273,1.4-.418a.849.849,0,0,0,.648-1.106c-.115-.533-.545-.579-.938-.508-.953.174-1.9.4-2.838.631-.659.164-.543.67-.468,1.163.1.657.487.741,1.031.574C-486.28,178.917-485.891,178.8-485.5,178.688ZM-465.938,186l.062-.018c-.069-.231-.126-.465-.209-.691-.181-.493-.17-1.182-1.041-.955-.759.2-1.084.613-.847,1.4.185.615.346,1.236.543,1.846.178.552.385,1.057,1.163.828.861-.253.871-.794.606-1.487C-465.774,186.617-465.847,186.3-465.938,186Zm-37.766-3.667a8.206,8.206,0,0,0-2.21.979.713.713,0,0,0-.25.856.577.577,0,0,0,.77.361q1.867-.526,3.723-1.09a.663.663,0,0,0,.466-.935.77.77,0,0,0-.883-.637A14.261,14.261,0,0,0-503.7,182.328Zm18.566,9.364c.405.481.055,2.029,1.381,1.6,1.029-.334.131-1.421.154-2.165a3.3,3.3,0,0,0-.265-1.186.7.7,0,0,0-.988-.413c-.4.135-.774.327-.669.842C-485.445,190.767-485.3,191.152-485.139,191.692Z" transform="translate(0 0)" fill="#2b2c33"/>
    <path id="Path_1799" data-name="Path 1799" d="M-504.323,213.346c4.923-1.468,9.843-2.946,14.77-4.4,1.849-.545,1.857-.518,2.359,1.166l8.524,28.6c.117.391.218.787.356,1.17a1.04,1.04,0,0,1-.779,1.5c-1,.338-2.011.671-3.022.988q-13.533,4.258-27.068,8.51c-1.742.547-1.76.554-2.308-1.207q-4.577-14.716-9.141-29.437c-.817-2.627-.525-2.251,1.672-2.9q7.271-2.149,14.534-4.33Z" transform="translate(-1.583 -16.773)" fill="#ff45d4"/>
    <path id="Path_1800" data-name="Path 1800" d="M-458.536,198.341a4.083,4.083,0,0,1,1.027,2.342q4.3,15.072,8.557,30.156c.178.628.33,1.266.543,1.882.316.915.688,1.15,1.8.73,2.2-.83,4.552-1.254,6.831-1.883q12.983-3.585,25.96-7.194c.315-.087.625-.194.945-.258.539-.109,1.214-.6,1.6-.085a3.632,3.632,0,0,1,.626,2.314c-.02.471-.545.538-.926.648-1.412.408-2.828.8-4.24,1.205q-43.564,12.446-87.124,24.9c-2.29.655-1.98.611-2.642-1.432-.22-.681-.411-1.371-.595-1.987a5.614,5.614,0,0,1,2.416-.976q14.9-4.469,29.8-8.9c2.191-.653,2.5-.349,1.616-3.168-3.094-9.894-6.022-19.84-9.346-29.662-.216-.638-1.139-1.6.1-2.053,1.32-.483,1.063.776,1.259,1.468.753,2.653,2.183,3.1,4.148,1.129.406-.407.538-.606,1.029-.4a2.88,2.88,0,0,0,1.9-.182c1.076-.255,1.405-.873,1.127-2a4.286,4.286,0,0,1-.315-2.73c.863.979.394,2.074.983,2.91.531.751.777,1.222,1.864.851,2.648-.9,2.667-.825,1.594-3.4-.164-.392-.547-.844.341-1.441.246.825.442,1.565.687,2.287a2.355,2.355,0,0,0,3.271,1.19c.547-.329.431-.816.322-1.291-.2-.875-.433-1.743-.636-2.617-.076-.327-.061-.651.352-.762s.582.123.693.465c.2.618.437,1.226.612,1.851.33,1.182.974,1.486,2.2,1.138,2.179-.62,2.241-.626,1.619-2.8C-458.72,199.924-459.205,199.27-458.536,198.341ZM-466.45,212l-.037-.126c-3.127.932-6.238,1.92-9.388,2.766-1.07.287-1.261.727-1,1.719,1.019,3.947,1.958,7.915,2.979,11.863.573,2.218.7,2.3,2.841,1.714,5.664-1.55,11.315-3.146,16.971-4.726.393-.109.777-.249,1.17-.358A1.316,1.316,0,0,0-451.9,223c-1.11-4.177-2.167-8.368-3.317-12.534-.432-1.564-.592-1.607-2.32-1.112C-460.517,210.209-463.48,211.118-466.45,212Z" transform="translate(-5.965 -13.743)" fill="#006ac7"/>
    <path id="Path_1801" data-name="Path 1801" d="M-475.47,188.913l-45.693,13.033c-2.54.724-2.234.991-3.1-1.736-.173-.544-.363-1.085-.49-1.64a1.367,1.367,0,0,1,.529-1.531c1.133-.662,2.235-1.22,2.183-2.841-.013-.4.784-.483,1.245-.605,2.649-.7,5.248-1.67,8.1-1.062a4.965,4.965,0,0,0,2.138-.409c22.722-6.362,45.358-13.019,67.994-19.674.995-.293,2.137-.4,2.2-1.851.026-.562.547-.758,1.036-.89q3.312-.883,6.626-1.763c.4-.105,1.095-.18,1.128.1.254,2.169,3.346.581,3.675,3.1.5,3.809.777,3.767-2.871,4.823Q-453.121,182.44-475.47,188.913Z" transform="translate(-0.478 -4.763)" fill="#006ac7"/>
    <path id="Path_1802" data-name="Path 1802" d="M-418.491,188.234c5.473-1.632,10.943-3.274,16.42-4.889,1.823-.538,1.893-.521,2.327,1.264,2.466,10.148,5.184,20.229,8.005,30.284.11.392.193.793.272,1.193.316,1.606.317,1.619-1.362,2.123-1.563.469-3.133.914-4.7,1.358q-13.423,3.8-26.844,7.608c-1.914.546-1.824.611-2.371-1.179q-4.645-15.216-9.3-30.427c-.1-.312-.16-.636-.285-.936-.383-.924.027-1.333.9-1.573,2.045-.564,4.079-1.168,6.113-1.77q5.4-1.6,10.79-3.215Zm9.342,33.43a16.235,16.235,0,0,0,10.91-20.352c-2.608-8.214-10.988-13.1-19.412-10.549-10.025,3.039-14.089,11.426-11.8,20C-427.142,219.437-417.857,224.288-409.149,221.665Zm3.6-33.134.033.11c.932-.278,1.859-.574,2.8-.829,1.054-.287,1.2-.943.827-1.855-.34-.835-.564-1.7-1.858-1.3-1.7.533-3.436.959-5.174,1.352-1.237.28-1.246.983-.95,1.987.274.931.5,1.746,1.765,1.3C-407.264,189.008-406.4,188.785-405.545,188.531Z" transform="translate(-26.487 -9.236)" fill="#ff45d4"/>
    <path id="Path_1803" data-name="Path 1803" d="M-475.23,167.157c-9.284,2.58-18.589,5.093-27.714,8.2-.852.291-1.805.759-2.452-.179a3.9,3.9,0,0,1-.959-3.174,1.9,1.9,0,0,1,1.547-1.374c1.329-.4,2.638-.866,3.966-1.268q20.631-6.244,41.269-12.462a104.455,104.455,0,0,1,12.354-3.02c2.378-.407,3.433.217,3.879,2.169a1.49,1.49,0,0,1-.756,1.839,15.347,15.347,0,0,1-3.534,1.662c-5.79,1.715-11.67,3.087-17.508,4.618C-468.531,165.06-471.868,166.155-475.23,167.157Z" transform="translate(-5.888 -0.616)" fill="#ff45d4"/>
    <path id="Path_1804" data-name="Path 1804" d="M-474.251,193.332q22.843-6.452,45.694-12.871c.8-.224,2.086-1.235,2.477-.056.268.81-1.331.829-2.109,1.056q-16.557,4.849-33.14,9.606c-1.151.332-2.277.891-3.554.366a1.748,1.748,0,0,0-1.163.237c-1.616.745-3.151,1.8-5.083,1.1-.134-.048-.413-.015-.465.073-1.281,2.2-4.337.567-5.685,2.629a.5.5,0,0,1-.65.106,2.1,2.1,0,0,0-.7-.2c-1.394-.162-2.421,1.282-3.5,1.2a4.076,4.076,0,0,0-3.469,1.2,3.727,3.727,0,0,1-1.731.83q-16.435,4.829-32.874,9.647c-.157.046-.312.1-.471.136-.6.145-1.273.553-1.525-.485-.241-.995.514-1.039,1.114-1.216q2.7-.8,5.408-1.563,20.713-5.89,41.427-11.777Z" transform="translate(-1.234 -8.296)" fill="#ffec00"/>
    <path id="Path_1805" data-name="Path 1805" d="M-410.081,241.19c.092,1.127-.734,1.3-1.52,1.515-2.677.731-5.358,1.444-8.029,2.2q-39.822,11.235-79.644,22.467c-.968.273-1.954.881-3.066.255C-500.216,266.44-415.015,242.037-410.081,241.19Z" transform="translate(-7.093 -26.361)" fill="#7fff00"/>
    <path id="Path_1806" data-name="Path 1806" d="M-517.131,195.957c-.622-2.085-1.327-4.084-1.806-6.135-.928-3.975.429-5.52,3.694-6.839a20.753,20.753,0,0,1,3.338-.708c.588-.128.927.057,1.059.651a.776.776,0,0,1-.676,1.057,12.235,12.235,0,0,0-3.436,1.222c-2.079,1.091-2.9,2.645-2.322,4.968a31.3,31.3,0,0,1,.835,4.8C-516.417,195.29-516.374,195.625-517.131,195.957Z" transform="translate(-2.121 -9)" fill="#7fff00"/>
    <path id="Path_1807" data-name="Path 1807" d="M-404.579,159.862c.21,1.032.435,2.061.622,3.1a.653.653,0,0,1-.393.789c-.518.148-.714-.254-.794-.667-.107-.555-.171-1.12-.238-1.683a9,9,0,0,0-2.32-4.741,4.246,4.246,0,0,0-4.436-1.228c-.872.178-2.325,1.181-2.641-.123-.192-.79,1.574-.576,2.455-.789,4.525-1.1,6.707.106,7.67,5.111.016.08.035.159.054.238Z" transform="translate(-32.874 -0.727)" fill="#7fff00"/>
    <path id="Path_1808" data-name="Path 1808" d="M-482.308,192.646q-1.045.312-2.09.624c-.533.159-.948.061-1.122-.528-.155-.519-.092-.988.489-1.17,1.386-.433,2.785-.83,4.178-1.24.727-.214,1.019.187,1.182.814.18.69-.316.815-.775.962-.615.2-1.237.373-1.857.557Z" transform="translate(-12.025 -11.367)" fill="#7fff00"/>
    <path id="Path_1809" data-name="Path 1809" d="M-454.349,203.583c.114.3.229.6.341.907.223.6-.063.885-.613,1.051-.484.147-.892.258-1.242-.3-.538-.854-.435-1.869-.784-2.771-.2-.505.011-.908.622-1.073a.781.781,0,0,1,1.091.592c.183.534.4,1.056.6,1.584Z" transform="translate(-20.528 -14.628)" fill="#7fff00"/>
    <path id="Path_1810" data-name="Path 1810" d="M-460.736,205.295c-.077.591.871,1.7-.363,2.083-1.46.449-1.283-1.027-1.6-1.839a8.4,8.4,0,0,1-.183-.948c-.157-.616-.143-1.1.634-1.275.76-.171,1.008.265,1.176.86C-460.981,204.487-460.885,204.8-460.736,205.295Z" transform="translate(-18.69 -15.197)" fill="#7fff00"/>
    <path id="Path_1811" data-name="Path 1811" d="M-450.286,201.591c.152-.646-1.151-1.515.217-1.976,1.436-.483,1.282.77,1.468,1.563.147.628.225,1.272.325,1.911.062.394.169.857-.394.943a.829.829,0,0,1-.932-.59C-449.828,202.836-450.051,202.228-450.286,201.591Z" transform="translate(-22.3 -14.086)" fill="#7fff00"/>
    <path id="Path_1812" data-name="Path 1812" d="M-469.363,189.109c-.388.116-.777.229-1.164.348-.545.167-.931.083-1.031-.574-.076-.494-.191-1,.468-1.163.94-.234,1.885-.458,2.838-.631.393-.071.823-.025.938.508a.849.849,0,0,1-.648,1.106c-.464.145-.931.279-1.4.418Z" transform="translate(-16.14 -10.421)" fill="#7fff00"/>
    <path id="Path_1813" data-name="Path 1813" d="M-441.572,199.608c.092.307.164.622.279.92.265.693.255,1.235-.606,1.487-.779.229-.986-.277-1.163-.828-.2-.61-.358-1.232-.543-1.846-.237-.784.087-1.2.847-1.4.871-.226.86.462,1.041.955.083.226.14.46.209.691Z" transform="translate(-24.366 -13.613)" fill="#7fff00"/>
    <path id="Path_1814" data-name="Path 1814" d="M-495.27,194.924a14.261,14.261,0,0,1,1.616-.466.77.77,0,0,1,.883.637.663.663,0,0,1-.466.935q-1.855.565-3.723,1.09a.577.577,0,0,1-.77-.361.713.713,0,0,1,.25-.857A8.208,8.208,0,0,1-495.27,194.924Z" transform="translate(-8.435 -12.596)" fill="#7fff00"/>
    <path id="Path_1815" data-name="Path 1815" d="M-468.075,207.466c-.162-.54-.306-.925-.387-1.322-.105-.516.268-.708.669-.842a.7.7,0,0,1,.988.413,3.3,3.3,0,0,1,.265,1.186c-.023.744.876,1.832-.154,2.165C-468.02,209.5-467.67,207.947-468.075,207.466Z" transform="translate(-17.064 -15.774)" fill="#7fff00"/>
    <path id="Path_1816" data-name="Path 1816" d="M-454.267,216.484c2.97-.885,5.933-1.794,8.913-2.647,1.729-.5,1.889-.452,2.32,1.112,1.15,4.166,2.207,8.358,3.317,12.534a1.316,1.316,0,0,1-1.02,1.852c-.393.109-.777.249-1.17.358-5.655,1.58-11.307,3.176-16.971,4.726-2.136.585-2.268.5-2.841-1.714-1.02-3.947-1.959-7.915-2.979-11.863-.256-.991-.066-1.431,1-1.719,3.149-.846,6.261-1.834,9.388-2.766Zm.651,3.056-.059-.2c-2.843.715-5.681,1.451-8.532,2.131-.914.218-1.182.612-.886,1.536.744,2.327,1.46,4.665,2.093,7.024.287,1.07.83,1.168,1.776.928,5.446-1.382,10.9-2.748,16.361-4.058,1.117-.267,1.478-.744,1.183-1.863-.56-2.125-1.063-4.266-1.551-6.41-.435-1.909-.431-1.985-2.422-1.448C-448.324,217.905-450.963,218.749-453.616,219.54Zm12.422,8.192a4.518,4.518,0,0,0-.818.018q-8.331,1.991-16.657,4c-.317.076-.632.162-.943.26s-.6.274-.508.682c.106.5.443.627.9.522.318-.073.633-.158.948-.243q8.031-2.184,16.06-4.374C-441.853,228.5-441.4,228.513-441.194,227.732Zm-2.857-12.319-.153-.524a2.367,2.367,0,0,0-.689-.02q-9.086,2.466-18.166,4.959c-.4.109-.794.248-.509,1C-457.112,218.884-450.444,217.636-444.05,215.413Z" transform="translate(-18.148 -18.224)" fill="#2b2c33"/>
    <path id="Path_1817" data-name="Path 1817" d="M-406.474,224.606c-8.709,2.624-17.994-2.227-20.306-10.9-2.285-8.571,1.779-16.958,11.8-20,8.425-2.555,16.8,2.335,19.412,10.549A16.235,16.235,0,0,1-406.474,224.606Zm9.96-19.14c-1.71-6.473-8.743-13.519-19.973-10.3-5.669,1.626-11.843,9.222-9.284,18.445,2.126,7.659,10.56,12.3,18.352,10.172C-399.236,221.548-394.351,213.34-396.514,205.466Z" transform="translate(-29.161 -12.177)" fill="#2b2c33"/>
    <path id="Path_1818" data-name="Path 1818" d="M-394.5,189.166c-.854.255-1.719.477-2.56.771-1.266.444-1.491-.372-1.765-1.3-.3-1-.286-1.707.95-1.987,1.738-.393,3.475-.818,5.174-1.352,1.295-.406,1.518.46,1.858,1.3.371.913.227,1.568-.827,1.855-.938.255-1.865.551-2.8.829Zm-.763-2.175c-1.01.235-1.637.377-2.261.528-.4.1-.813.229-.78.736.042.658.571.77,1.046.648,1.555-.4,3.093-.861,4.634-1.313a.581.581,0,0,0,.477-.7c-.109-.533-.522-.524-.924-.433C-393.936,186.653-394.792,186.874-395.267,186.991Z" transform="translate(-37.528 -9.871)" fill="#2b2c33"/>
    <path id="Path_1819" data-name="Path 1819" d="M-452.952,220.934c2.653-.791,5.291-1.635,7.962-2.356,1.991-.537,1.987-.461,2.422,1.448.488,2.143.992,4.285,1.551,6.41.295,1.118-.066,1.6-1.183,1.863-5.464,1.31-10.915,2.676-16.361,4.058-.945.24-1.489.141-1.776-.928-.633-2.359-1.349-4.7-2.093-7.024-.3-.924-.028-1.318.886-1.536,2.851-.679,5.689-1.416,8.532-2.131Zm.052,3.387c-.535.159-1.153.363-1.781.527-1.488.39-.924,1.41-.758,2.34.169.952.353,1.763,1.662,1.477,1.506-.329,3.039-.526,4.551-.831,1.621-.327,1.7-.456,1.522-2.111-.051-.484-.133-.966-.218-1.446a.792.792,0,0,0-1.055-.7C-450.254,223.817-451.529,224.061-452.9,224.321Zm-3.563,2.884a2.15,2.15,0,0,0-2.79-1.209,2.034,2.034,0,0,0-1.358,2.491,2.44,2.44,0,0,0,2.836,1.278A2.206,2.206,0,0,0-456.463,227.205Zm13.833-3.7a2.151,2.151,0,0,0-2.682-1.486,1.712,1.712,0,0,0-1.415,2.162,2.215,2.215,0,0,0,2.577,1.691A1.9,1.9,0,0,0-442.63,223.51Z" transform="translate(-18.812 -19.618)" fill="#00d7ff"/>
    <path id="Path_1820" data-name="Path 1820" d="M-439.248,233.644c-.206.781-.66.766-1.018.864q-8.028,2.195-16.06,4.374c-.315.085-.629.171-.947.243-.458.105-.8-.027-.9-.522-.087-.408.183-.578.508-.682s.626-.184.943-.26q8.326-2.005,16.657-4A4.517,4.517,0,0,1-439.248,233.644Z" transform="translate(-20.094 -24.137)" fill="#7fff00"/>
    <path id="Path_1821" data-name="Path 1821" d="M-443.576,215.95c-6.394,2.223-13.062,3.472-19.516,5.412-.286-.749.113-.888.509-1q9.08-2.489,18.166-4.959a2.367,2.367,0,0,1,.689.02Z" transform="translate(-18.622 -18.762)" fill="#7fff00"/>
    <path id="Path_1822" data-name="Path 1822" d="M-396.082,206.024c2.163,7.874-2.723,16.082-10.9,18.318-7.792,2.13-16.226-2.513-18.352-10.172-2.56-9.223,3.615-16.82,9.284-18.445C-404.825,192.5-397.792,199.551-396.082,206.024Zm-19.436-8.776c-.066.02-.545.132-1,.3a12.411,12.411,0,0,0-7.761,14.385,13.879,13.879,0,0,0,13.389,10.827,13.636,13.636,0,0,0,12.692-7.586,13.27,13.27,0,0,0-2.632-14.508A13.618,13.618,0,0,0-415.519,197.248Z" transform="translate(-29.593 -12.735)" fill="#00d7ff"/>
    <path id="Path_1823" data-name="Path 1823" d="M-394.983,187.5c.475-.116,1.331-.337,2.192-.531.4-.091.816-.1.924.433a.581.581,0,0,1-.477.7c-1.541.452-3.079.915-4.634,1.313-.475.122-1,.01-1.046-.648-.033-.507.382-.639.78-.736C-396.62,187.876-395.993,187.734-394.983,187.5Z" transform="translate(-37.811 -10.38)" fill="#7fff00"/>
    <path id="Path_1824" data-name="Path 1824" d="M-450.036,226.518c1.371-.26,2.646-.5,3.923-.741a.792.792,0,0,1,1.055.7c.085.48.167.962.218,1.446.174,1.655.1,1.784-1.522,2.111-1.512.3-3.046.5-4.551.831-1.309.286-1.493-.524-1.662-1.477-.166-.93-.729-1.949.758-2.34C-451.189,226.881-450.571,226.677-450.036,226.518Zm-1.807,1.331c.1.8-.116,1.948.888,1.967a12.336,12.336,0,0,0,4.522-.789c.811-.3.524-1.087.425-1.7-.14-.866-.773-.616-1.315-.5C-448.807,227.161-450.29,227.5-451.843,227.849Z" transform="translate(-21.676 -21.815)" fill="#2b2c33"/>
    <path id="Path_1825" data-name="Path 1825" d="M-455.7,230.367a2.206,2.206,0,0,1-1.312,2.561,2.44,2.44,0,0,1-2.836-1.278,2.034,2.034,0,0,1,1.358-2.491A2.15,2.15,0,0,1-455.7,230.367Zm-2.483-.277a.9.9,0,0,0-.368,1.257.767.767,0,0,0,1.041.32.688.688,0,0,0,.441-.959A.886.886,0,0,0-458.179,230.089Z" transform="translate(-19.579 -22.779)" fill="#2b2c33"/>
    <path id="Path_1826" data-name="Path 1826" d="M-436.051,225.043a1.9,1.9,0,0,1-1.521,2.367,2.215,2.215,0,0,1-2.577-1.691,1.712,1.712,0,0,1,1.415-2.162A2.151,2.151,0,0,1-436.051,225.043Zm-2.238-.524c-.547.144-.78.442-.689.9a.761.761,0,0,0,.89.607c.507-.037.676-.369.528-.827C-437.683,224.812-437.884,224.466-438.289,224.519Z" transform="translate(-25.391 -21.151)" fill="#2b2c33"/>
    <path id="Path_1827" data-name="Path 1827" d="M-414.958,197.858a13.618,13.618,0,0,1,14.686,3.422,13.27,13.27,0,0,1,2.632,14.508,13.636,13.636,0,0,1-12.692,7.586,13.879,13.879,0,0,1-13.389-10.827,12.411,12.411,0,0,1,7.761-14.385C-415.5,197.99-415.024,197.878-414.958,197.858Zm16.918,9.548c-2.06-6.476-8.583-10.854-16.846-8.849-4.567,1.108-7.845,5.88-8.064,10.652-.422,9.177,10.166,15.952,18.547,11.867A11.7,11.7,0,0,0-398.04,207.406Z" transform="translate(-30.153 -13.345)" fill="#2b2c33"/>
    <path id="Path_1828" data-name="Path 1828" d="M-451.436,228.248c1.553-.35,3.036-.688,4.521-1.016.542-.12,1.175-.37,1.315.5.1.61.385,1.393-.425,1.7a12.337,12.337,0,0,1-4.522.789C-451.552,230.2-451.336,229.047-451.436,228.248Z" transform="translate(-22.083 -22.213)" fill="#7fff00"/>
    <path id="Path_1829" data-name="Path 1829" d="M-457.652,230.522a.886.886,0,0,1,1.114.617.688.688,0,0,1-.441.959.767.767,0,0,1-1.041-.32A.9.9,0,0,1-457.652,230.522Z" transform="translate(-20.106 -23.211)" fill="#7fff00"/>
    <path id="Path_1830" data-name="Path 1830" d="M-437.786,224.943c.4-.053.606.293.73.677.147.458-.022.79-.528.827a.761.761,0,0,1-.89-.607C-438.566,225.385-438.332,225.087-437.786,224.943Z" transform="translate(-25.894 -21.575)" fill="#7fff00"/>
    <path id="Path_1831" data-name="Path 1831" d="M-397.594,207.855a11.7,11.7,0,0,1-6.364,13.669c-8.381,4.085-18.969-2.689-18.547-11.867.219-4.772,3.5-9.544,8.064-10.652C-406.177,197-399.654,201.379-397.594,207.855Zm-10.232-6.974.046.026c-2.23-.432-2.206.471-1.848,1.95a110.03,110.03,0,0,0,3.866,13.627,4.95,4.95,0,0,0,.725,1.254,1.321,1.321,0,0,0,1.546.411,1.185,1.185,0,0,0,.743-1.388,9.775,9.775,0,0,0-.372-1.662c-.5-1.973-1.172-3.921-1.477-5.924a44.357,44.357,0,0,0-2-7.036C-406.8,201.531-406.941,200.836-407.826,200.881Zm-3.978,10.457c.815,2.734,1.558,5.492,2.471,8.194.61,1.8,1.53,2.422,2.522,2.053s1.213-1.268.64-3.183c-1.659-5.545-3.24-11.116-5.325-16.522-.371-.962-.313-2.687-1.955-2.226-1.446.406-.943,1.882-.775,2.972C-413.763,205.619-412.6,208.43-411.8,211.338Zm-2.4-4.941c-.342-.951-.625-1.714-.891-2.482a1.64,1.64,0,0,0-2.106-1.173c-.921.273-.962,1.192-.78,2.056a97.032,97.032,0,0,0,3.138,12.543,11.3,11.3,0,0,0,.9,2c.366.617.827,1.383,1.673,1.158.925-.246,1.068-1.122,1.027-1.975a4.384,4.384,0,0,0-.174-.959C-412.461,213.806-413.768,210.113-414.2,206.4Zm10.622,3.62.091-.022c.348,1.168.626,2.363,1.072,3.492a1.257,1.257,0,0,0,1.574.823,1.255,1.255,0,0,0,.837-1.342,4,4,0,0,0,.018-.97c-.593-2.7-1.225-5.39-1.813-8.091a3.326,3.326,0,0,0-1.418-1.86c-.816-.643-1.571-.265-1.68.806a5.712,5.712,0,0,0,.133,1.685C-404.393,206.369-403.979,208.191-403.581,210.017Zm-13.922.728c-.2-.537-.535-1.456-.889-2.367a1.135,1.135,0,0,0-1.079-.84,1.239,1.239,0,0,0-1.212,1.029,3.875,3.875,0,0,0-.144,1.448,31.539,31.539,0,0,0,1.726,5.854,1.26,1.26,0,0,0,1.271.962c.822-.06.979-.725,1.1-1.388C-416.458,213.931-417.007,212.547-417.5,210.745Z" transform="translate(-30.599 -13.794)" fill="#ffec00"/>
    <path id="Path_1832" data-name="Path 1832" d="M-408.436,211.781c-.794-2.907-1.959-5.719-2.421-8.713-.168-1.09-.672-2.565.775-2.972,1.642-.461,1.584,1.264,1.955,2.226,2.084,5.406,3.665,10.978,5.325,16.522.573,1.915.358,2.812-.64,3.183s-1.913-.248-2.522-2.053C-406.877,217.273-407.621,214.515-408.436,211.781Zm4.668,8.88a9.707,9.707,0,0,0-.824-4.132c-1.63-4.338-2.656-8.858-4.041-13.27-.261-.833-.059-2.426-1.326-2.1-.906.236-.137,1.6.095,2.386,1.422,4.829,2.919,9.635,4.388,14.45A5.272,5.272,0,0,0-403.768,220.66Z" transform="translate(-33.967 -14.237)" fill="#2b2c33"/>
    <path id="Path_1833" data-name="Path 1833" d="M-412.345,208.128c.435,3.716,1.742,7.409,2.787,11.169a4.387,4.387,0,0,1,.174.959c.041.853-.1,1.729-1.027,1.975-.846.224-1.307-.542-1.673-1.158a11.306,11.306,0,0,1-.9-2,97.025,97.025,0,0,1-3.138-12.543c-.183-.864-.142-1.783.78-2.056a1.64,1.64,0,0,1,2.106,1.173C-412.971,206.414-412.688,207.177-412.345,208.128Zm1.746,12.421c-1.1-4.267-2.042-8.552-2.991-12.835a10.544,10.544,0,0,0-.525-1.626c-.181-.453-.425-.892-1.312-.521C-413.939,210.582-413.426,215.913-410.6,220.549Z" transform="translate(-32.457 -15.525)" fill="#2b2c33"/>
    <path id="Path_1834" data-name="Path 1834" d="M-402.521,201.834c.885-.045,1.029.65,1.228,1.259a44.357,44.357,0,0,1,2,7.036c.306,2,.975,3.95,1.477,5.923a9.778,9.778,0,0,1,.372,1.662,1.185,1.185,0,0,1-.743,1.388,1.321,1.321,0,0,1-1.546-.411,4.952,4.952,0,0,1-.725-1.254,110.03,110.03,0,0,1-3.866-13.627c-.358-1.479-.382-2.383,1.848-1.95a1.644,1.644,0,0,0-1.015,2.262c1.251,4.043,2.035,8.228,3.718,12.138.265.615.246,1.491,1.356,1.647-1.276-5.19-2.11-10.4-4.186-15.273C-402.755,202.276-402.79,202.078-402.521,201.834Z" transform="translate(-35.904 -14.747)" fill="#2b2c33"/>
    <path id="Path_1835" data-name="Path 1835" d="M-396.235,211.36c-.4-1.826-.813-3.648-1.185-5.48a5.71,5.71,0,0,1-.133-1.685c.109-1.071.864-1.448,1.68-.806a3.326,3.326,0,0,1,1.418,1.86c.588,2.7,1.221,5.392,1.813,8.091a4,4,0,0,1-.018.97c-.021.609-.195,1.151-.837,1.342a1.257,1.257,0,0,1-1.574-.823c-.447-1.129-.725-2.324-1.072-3.492Zm2.124,2.876c.157-.086.291-.128.289-.164a44.45,44.45,0,0,0-1.9-9.424.661.661,0,0,0-.725-.519c-.5.109-.482.614-.38.967C-395.939,208.143-395.022,211.179-394.111,214.236Z" transform="translate(-37.945 -15.137)" fill="#2b2c33"/>
    <path id="Path_1836" data-name="Path 1836" d="M-416.807,214.511c.5,1.8,1.045,3.186.772,4.7-.12.662-.277,1.328-1.1,1.388a1.26,1.26,0,0,1-1.271-.962,31.542,31.542,0,0,1-1.726-5.854,3.876,3.876,0,0,1,.144-1.448,1.239,1.239,0,0,1,1.212-1.029,1.135,1.135,0,0,1,1.079.84C-417.342,213.055-417.008,213.975-416.807,214.511Zm-2.184-1.935a9.393,9.393,0,0,0,1.648,5.583A9.366,9.366,0,0,0-418.991,212.576Z" transform="translate(-31.295 -17.56)" fill="#2b2c33"/>
    <path id="Path_1837" data-name="Path 1837" d="M-403.48,221.119a5.273,5.273,0,0,1-1.708-2.661c-1.469-4.815-2.966-9.621-4.388-14.45-.231-.787-1-2.15-.095-2.386,1.268-.33,1.065,1.262,1.326,2.1,1.384,4.412,2.411,8.932,4.041,13.27A9.707,9.707,0,0,1-403.48,221.119Z" transform="translate(-34.255 -14.696)" fill="#006ac7"/>
    <path id="Path_1838" data-name="Path 1838" d="M-410.273,220.981c-2.826-4.636-3.339-9.968-4.827-14.982.886-.37,1.131.068,1.312.521a10.544,10.544,0,0,1,.525,1.626C-412.315,212.43-411.373,216.714-410.273,220.981Z" transform="translate(-32.783 -15.957)" fill="#006ac7"/>
    <path id="Path_1839" data-name="Path 1839" d="M-402.154,201.868c-.268.245-.234.442-.081.8,2.076,4.874,2.91,10.083,4.186,15.273-1.11-.156-1.091-1.031-1.356-1.647-1.683-3.91-2.467-8.1-3.718-12.138a1.644,1.644,0,0,1,1.015-2.262Z" transform="translate(-36.271 -14.782)" fill="#006ac7"/>
    <path id="Path_1840" data-name="Path 1840" d="M-393.822,214.671c-.911-3.057-1.828-6.093-2.711-9.139-.1-.353-.123-.857.38-.967a.661.661,0,0,1,.725.519,44.442,44.442,0,0,1,1.895,9.424C-393.531,214.543-393.665,214.585-393.822,214.671Z" transform="translate(-38.234 -15.573)" fill="#006ac7"/>
    <path id="Path_1841" data-name="Path 1841" d="M-418.507,213.107a9.366,9.366,0,0,1,1.648,5.583A9.392,9.392,0,0,1-418.507,213.107Z" transform="translate(-31.779 -18.091)" fill="#006ac7"/>
    <path id="Path_1842" data-name="Path 1842" d="M-492.471,247.434c-8.71,2.624-17.994-2.227-20.307-10.9-2.285-8.571,1.779-16.958,11.8-20,8.424-2.555,16.8,2.335,19.412,10.55A16.235,16.235,0,0,1-492.471,247.434Zm9.96-19.14c-1.71-6.473-8.743-13.519-19.972-10.3-5.668,1.625-11.844,9.222-9.284,18.445,2.126,7.659,10.56,12.3,18.352,10.172C-485.233,244.376-480.348,236.168-482.511,228.294Z" transform="translate(-3.837 -18.9)" fill="#2b2c33"/>
    <path id="Path_1843" data-name="Path 1843" d="M-482.079,228.852c2.163,7.874-2.723,16.082-10.9,18.318-7.792,2.13-16.226-2.513-18.352-10.172-2.56-9.223,3.616-16.82,9.284-18.445C-490.822,215.333-483.789,222.379-482.079,228.852Zm-19.436-8.776c-.066.02-.545.132-1,.3a12.411,12.411,0,0,0-7.761,14.385,13.879,13.879,0,0,0,13.389,10.827,13.636,13.636,0,0,0,12.692-7.586,13.271,13.271,0,0,0-2.631-14.508A13.62,13.62,0,0,0-501.516,220.076Z" transform="translate(-4.268 -19.458)" fill="#00d7ff"/>
    <path id="Path_1844" data-name="Path 1844" d="M-500.955,220.686a13.62,13.62,0,0,1,14.687,3.422,13.271,13.271,0,0,1,2.631,14.508A13.636,13.636,0,0,1-496.33,246.2a13.879,13.879,0,0,1-13.389-10.827,12.412,12.412,0,0,1,7.761-14.385C-501.5,220.818-501.021,220.706-500.955,220.686Zm16.918,9.548c-2.06-6.476-8.583-10.854-16.846-8.849-4.567,1.108-7.845,5.879-8.064,10.651-.421,9.177,10.167,15.952,18.547,11.867A11.7,11.7,0,0,0-484.037,230.234Z" transform="translate(-4.829 -20.068)" fill="#2b2c33"/>
    <path id="Path_1845" data-name="Path 1845" d="M-483.591,230.683a11.7,11.7,0,0,1-6.364,13.669c-8.38,4.085-18.968-2.689-18.547-11.867.219-4.772,3.5-9.544,8.064-10.651C-492.174,219.829-485.651,224.207-483.591,230.683Zm-10.232-6.974.046.026c-2.229-.432-2.206.471-1.848,1.951a110.193,110.193,0,0,0,3.866,13.626,4.941,4.941,0,0,0,.725,1.254,1.322,1.322,0,0,0,1.547.411,1.186,1.186,0,0,0,.743-1.387,9.853,9.853,0,0,0-.373-1.663c-.5-1.973-1.172-3.92-1.477-5.923a44.427,44.427,0,0,0-2-7.037C-492.793,224.359-492.938,223.664-493.823,223.709Zm-3.978,10.457c.815,2.734,1.558,5.492,2.471,8.194.61,1.805,1.53,2.422,2.522,2.053s1.213-1.268.64-3.183c-1.659-5.545-3.24-11.116-5.325-16.522-.37-.962-.312-2.687-1.955-2.226-1.446.406-.943,1.882-.775,2.972C-499.76,228.448-498.594,231.259-497.8,234.166Zm-2.4-4.941c-.342-.951-.625-1.714-.891-2.482a1.639,1.639,0,0,0-2.106-1.173c-.921.272-.962,1.191-.78,2.055a97.032,97.032,0,0,0,3.138,12.543,11.3,11.3,0,0,0,.9,2c.367.617.828,1.383,1.674,1.158.925-.246,1.067-1.122,1.027-1.975a4.427,4.427,0,0,0-.174-.959C-498.458,236.635-499.765,232.942-500.2,229.225Zm10.622,3.62.091-.022c.348,1.168.627,2.363,1.072,3.492a1.257,1.257,0,0,0,1.574.823A1.254,1.254,0,0,0-486,235.8a4.045,4.045,0,0,0,.019-.971c-.593-2.7-1.226-5.39-1.813-8.091a3.332,3.332,0,0,0-1.419-1.86c-.816-.643-1.571-.265-1.68.806a5.69,5.69,0,0,0,.134,1.685C-490.39,229.2-489.976,231.019-489.578,232.845Zm-13.922.728c-.2-.537-.535-1.456-.889-2.367a1.135,1.135,0,0,0-1.079-.84,1.24,1.24,0,0,0-1.212,1.029,3.893,3.893,0,0,0-.144,1.448A31.542,31.542,0,0,0-505.1,238.7a1.261,1.261,0,0,0,1.271.963c.822-.061.979-.726,1.1-1.388C-502.455,236.759-503,235.375-503.5,233.573Z" transform="translate(-5.275 -20.517)" fill="#ffec00"/>
    <path id="Path_1846" data-name="Path 1846" d="M-494.432,234.609c-.794-2.907-1.959-5.718-2.421-8.713-.168-1.09-.672-2.565.775-2.972,1.643-.461,1.585,1.264,1.955,2.226,2.084,5.406,3.665,10.978,5.325,16.523.574,1.915.358,2.812-.64,3.183s-1.913-.248-2.522-2.053C-492.874,240.1-493.618,237.343-494.432,234.609Zm4.668,8.88a9.72,9.72,0,0,0-.825-4.132c-1.63-4.338-2.656-8.858-4.04-13.27-.261-.833-.059-2.426-1.326-2.095-.906.236-.137,1.6.095,2.385,1.423,4.829,2.919,9.635,4.388,14.45A5.27,5.27,0,0,0-489.764,243.488Z" transform="translate(-8.643 -20.959)" fill="#2b2c33"/>
    <path id="Path_1847" data-name="Path 1847" d="M-498.342,230.956c.435,3.717,1.742,7.409,2.787,11.169a4.427,4.427,0,0,1,.174.959c.04.853-.1,1.729-1.027,1.975-.846.224-1.307-.542-1.673-1.158a11.3,11.3,0,0,1-.9-2,97.023,97.023,0,0,1-3.138-12.543c-.183-.864-.142-1.783.78-2.055a1.639,1.639,0,0,1,2.106,1.173C-498.968,229.242-498.685,230-498.342,230.956Zm1.747,12.422c-1.1-4.268-2.042-8.552-2.991-12.836a10.583,10.583,0,0,0-.526-1.625c-.181-.454-.425-.892-1.312-.522C-499.936,233.41-499.422,238.741-496.6,243.378Z" transform="translate(-7.132 -22.247)" fill="#2b2c33"/>
    <path id="Path_1848" data-name="Path 1848" d="M-488.518,224.662c.885-.045,1.029.65,1.228,1.259a44.433,44.433,0,0,1,2,7.037c.3,2,.974,3.949,1.477,5.923a9.853,9.853,0,0,1,.372,1.663,1.186,1.186,0,0,1-.743,1.387,1.322,1.322,0,0,1-1.547-.411,4.939,4.939,0,0,1-.725-1.254,110.181,110.181,0,0,1-3.866-13.626c-.358-1.48-.382-2.383,1.848-1.951a1.644,1.644,0,0,0-1.015,2.262c1.251,4.043,2.035,8.228,3.718,12.138.265.615.246,1.491,1.356,1.647-1.276-5.19-2.109-10.4-4.186-15.273C-488.752,225.1-488.786,224.906-488.518,224.662Z" transform="translate(-10.579 -21.47)" fill="#2b2c33"/>
    <path id="Path_1849" data-name="Path 1849" d="M-482.232,234.188c-.4-1.826-.812-3.648-1.184-5.479a5.694,5.694,0,0,1-.134-1.685c.109-1.07.864-1.448,1.68-.806a3.333,3.333,0,0,1,1.419,1.86c.587,2.7,1.22,5.392,1.813,8.091a4.048,4.048,0,0,1-.019.971,1.254,1.254,0,0,1-.838,1.341,1.257,1.257,0,0,1-1.574-.823c-.446-1.129-.725-2.324-1.072-3.492Zm2.124,2.876c.157-.086.291-.127.29-.164a44.5,44.5,0,0,0-1.9-9.424.662.662,0,0,0-.726-.519c-.5.11-.481.614-.38.967C-481.936,230.971-481.019,234.007-480.108,237.064Z" transform="translate(-12.621 -21.859)" fill="#2b2c33"/>
    <path id="Path_1850" data-name="Path 1850" d="M-502.8,237.339c.5,1.8,1.045,3.186.772,4.7-.119.662-.277,1.328-1.1,1.388a1.261,1.261,0,0,1-1.271-.963,31.546,31.546,0,0,1-1.726-5.854,3.891,3.891,0,0,1,.144-1.448,1.24,1.24,0,0,1,1.212-1.029,1.135,1.135,0,0,1,1.079.84C-503.339,235.883-503,236.8-502.8,237.339Zm-2.184-1.935a9.393,9.393,0,0,0,1.648,5.583A9.361,9.361,0,0,0-504.988,235.4Z" transform="translate(-5.97 -24.283)" fill="#2b2c33"/>
    <path id="Path_1851" data-name="Path 1851" d="M-489.476,243.948a5.27,5.27,0,0,1-1.709-2.661c-1.469-4.814-2.965-9.621-4.388-14.45-.231-.787-1-2.149-.095-2.385,1.268-.331,1.065,1.261,1.326,2.095,1.384,4.412,2.411,8.932,4.041,13.27A9.72,9.72,0,0,1-489.476,243.948Z" transform="translate(-8.931 -21.419)" fill="#006ac7"/>
    <path id="Path_1852" data-name="Path 1852" d="M-496.269,243.81c-2.826-4.637-3.34-9.968-4.828-14.983.886-.37,1.131.068,1.312.522a10.59,10.59,0,0,1,.526,1.625C-498.312,235.258-497.371,239.542-496.269,243.81Z" transform="translate(-7.459 -22.68)" fill="#006ac7"/>
    <path id="Path_1853" data-name="Path 1853" d="M-488.151,224.7c-.268.245-.233.442-.081.8,2.076,4.874,2.91,10.083,4.186,15.273-1.11-.156-1.091-1.031-1.356-1.647-1.683-3.91-2.467-8.1-3.718-12.138a1.644,1.644,0,0,1,1.015-2.262Z" transform="translate(-10.947 -21.504)" fill="#006ac7"/>
    <path id="Path_1854" data-name="Path 1854" d="M-479.819,237.5c-.912-3.056-1.828-6.093-2.711-9.139-.1-.353-.123-.857.38-.967a.662.662,0,0,1,.726.519,44.5,44.5,0,0,1,1.895,9.424C-479.527,237.372-479.662,237.413-479.819,237.5Z" transform="translate(-12.909 -22.295)" fill="#006ac7"/>
    <path id="Path_1855" data-name="Path 1855" d="M-504.5,235.935a9.361,9.361,0,0,1,1.648,5.583A9.393,9.393,0,0,1-504.5,235.935Z" transform="translate(-6.454 -24.814)" fill="#006ac7"/>
  </g>
</svg>
