<svg xmlns="http://www.w3.org/2000/svg" width="83.742" height="91.739" viewBox="0 0 83.742 91.739">
  <g id="three" transform="translate(-1145.5 503.594)">
    <path id="Path_1703" data-name="Path 1703" d="M1194.425-494.068c-.088,1,.037,2.192-.756,3.171-.371.457-.08.792.219,1.113a2.789,2.789,0,0,0,.488.426,26.978,26.978,0,0,1,6.645,7.011c1.585,2.17,2.414,4.724,3.432,7.178,1.26,3.039,2.182,6.213,4.055,9a22.269,22.269,0,0,1,2.431,4.81,45.376,45.376,0,0,0,3.6,6.836,5.034,5.034,0,0,0,.775,1.291,14.921,14.921,0,0,1,3.873,6.392c.988,2.846,2.371,5.53,3.26,8.42a25.183,25.183,0,0,0,2.422,5.749c1.547,2.525,1.961,5.4,2.927,8.089a35.813,35.813,0,0,1,1.18,4.593c.572,2.677.329,5.1-1.97,7.077a3.529,3.529,0,0,1-4.156.659,4.094,4.094,0,0,1-1.991-1.245c-.889-1.452-2.287-2.054-3.731-2.73a15.668,15.668,0,0,1-2.819-1.983,5.683,5.683,0,0,0-6.611-.721,2.763,2.763,0,0,1-3.942-.93,13.061,13.061,0,0,1-1.892-4.1c-.985-3.395-2.308-4.517-5.736-4.721a6.671,6.671,0,0,1-5.665-3.026,5.361,5.361,0,0,0-1.877-1.762,1.7,1.7,0,0,0-2.585.441,4.56,4.56,0,0,1-1.868,1.418,2.508,2.508,0,0,1-3.073-.862c-.954-1.438-2.1-2.871-2.335-4.591-.349-2.56-2.208-3.137-4.175-3.7a5.927,5.927,0,0,0-1.289-.135,5.721,5.721,0,0,1-5.083-3.473,5.925,5.925,0,0,0-.664-1.108c-.639-.8-1.358-1.287-2.4-.571a3.652,3.652,0,0,1-2.921.39c-2.2-.446-3.038-1.4-3.247-3.668-.224-2.426-.373-2.56-2.868-2.758-1.293-.1-2.586-.214-3.873-.364a5.035,5.035,0,0,1-4.2-2.953,7.157,7.157,0,0,0-.668-1.111c-2.824-3.862-2.05-7.727.008-11.574.61-1.141,1.348-2.213,2-3.33a4.773,4.773,0,0,1,1.6-1.726,7.42,7.42,0,0,0,1.89-1.759,10.009,10.009,0,0,1,3.449-2.9,1.831,1.831,0,0,0,.551-.338c2.324-2.456,5.41-4.046,7.578-6.677a2.734,2.734,0,0,1,.585-.633c2.617-1.615,4.28-4.248,6.614-6.177,1.6-1.324,2.859-3.035,4.331-4.52,1.831-1.848,3.768-3.567,5.717-5.276a8.68,8.68,0,0,1,4.659-2.095,4.911,4.911,0,0,1,5.208,2.287c.7,1.093,1.417,2.171,2.083,3.282A7.135,7.135,0,0,1,1194.425-494.068Zm-5.764,8.3c-1.627,1.273-3.6,2.133-4.722,4.006a24.778,24.778,0,0,0-2.621,4.709c-.776,2.373-2.4,3.843-4.247,5.256a20.388,20.388,0,0,1-3.657,1.839,4.975,4.975,0,0,0-1.941,1.319,20.458,20.458,0,0,0-2.784,3.839,7.081,7.081,0,0,1-4.386,3.854,3.732,3.732,0,0,0-1.929,1.626c-1.915,3.1-2.056,6.518-1.837,9.983.1,1.63.7,2.064,2.345,2.215a3.144,3.144,0,0,0,1.842-.472,2.887,2.887,0,0,1,3.556.632,7.376,7.376,0,0,1,1.488,2.11,4.089,4.089,0,0,0,3.662,2.283,5.318,5.318,0,0,1,1.077.086c2.729.7,5.315,1.522,5.757,4.953a8.19,8.19,0,0,0,1.6,3.277c1.057,1.609,1.612,1.635,2.872.094a3.066,3.066,0,0,1,4.34-.873,7.814,7.814,0,0,1,2.685,2.473,4.773,4.773,0,0,0,4.2,2.225,12.305,12.305,0,0,1,1.3.085,6.731,6.731,0,0,1,5.873,5.182,12.6,12.6,0,0,0,1.429,3.826c.847,1.436,1.273,1.517,2.771.84a7.25,7.25,0,0,1,7.9.938,12.615,12.615,0,0,0,2.64,1.86c1.622.669,3.127,1.324,4.12,2.914a3.481,3.481,0,0,0,2.269,1.148,1.538,1.538,0,0,0,1.581-.4,4.844,4.844,0,0,0,1.683-3.585c.006-1.931-.833-3.644-1.121-5.488-.081-.517-.482-.534-.967-.582-4.689-.467-9.354-5.832-9.143-10.488.108-2.38,1.605-3.8,3.724-3.46.255.041.559.235.916-.336-1.413-3.954-3.148-7.949-4.844-11.93-.665.028-.962.495-1.369.772a6.736,6.736,0,0,1-4.515,1.161c-6.42-.582-12.208-7.412-11.781-13.869a6.589,6.589,0,0,1,5.43-6.393c1.447-.337,1.544-.413.888-1.851a33.261,33.261,0,0,1-2.217-5.845,3.356,3.356,0,0,0-.941-1.728c-1.869,1.807-4.03,1.8-6.175.693a11.868,11.868,0,0,1-6.1-7.247A3.33,3.33,0,0,0,1188.661-485.765Zm-31.808,17.935a6.516,6.516,0,0,1,3.385,2.269,6.033,6.033,0,0,1,1.283,5.44,20.086,20.086,0,0,1,3.786-2.572,3.93,3.93,0,0,0,1.558-1.444,14.859,14.859,0,0,1,8.094-7.622,9.4,9.4,0,0,0,5.233-5.149c1.619-3.609,3.571-7.076,7.076-9.337,1.265-.816,2.371-1.874,3.591-2.764a3.332,3.332,0,0,0,1.342-1.9c.612-2.567.983-5.128-.955-7.393a11.279,11.279,0,0,1-.875-1.487,3.925,3.925,0,0,0-5.334-1.8,8.539,8.539,0,0,0-2.583,1.531c-3.148,2.758-6.066,5.734-8.926,8.789a43.744,43.744,0,0,1-5.208,5.147c-2.644,2-4.358,5.049-7.542,6.258.191.686.886.749.914,1.339-.616.045-1.247-.727-1.8-.131-1.357,1.453-3.379,2.013-4.7,3.413-2.153,2.275-4.671,4.176-6.24,7.061-2.091,3.844-3.225,7.465-.625,11.552a5.112,5.112,0,0,0,4.256,2.78,25.047,25.047,0,0,1,6.791.8,6.407,6.407,0,0,1,1.263-4.9c.885-1.025,1.272-2,.5-3.246-.174-.281-.094-.709-.178-1.058a6.969,6.969,0,0,0-2.937-4.378C1157.618-466.9,1157.052-466.985,1156.853-467.83Zm57.941,16.965c-1.6-3.19-3.789-5.859-5.053-9.121a26.958,26.958,0,0,0-3.328-6.261,2.052,2.052,0,0,0-2.388-.883,5.577,5.577,0,0,0-4.339,5.259c-.388,5.532,4.476,11.575,9.983,12.34A6.1,6.1,0,0,0,1214.794-450.864Zm-22.008-38.209c-.863.737-1.719,1.5-2.606,2.216a1.1,1.1,0,0,0-.444,1.44,11.713,11.713,0,0,0,6.254,7.044,4.5,4.5,0,0,0,2.727.41c1.86-.349,2.432-1.735,1.342-3.269C1198.02-484.1,1195.976-486.964,1192.786-489.073Zm32.857,63.749c-.489-3.638-2.508-6.665-3.726-9.99a1.333,1.333,0,0,0-1.125-.843c-2.184-.49-3.368.516-3.015,2.779a10.553,10.553,0,0,0,5.052,7.4A3.194,3.194,0,0,0,1225.643-425.324Z" fill="#2b2c33"/>
    <path id="Path_1704" data-name="Path 1704" d="M1202.878-468.818a3.326,3.326,0,0,1,.65,1.647,11.868,11.868,0,0,0,6.1,7.247c2.145,1.111,4.307,1.114,6.175-.693a3.357,3.357,0,0,1,.941,1.728,33.26,33.26,0,0,0,2.217,5.845c.656,1.439.559,1.514-.888,1.851a6.589,6.589,0,0,0-5.43,6.393c-.428,6.457,5.361,13.288,11.781,13.869a6.736,6.736,0,0,0,4.515-1.161c.407-.277.7-.744,1.369-.772,1.7,3.981,3.432,7.976,4.844,11.93-.356.571-.661.376-.916.336-2.119-.336-3.617,1.079-3.724,3.46-.211,4.656,4.454,10.021,9.143,10.488.485.048.886.066.968.582.289,1.844,1.127,3.557,1.121,5.488a4.844,4.844,0,0,1-1.683,3.585,1.538,1.538,0,0,1-1.581.4,3.481,3.481,0,0,1-2.269-1.148c-.994-1.59-2.5-2.246-4.121-2.914a12.62,12.62,0,0,1-2.64-1.86,7.25,7.25,0,0,0-7.9-.938c-1.5.677-1.925.6-2.771-.84a12.6,12.6,0,0,1-1.429-3.826,6.73,6.73,0,0,0-5.873-5.182,12.326,12.326,0,0,0-1.3-.085,4.772,4.772,0,0,1-4.2-2.225,7.813,7.813,0,0,0-2.685-2.473,3.066,3.066,0,0,0-4.341.873c-1.26,1.541-1.815,1.514-2.872-.094a8.185,8.185,0,0,1-1.6-3.277c-.443-3.431-3.028-4.254-5.757-4.953a5.317,5.317,0,0,0-1.077-.086,4.089,4.089,0,0,1-3.662-2.283,7.38,7.38,0,0,0-1.488-2.11,2.888,2.888,0,0,0-3.556-.632,3.142,3.142,0,0,1-1.841.472c-1.641-.151-2.243-.584-2.346-2.215-.218-3.465-.077-6.882,1.838-9.983A3.732,3.732,0,0,1,1178.52-444a7.082,7.082,0,0,0,4.386-3.854,20.446,20.446,0,0,1,2.784-3.839,4.974,4.974,0,0,1,1.94-1.319,20.384,20.384,0,0,0,3.657-1.839c1.848-1.412,3.471-2.883,4.247-5.256a24.767,24.767,0,0,1,2.621-4.709C1199.277-466.685,1201.251-467.545,1202.878-468.818Zm-6.211,35.921a7,7,0,0,0,7.407-7.249,10.83,10.83,0,0,0-10.458-10.547c-2.742.011-5.531,1.713-6.389,3.818C1184.229-439.527,1190.821-432.778,1196.667-432.9Zm10.777,6.913c-1.944.105-3.988.641-5.151,2.831a1.391,1.391,0,0,0,.429,2.053,11.988,11.988,0,0,0,4.369,2.288c3.092.635,5.495,2.517,7.777,4.45a21.247,21.247,0,0,0,4.812,2.8c.848.406,1.354.1,1.652-.75a6.449,6.449,0,0,0-.305-4.64C1219.145-421.749,1212.937-425.966,1207.444-425.984Zm-27.761-10.457a3.255,3.255,0,0,0,1.667,2.935,76.431,76.431,0,0,1,7.275,5.293,1.3,1.3,0,0,0,1.51.367,12.689,12.689,0,0,0-3.839-3.922C1184.169-433.188,1181.766-434.219,1179.684-436.441Zm43.729,27.139-.248.42a3.371,3.371,0,0,0,.456.416c2.354,1.473,4.695,2.966,7.078,4.389a3.522,3.522,0,0,0,3.839.152C1230.778-406.137,1226.9-407.292,1223.413-409.3Zm-16.418-44.032c-.842-.341-1.189.064-1.247.852a2.5,2.5,0,0,0,2,2.617,1.546,1.546,0,0,0,1.556-1.426C1209.387-452.53,1208.532-453.287,1206.995-453.335Zm4.2,21.03c.048-.991-.833-2.282-1.6-2.225a1.551,1.551,0,0,0-1.409,1.358,1.977,1.977,0,0,0,1.771,2.013C1210.787-431.105,1211.083-431.6,1211.2-432.3Zm15.435,8.052a1.7,1.7,0,0,0-1.521-1.781c-.709-.03-1.584.635-1.533,1.164.084.879,1.25,2.077,1.988,2.007C1226.4-422.941,1226.572-423.564,1226.634-424.252Zm-32.919-.959c.475,1.539,1.7,2.077,2.979,2.518.347.119.732.11.882-.335.117-.351-.169-.543-.41-.64C1196.006-424.136,1194.9-424.725,1193.716-425.212Zm4.855-34.435c-.528,1.315-.437,1.929.36,2.319a1,1,0,0,0,1.194-.139,1,1,0,0,0,.386-1.147c-.3-.707-.622-.071-.967.027C1198.577-458.312,1199.146-459.515,1198.571-459.647Zm41.359,59.357a.44.44,0,0,0-.354-.533,7.322,7.322,0,0,0-1.277-.135c-.493-.006-1.225-.757-1.424.135-.176.786.769.877,1.318,1.106a1.345,1.345,0,0,0,1.423-.145A1.855,1.855,0,0,0,1239.93-400.29Zm-12.774-10.647a.961.961,0,0,0,.948-.983c.006-.591-.345-.743-.841-.453-.454.265-.631-.014-.814-.344a.373.373,0,0,0-.53-.154c-.259.108-.237.346-.2.544A1.607,1.607,0,0,0,1227.156-410.937Zm2.948-15.127c-.447,1.2-.217,1.857.719,2.131a.693.693,0,0,0,.568-.145c.275-.26.173-.55-.177-.609C1230.46-424.813,1230.518-425.609,1230.1-426.064Zm-30.661-2.95c-.11,1.73.036,1.858,1.467,1.309Z" transform="translate(-14.217 -16.947)" fill="#ffec00"/>
    <path id="Path_1705" data-name="Path 1705" d="M1158.1-466.314c.2.844.765.931,1.158,1.192a6.968,6.968,0,0,1,2.937,4.378c.084.349,0,.777.178,1.058.776,1.25.389,2.221-.5,3.246a6.407,6.407,0,0,0-1.263,4.9,25.048,25.048,0,0,0-6.791-.8,5.112,5.112,0,0,1-4.256-2.78c-2.6-4.087-1.466-7.708.625-11.552,1.57-2.885,4.088-4.786,6.24-7.061,1.324-1.4,3.346-1.96,4.7-3.413.556-.6,1.187.176,1.8.131-.028-.591-.723-.654-.914-1.339,3.184-1.209,4.9-4.255,7.542-6.258a43.744,43.744,0,0,0,5.208-5.147c2.86-3.056,5.777-6.031,8.926-8.789a8.541,8.541,0,0,1,2.583-1.531,3.925,3.925,0,0,1,5.334,1.8,11.265,11.265,0,0,0,.875,1.487c1.938,2.265,1.567,4.826.955,7.393a3.332,3.332,0,0,1-1.342,1.9c-1.221.89-2.326,1.948-3.591,2.764-3.5,2.261-5.457,5.728-7.076,9.337a9.4,9.4,0,0,1-5.233,5.149,14.859,14.859,0,0,0-8.094,7.622,3.931,3.931,0,0,1-1.558,1.444,20.084,20.084,0,0,0-3.786,2.572,6.033,6.033,0,0,0-1.283-5.44A6.516,6.516,0,0,0,1158.1-466.314Zm-5.405,9.721c-.458-1.233-1.187-2.311-1.247-3.631a2.007,2.007,0,0,1,2.75-2.245,5.616,5.616,0,0,1,3.595,2.88c.9,1.664.814,2.286-.508,3.819-.243.282-.548.526-.277.9.319.437.731.308,1.141.078a3.377,3.377,0,0,0,1.491-3.926,6.807,6.807,0,0,0-4.891-4.983,3.55,3.55,0,0,0-3.779.878,3.487,3.487,0,0,0-.652,3.639A3.431,3.431,0,0,0,1152.695-456.593Zm21.55-13.86c1.186-2.5,1.071-3.31-.793-4.4C1174.417-473.382,1173.989-472.007,1174.245-470.452Zm12.253-14.391a1.536,1.536,0,0,0,.134-2.214.872.872,0,0,0-.538-.236.32.32,0,0,0-.328.427A5,5,0,0,0,1186.5-484.843Zm-11.017,10.1c.406.891.087,1.867.506,2.8C1176.984-473.647,1176.962-473.83,1175.481-474.747Zm13.128-11.677c.49-.789.906-1.4.383-2.138-.12-.169-.4-.288-.558-.09C1187.883-487.978,1188.2-487.316,1188.609-486.424Zm-22.521,23.566c.278-.507.81-.961.46-1.669-.165-.335-.494-.618-.827-.525-.433.12-.307.48-.138.826A13.656,13.656,0,0,1,1166.088-462.858Zm14.722-14.487c.49-.244.766-.6.58-1.141a.57.57,0,0,0-.522-.141C1180.382-478.253,1180.613-477.8,1180.81-477.345Z" transform="translate(-1.247 -1.516)" fill="#ffa000"/>
    <path id="Path_1706" data-name="Path 1706" d="M1266.275-416.285a6.1,6.1,0,0,1-5.125,1.334c-5.507-.764-10.371-6.808-9.983-12.34a5.577,5.577,0,0,1,4.338-5.259,2.052,2.052,0,0,1,2.388.883,26.95,26.95,0,0,1,3.329,6.261C1262.486-422.144,1264.671-419.475,1266.275-416.285Z" transform="translate(-51.482 -34.579)" fill="#ff069e"/>
    <path id="Path_1707" data-name="Path 1707" d="M1234.727-475.271c3.19,2.109,5.235,4.975,7.273,7.842,1.09,1.533.518,2.92-1.342,3.269a4.5,4.5,0,0,1-2.727-.41,11.713,11.713,0,0,1-6.254-7.044,1.1,1.1,0,0,1,.444-1.44C1233.009-473.774,1233.865-474.534,1234.727-475.271Z" transform="translate(-41.942 -13.802)" fill="#ff069e"/>
    <path id="Path_1708" data-name="Path 1708" d="M1294.281-361.343a3.194,3.194,0,0,1-2.815-.651,10.552,10.552,0,0,1-5.052-7.4c-.353-2.263.831-3.268,3.015-2.779a1.333,1.333,0,0,1,1.125.843C1291.773-368.007,1293.792-364.981,1294.281-361.343Z" transform="translate(-68.638 -63.981)" fill="#ff069e"/>
    <path id="Path_1709" data-name="Path 1709" d="M1207.885-415.67c-5.846.119-12.439-6.63-9.44-13.979.858-2.1,3.648-3.806,6.389-3.818a10.83,10.83,0,0,1,10.458,10.547A7,7,0,0,1,1207.885-415.67Zm-3.117-16.271a5.813,5.813,0,0,0-6.115,6c.29,4.426,4.322,8.665,8.792,8.865a5.622,5.622,0,0,0,6.141-5.747A9.28,9.28,0,0,0,1204.768-431.941Z" transform="translate(-25.435 -34.174)" fill="#2b2c33"/>
    <path id="Path_1710" data-name="Path 1710" d="M1233.436-385.272c5.493.018,11.7,4.235,13.583,9.033a6.449,6.449,0,0,1,.306,4.64c-.3.849-.8,1.156-1.652.75a21.248,21.248,0,0,1-4.812-2.8c-2.282-1.933-4.685-3.815-7.777-4.45a11.988,11.988,0,0,1-4.369-2.288,1.391,1.391,0,0,1-.429-2.053C1229.448-384.631,1231.492-385.167,1233.436-385.272Zm12.386,12.779a6.243,6.243,0,0,0-1.184-4.847,15.247,15.247,0,0,0-9.288-6.568,8.4,8.4,0,0,0-3.222-.113,3.928,3.928,0,0,0-2.6,1.387c-.853,1.016-.778,1.565.354,2.237a11.925,11.925,0,0,0,3.2,1.233,15.706,15.706,0,0,1,6.02,2.762c1.178.923,2.485,1.677,3.587,2.728A4.982,4.982,0,0,0,1245.822-372.494Z" transform="translate(-40.209 -57.659)" fill="#2b2c33"/>
    <path id="Path_1711" data-name="Path 1711" d="M1184.443-405.668c2.082,2.223,4.485,3.253,6.613,4.673a12.687,12.687,0,0,1,3.84,3.922,1.3,1.3,0,0,1-1.51-.367,76.48,76.48,0,0,0-7.275-5.293A3.255,3.255,0,0,1,1184.443-405.668Z" transform="translate(-18.977 -47.72)" fill="#2b2c33"/>
    <path id="Path_1712" data-name="Path 1712" d="M1269.5-352.735c3.483,2.011,7.365,3.165,11.126,5.377a3.523,3.523,0,0,1-3.839-.152c-2.383-1.423-4.724-2.916-7.078-4.389a3.387,3.387,0,0,1-.456-.416Z" transform="translate(-60.305 -73.514)" fill="#2b2c33"/>
    <path id="Path_1713" data-name="Path 1713" d="M1236.523-438.733c1.537.047,2.392.8,2.308,2.043a1.546,1.546,0,0,1-1.556,1.426,2.5,2.5,0,0,1-2-2.617C1235.333-438.669,1235.68-439.075,1236.523-438.733Zm.784,1.547c-.212-.21-.26-.652-.727-.563-.18.034-.189.181-.113.352.143.318.264.658.7.613C1237.219-436.79,1237.25-437.019,1237.307-437.186Z" transform="translate(-43.745 -31.548)" fill="#2b2c33"/>
    <path id="Path_1714" data-name="Path 1714" d="M1243.035-399.716c-.116.7-.412,1.2-1.235,1.146a1.977,1.977,0,0,1-1.771-2.013,1.552,1.552,0,0,1,1.409-1.358C1242.2-402,1243.083-400.707,1243.035-399.716Z" transform="translate(-46.053 -49.535)" fill="#2b2c33"/>
    <path id="Path_1715" data-name="Path 1715" d="M1273.115-383.587c-.063.688-.232,1.311-1.066,1.391-.738.07-1.9-1.128-1.988-2.007-.051-.53.824-1.194,1.533-1.164A1.7,1.7,0,0,1,1273.115-383.587Z" transform="translate(-60.698 -57.612)" fill="#2b2c33"/>
    <path id="Path_1716" data-name="Path 1716" d="M1211.812-383.765c1.186.487,2.29,1.076,3.451,1.543.24.1.527.289.41.64-.15.445-.535.454-.882.335C1213.508-381.688,1212.287-382.226,1211.812-383.765Z" transform="translate(-32.314 -58.393)" fill="#2b2c33"/>
    <path id="Path_1717" data-name="Path 1717" d="M1220.967-450.93c.575.132.006,1.335.973,1.061.345-.1.667-.734.967-.027a1,1,0,0,1-.387,1.147,1,1,0,0,1-1.194.139C1220.53-449,1220.439-449.615,1220.967-450.93Z" transform="translate(-36.614 -25.664)" fill="#2b2c33"/>
    <path id="Path_1718" data-name="Path 1718" d="M1299.028-336.077a1.863,1.863,0,0,1-.314.428,1.345,1.345,0,0,1-1.423.145c-.549-.229-1.493-.32-1.318-1.106.2-.892.932-.14,1.424-.135a7.321,7.321,0,0,1,1.277.135A.441.441,0,0,1,1299.028-336.077Z" transform="translate(-73.316 -81.159)" fill="#2b2c33"/>
    <path id="Path_1719" data-name="Path 1719" d="M1275.648-357.809a1.607,1.607,0,0,1-1.441-1.39c-.033-.2-.055-.436.2-.544a.373.373,0,0,1,.53.154c.183.33.36.609.814.344.5-.29.848-.138.841.453A.961.961,0,0,1,1275.648-357.809Z" transform="translate(-62.71 -70.075)" fill="#2b2c33"/>
    <path id="Path_1720" data-name="Path 1720" d="M1282.576-385.428c.414.455.356,1.251,1.109,1.378.349.058.452.349.176.609a.693.693,0,0,1-.568.145C1282.359-383.571,1282.129-384.232,1282.576-385.428Z" transform="translate(-66.69 -57.583)" fill="#2b2c33"/>
    <path id="Path_1721" data-name="Path 1721" d="M1222.955-391.181l1.467,1.309C1222.991-389.323,1222.845-389.451,1222.955-391.181Z" transform="translate(-37.73 -54.779)" fill="#2b2c33"/>
    <path id="Path_1722" data-name="Path 1722" d="M1154.627-421.823a3.431,3.431,0,0,1-2.376-2.593,3.487,3.487,0,0,1,.652-3.639,3.55,3.55,0,0,1,3.779-.878,6.807,6.807,0,0,1,4.891,4.983,3.377,3.377,0,0,1-1.491,3.926c-.41.229-.822.358-1.141-.078-.271-.371.035-.616.277-.9,1.322-1.534,1.408-2.155.508-3.819a5.616,5.616,0,0,0-3.6-2.88,2.007,2.007,0,0,0-2.75,2.245C1153.44-424.133,1154.169-423.055,1154.627-421.823Z" transform="translate(-3.18 -36.286)" fill="#2b2c33"/>
    <path id="Path_1723" data-name="Path 1723" d="M1198.379-446.087c-.256-1.555.172-2.93-.793-4.4C1199.45-449.4,1199.565-448.585,1198.379-446.087Z" transform="translate(-25.382 -25.881)" fill="#2b2c33"/>
    <path id="Path_1724" data-name="Path 1724" d="M1222.323-472.308a5,5,0,0,1-.732-2.024.32.32,0,0,1,.328-.427.872.872,0,0,1,.538.236A1.536,1.536,0,0,1,1222.323-472.308Z" transform="translate(-37.072 -14.051)" fill="#2b2c33"/>
    <path id="Path_1725" data-name="Path 1725" d="M1201.543-450.284c1.482.917,1.5,1.1.506,2.8C1201.63-448.417,1201.949-449.393,1201.543-450.284Z" transform="translate(-27.31 -25.978)" fill="#2b2c33"/>
    <path id="Path_1726" data-name="Path 1726" d="M1226.7-475.276c-.406-.892-.726-1.554-.175-2.228.162-.2.438-.079.558.09C1227.61-476.678,1227.193-476.064,1226.7-475.276Z" transform="translate(-39.342 -12.664)" fill="#2b2c33"/>
    <path id="Path_1727" data-name="Path 1727" d="M1182.595-429.2a13.685,13.685,0,0,0-.5-1.368c-.169-.347-.295-.706.138-.826.333-.093.662.19.827.526C1183.4-430.159,1182.873-429.7,1182.595-429.2Z" transform="translate(-17.754 -35.175)" fill="#2b2c33"/>
    <path id="Path_1728" data-name="Path 1728" d="M1211.719-456.591c-.2-.456-.428-.909.057-1.282a.57.57,0,0,1,.522.141C1212.484-457.19,1212.209-456.834,1211.719-456.591Z" transform="translate(-32.156 -22.269)" fill="#2b2c33"/>
    <path id="Path_1729" data-name="Path 1729" d="M1205.666-430.5a9.28,9.28,0,0,1,8.818,9.118,5.622,5.622,0,0,1-6.141,5.747c-4.47-.2-8.5-4.438-8.792-8.865A5.813,5.813,0,0,1,1205.666-430.5Z" transform="translate(-26.333 -35.616)" fill="#ff069e"/>
    <path id="Path_1730" data-name="Path 1730" d="M1246.713-371.4a4.982,4.982,0,0,1-3.131-1.181c-1.1-1.052-2.41-1.805-3.587-2.728a15.7,15.7,0,0,0-6.02-2.762,11.924,11.924,0,0,1-3.2-1.233c-1.132-.672-1.206-1.221-.354-2.237a3.929,3.929,0,0,1,2.6-1.387,8.4,8.4,0,0,1,3.222.113,15.247,15.247,0,0,1,9.288,6.568A6.244,6.244,0,0,1,1246.713-371.4Z" transform="translate(-41.1 -58.752)" fill="#ff069e"/>
    <path id="Path_1731" data-name="Path 1731" d="M1238.4-436.147c-.056.167-.088.4-.142.4-.434.045-.555-.295-.7-.613-.076-.17-.068-.317.113-.352C1238.142-436.8,1238.19-436.357,1238.4-436.147Z" transform="translate(-44.84 -32.587)" fill="#f7f8f8"/>
  </g>
</svg>
