<svg xmlns="http://www.w3.org/2000/svg" width="104.262" height="91.579" viewBox="0 0 104.262 91.579">
  <g id="two" transform="translate(-1110.555 -184.87)">
    <path id="Path_1732" data-name="Path 1732" d="M1126.23,204.09c-2.352-2.318-4.606-4.576-6.9-6.791-2.531-2.44-5.126-4.814-7.644-7.267-1.494-1.456-1.464-1.832-.139-3.333,2.128-2.408,2.092-2.368,4.423-.293,4.5,4,8.606,8.4,12.786,12.717.178.184.377.35.536.549.567.709,1.023.687,1.675,0,2.284-2.415,4.641-4.762,6.962-7.144,1.919-1.969,3.818-3.959,5.742-5.924a4.218,4.218,0,0,1,5.733-.552,60.545,60.545,0,0,1,5.673,4.874c2.531,2.257,5.044,4.534,7.619,6.739a3.609,3.609,0,0,1,1.348,2.426c.2,1.586.532,3.158.667,4.748a3.46,3.46,0,0,0,1.091,2.326q11.823,11.788,23.594,23.628c2.121,2.131,4.212,4.291,6.3,6.457a6.013,6.013,0,0,0,2.157,1.533c3.035,1.2,6.041,2.467,9.069,3.681a43.223,43.223,0,0,1,4.17,1.939,4.7,4.7,0,0,1,2.212,2.536c.5,1.244.827,2.555,1.3,3.808a2.974,2.974,0,0,1-.788,3.3c-3.905,4.409-8.1,8.533-12.257,12.7-2.3,2.311-4.565,4.66-6.712,7.118a6.755,6.755,0,0,1-6.5,2.474,10.174,10.174,0,0,1-5.755-2.809q-25.965-26.141-51.979-52.231c-1.624-1.629-3.37-3.134-5.009-4.754a27.035,27.035,0,0,1-2.5-2.887,4.483,4.483,0,0,1-.126-5.531C1123.94,206.787,1125.049,205.543,1126.23,204.09Zm80.88,50.566a2.365,2.365,0,0,1,.947-1.532,30.191,30.191,0,0,0,2.988-3.75,1.7,1.7,0,0,0-.019-2.107,2.541,2.541,0,0,0-1.313-1.052c-4.111-1.781-8.192-3.637-12.33-5.354a13.045,13.045,0,0,1-4.257-2.864c-6.183-6.123-12.173-12.434-18.231-18.68-3.474-3.583-6.994-7.12-10.524-10.648a4.844,4.844,0,0,1-1.553-3.371c-.06-1.4-.337-2.8-.414-4.2a2.63,2.63,0,0,0-.984-1.949c-4.25-3.886-8.733-7.511-12.826-11.573a2.3,2.3,0,0,0-3.3-.313,6.841,6.841,0,0,0-1.291,1.132q-8.9,9.416-17.781,18.844c-1.678,1.776-1.873,3.368-.663,5.544a15.977,15.977,0,0,0,2.854,3.591c2.781,2.736,5.595,5.44,8.362,8.19q23.958,23.81,47.9,47.637c2.693,2.679,5.91,2.668,8.56-.069,2.625-2.712,5.23-5.444,7.856-8.156,3.426-3.539,6.844-7.086,10.307-10.59a2.391,2.391,0,0,0,.387-3.306C1210.223,251.529,1209.306,253.542,1207.11,254.656Zm-94.571-66.838c-.691.58-.151,1.006.341,1.464,2.76,2.565,5.527,5.123,8.266,7.711,1.857,1.755,3.673,3.553,5.5,5.339.365.357.629.788,1.264.339.908-.643,1.014-.965.234-1.762-2.682-2.737-5.427-5.413-8.068-8.19a55.71,55.71,0,0,0-5.393-5.16C1113.573,186.667,1113.413,186.657,1112.539,187.818Z" fill="#1e242b"/>
    <path id="Path_1733" data-name="Path 1733" d="M1210.913,255.147c2.2-1.113,3.113-3.127,4.674-4.579a2.391,2.391,0,0,1-.387,3.306c-3.463,3.5-6.881,7.051-10.306,10.59-2.626,2.712-5.231,5.444-7.856,8.156-2.65,2.737-5.867,2.748-8.56.069q-23.945-23.823-47.9-47.637c-2.767-2.75-5.581-5.454-8.362-8.19a15.974,15.974,0,0,1-2.854-3.591c-1.21-2.176-1.015-3.768.663-5.544q8.9-9.417,17.781-18.844a6.834,6.834,0,0,1,1.291-1.132,2.3,2.3,0,0,1,3.3.313c4.093,4.061,8.576,7.687,12.826,11.573a2.63,2.63,0,0,1,.984,1.949c.077,1.4.354,2.8.414,4.2a4.844,4.844,0,0,0,1.553,3.371c3.53,3.528,7.05,7.066,10.524,10.648,6.057,6.247,12.047,12.558,18.231,18.68a13.046,13.046,0,0,0,4.257,2.864c4.138,1.717,8.219,3.573,12.33,5.354a2.542,2.542,0,0,1,1.313,1.052,1.7,1.7,0,0,1,.019,2.107,30.223,30.223,0,0,1-2.988,3.75A2.364,2.364,0,0,0,1210.913,255.147Zm-24.782-2.388c-.139.15-.159.32.028.417a.3.3,0,0,0,.435-.118q1.612-1.638,3.224-3.276c1.118-1.139,2.258-2.259,3.342-3.429.986-1.064,2.243-1.917,2.726-3.406C1192.405,246,1189.333,249.444,1186.13,252.759Zm-40.468-32.712c1.132.882,1.649.263,2.218-.285,2.952-2.836,5.929-5.647,8.871-8.493q3.309-3.2,6.551-6.473c.957-.969.917-1.18,0-2.228-.3-.336-.608-.659-.927-.971q-4.944-4.827-9.9-9.645c-1.2-1.165-1.471-1.181-2.65.008q-7.3,7.361-14.555,14.759c-1.3,1.323-1.275,1.545.018,3.015,2.326,2.646,4.937,5.012,7.437,7.487C1143.772,218.256,1144.846,219.263,1145.662,220.047Zm60.246,25.2-.078.126c-.219-.132-.436-.268-.658-.4-1.811-1.042-2.8-.932-4.264.525q-6.058,6.018-12.094,12.056c-1.559,1.567-1.454,2.423.31,3.686s3.542,2.531,5.3,3.815c1.94,1.418,2.062,1.416,3.8-.357,1.79-1.828,3.6-3.642,5.369-5.485q3.858-4.01,7.673-8.061c1.1-1.171,1-1.911-.271-2.831-.362-.263-.761-.473-1.145-.7Zm-24.988-12.214c1.175.767,1.175.767,2.2-.3.133-.137.27-.271.4-.413,1.952-2.149,1.951-2.149-.244-4-1.451-1.222-1.479-1.222-2.8.054C1178.033,230.731,1178.074,231.171,1180.92,233.029Zm-14.085-4.356a.927.927,0,0,0,1.352.084c2.919-2.29,2.931-3.118.136-5.421-.62-.512-1.11-.572-1.647-.017-.664.688-1.276,1.427-1.95,2.1a.815.815,0,0,0-.013,1.319C1165.4,227.406,1166.125,228.032,1166.834,228.673Zm-8.382-5.234a1,1,0,0,0-1.636.113c-.592.666-1.236,1.285-1.853,1.929a.823.823,0,0,0-.014,1.324c.277.263.524.559.809.812,2.217,1.977,1.6,2.424,4.044-.1,1.45-1.494,1.5-1.91-.061-2.946A12.089,12.089,0,0,1,1158.453,223.439Zm32.455,44.9a6.372,6.372,0,0,0,7.046,1c1.919-.844,3.065-2.156,3.04-3.683C1198.411,269.331,1195.1,270.131,1190.907,268.344Z" transform="translate(-3.803 -0.491)" fill="#ff48ca"/>
    <path id="Path_1734" data-name="Path 1734" d="M1112.981,188.365c.874-1.161,1.035-1.151,2.143-.26a55.708,55.708,0,0,1,5.393,5.16c2.64,2.777,5.386,5.453,8.068,8.19.78.8.675,1.119-.234,1.762-.635.45-.9.018-1.264-.339-1.827-1.786-3.642-3.584-5.5-5.339-2.739-2.588-5.505-5.146-8.266-7.711C1112.83,189.371,1112.29,188.945,1112.981,188.365Z" transform="translate(-0.442 -0.547)" fill="#ff48ca"/>
    <path id="Path_1735" data-name="Path 1735" d="M1147.192,221.082c-.816-.784-1.89-1.79-2.935-2.826-2.5-2.475-5.111-4.841-7.437-7.487-1.293-1.47-1.315-1.692-.018-3.015q7.257-7.4,14.555-14.759c1.179-1.189,1.45-1.173,2.65-.008q4.958,4.813,9.9,9.645c.32.313.632.635.927.971.918,1.048.959,1.259,0,2.228q-3.236,3.276-6.551,6.473c-2.942,2.846-5.919,5.657-8.871,8.493C1148.84,221.345,1148.324,221.965,1147.192,221.082Zm10.889-21.789c-.7-.72-1.113-.118-1.56.33q-4.53,4.53-9.058,9.064c-1.486,1.489-2.95,3-4.456,4.468-.646.63-.724,1.146.079,1.678a2.387,2.387,0,0,1,.564.515c.556.723.982.714,1.66.019,4.453-4.562,8.952-9.079,13.453-13.595.641-.643.977-1.188,0-1.806A4.339,4.339,0,0,1,1158.081,199.293Zm-16.39,14.094a3.171,3.171,0,0,0,1.164-.949q5.469-5.625,10.919-11.268c.754-.779,1.527-1.54,2.271-2.329.253-.268.582-.548.434-.99a1.393,1.393,0,0,0-2.326-.587c-.236.214-.454.447-.681.672q-6.052,5.989-12.1,11.982C1139.42,211.854,1139.068,211.282,1141.691,213.387Zm-3.87-4.033c-.4.339-.116.712.334,1.076.525.424.923.717,1.585.022,4.483-4.713,9.124-9.27,13.815-13.777.653-.627.725-.985.046-1.676s-1.034-.659-1.668,0c-2.521,2.618-5.091,5.191-7.641,7.781C1142.188,204.914,1140.086,207.051,1137.821,209.354Zm9.258,8.986c1.243,1.37,1.272,1.4,2.2.505,4.637-4.468,9.185-9.03,13.951-13.364.668-.607.567-.934-.153-1.493-.686-.533-1-.037-1.417.365C1156.836,208.99,1152,213.618,1147.078,218.34Zm13.265-16.722c-.385.353-.818.72-1.217,1.121-2.3,2.3-4.579,4.625-6.882,6.924-2.032,2.029-4.088,4.033-6.124,6.057-1.036,1.03-1.028,1.041.16,2.02a1.031,1.031,0,0,0,.329.12c5.021-4.972,10.035-9.936,15.145-14.993C1161.247,202.413,1161,201.891,1160.343,201.618Z" transform="translate(-5.332 -1.527)" fill="#1e242b"/>
    <path id="Path_1736" data-name="Path 1736" d="M1221.711,260.5q1.97,1.186,3.939,2.373c.384.231.783.442,1.145.7,1.27.92,1.369,1.66.271,2.831q-3.8,4.061-7.673,8.061c-1.774,1.843-3.579,3.657-5.369,5.485-1.736,1.772-1.858,1.775-3.8.357-1.757-1.284-3.53-2.547-5.3-3.815s-1.869-2.119-.31-3.686q6.021-6.053,12.095-12.056c1.465-1.457,2.452-1.567,4.263-.525.222.128.439.264.658.4Zm1.431,2.154-.072.119q-1.15-.692-2.3-1.384c-.11-.066-.223-.127-.335-.188-1.628-.874-1.854-.863-3.155.424q-5.451,5.388-10.879,10.8c-.454.45-.911.9-1.368,1.342a.949.949,0,0,0-.069,1.373,4.957,4.957,0,0,0,1.409,1.28c1.41.881,2.8,1.8,4.207,2.681,1.6.994,1.995.922,3.282-.432q4.159-4.375,8.328-8.738c1.279-1.34,2.591-2.649,3.833-4.021.7-.771.615-1.106-.257-1.666S1224.019,263.181,1223.143,262.654Z" transform="translate(-19.606 -15.748)" fill="#1e242b"/>
    <path id="Path_1737" data-name="Path 1737" d="M1201.51,267.659c3.2-3.315,6.275-6.76,9.755-9.812-.483,1.489-1.74,2.342-2.726,3.406-1.084,1.17-2.224,2.29-3.342,3.429q-1.609,1.639-3.22,3.273C1201.824,267.854,1201.667,267.757,1201.51,267.659Z" transform="translate(-19.182 -15.391)" fill="#1e242b"/>
    <path id="Path_1738" data-name="Path 1738" d="M1207.564,289.314c4.188,1.787,7.5.988,10.085-2.683.025,1.527-1.12,2.838-3.04,3.683A6.372,6.372,0,0,1,1207.564,289.314Z" transform="translate(-20.459 -21.461)" fill="#1e242b"/>
    <path id="Path_1739" data-name="Path 1739" d="M1201.481,270.281c.157.1.314.2.466.3a.307.307,0,0,1-.439.12C1201.323,270.6,1201.342,270.431,1201.481,270.281Z" transform="translate(-19.153 -18.013)" fill="#1e242b"/>
    <path id="Path_1740" data-name="Path 1740" d="M1159.862,201.124a4.331,4.331,0,0,0,.68.672c.979.619.643,1.163,0,1.806-4.5,4.516-9,9.033-13.453,13.595-.679.7-1.1.7-1.66-.019a2.383,2.383,0,0,0-.564-.514c-.8-.532-.725-1.047-.079-1.678,1.506-1.469,2.97-2.979,4.456-4.468q4.526-4.535,9.058-9.064C1158.748,201.006,1159.166,200.4,1159.862,201.124Z" transform="translate(-7.113 -3.357)" fill="#ffa4d4"/>
    <path id="Path_1741" data-name="Path 1741" d="M1142.754,214.656c-2.623-2.105-2.271-1.533-.321-3.469q6.041-6,12.1-11.982c.226-.224.445-.458.681-.672a1.393,1.393,0,0,1,2.326.587c.148.441-.181.722-.434.99-.744.788-1.516,1.55-2.271,2.329q-5.459,5.635-10.919,11.268A3.167,3.167,0,0,1,1142.754,214.656Z" transform="translate(-6.395 -2.795)" fill="#ffa4d4"/>
    <path id="Path_1742" data-name="Path 1742" d="M1138.3,209.992c2.266-2.3,4.368-4.44,6.471-6.576,2.55-2.59,5.12-5.162,7.641-7.781.634-.657,1-.679,1.668,0s.607,1.049-.046,1.676c-4.69,4.507-9.332,9.064-13.815,13.777-.662.7-1.06.4-1.585-.022C1138.182,210.7,1137.894,210.331,1138.3,209.992Z" transform="translate(-5.81 -2.165)" fill="#ffa4d4"/>
    <path id="Path_1743" data-name="Path 1743" d="M1150.082,221.453c4.925-4.722,9.757-9.35,14.582-13.988.418-.4.731-.9,1.417-.365.72.559.821.886.153,1.493-4.766,4.335-9.314,8.9-13.951,13.364C1151.354,222.853,1151.325,222.823,1150.082,221.453Z" transform="translate(-8.336 -4.639)" fill="#ffa4d4"/>
    <path id="Path_1744" data-name="Path 1744" d="M1162.889,204.16c.658.272.9.795,1.411,1.25-5.11,5.057-10.124,10.021-15.145,14.993a1.032,1.032,0,0,1-.328-.12c-1.188-.979-1.2-.99-.16-2.02,2.036-2.024,4.092-4.028,6.124-6.057,2.3-2.3,4.584-4.619,6.882-6.924C1162.072,204.88,1162.5,204.513,1162.889,204.16Z" transform="translate(-7.878 -4.068)" fill="#ffa4d4"/>
    <path id="Path_1745" data-name="Path 1745" d="M1223.459,262.936c.876.527,1.764,1.035,2.624,1.587s.954.895.257,1.666c-1.242,1.372-2.554,2.681-3.833,4.021q-4.167,4.367-8.328,8.738c-1.287,1.354-1.685,1.427-3.282.432-1.412-.879-2.8-1.8-4.207-2.681a4.963,4.963,0,0,1-1.409-1.28.949.949,0,0,1,.069-1.373c.457-.447.915-.892,1.369-1.342q5.438-5.4,10.879-10.8c1.3-1.286,1.527-1.3,3.155-.424.112.061.225.122.335.188q1.15.69,2.3,1.384Zm-8.006,3.685a.622.622,0,1,0,.12.829C1215.792,267.174,1215.678,266.876,1215.453,266.621Zm-5.722,6.123a.56.56,0,0,0-.321-.719.468.468,0,0,0-.63.175.5.5,0,0,0,.147.784A.583.583,0,0,0,1209.731,272.744Zm3.806-4.451a.646.646,0,0,0-.922.226.557.557,0,0,0,.222.8.637.637,0,0,0,.966-.187C1213.98,268.843,1213.9,268.537,1213.537,268.293Zm-2.92,2.113a.548.548,0,0,0,.208.647.5.5,0,0,0,.759-.249.432.432,0,0,0-.195-.623A.529.529,0,0,0,1210.617,270.406Zm-2.775,4.26c.1-.316.059-.628-.293-.761a.563.563,0,0,0-.777.317c-.13.3.068.5.267.63A.51.51,0,0,0,1207.841,274.666Z" transform="translate(-19.923 -16.03)" fill="#ffa4d4"/>
    <g id="Group_2661" data-name="Group 2661" transform="translate(1174.908 226.919)">
      <path id="Path_1746" data-name="Path 1746" d="M1194.316,243.776c-2.845-1.858-2.887-2.3-.445-4.655,1.323-1.276,1.351-1.277,2.8-.054,2.2,1.85,2.2,1.85.244,4-.128.142-.266.276-.4.414C1195.491,244.543,1195.491,244.543,1194.316,243.776Zm-1.093-2.576c.648.481,1.133.793,1.561,1.17.694.612,1.073.205,1.551-.326.526-.585.592-.978-.01-1.589-1.164-1.181-1.122-1.223-2.324-.039C1193.779,240.633,1193.563,240.857,1193.224,241.2Z" transform="translate(-1192.107 -238.157)" fill="#1e242b"/>
      <path id="Path_1747" data-name="Path 1747" d="M1193.522,241.572c.339-.342.556-.567.777-.784,1.2-1.184,1.16-1.142,2.324.039.6.611.536,1,.01,1.589-.477.531-.856.937-1.551.326C1194.655,242.365,1194.17,242.053,1193.522,241.572Z" transform="translate(-1192.405 -238.529)" fill="#feea02"/>
    </g>
    <g id="Group_2662" data-name="Group 2662" transform="translate(1170.197 231.655)">
      <path id="Path_1748" data-name="Path 1748" d="M1188.347,249.778c-2.845-1.858-2.887-2.3-.444-4.655,1.323-1.276,1.351-1.277,2.8-.054,2.2,1.85,2.2,1.85.244,4-.128.142-.265.276-.4.413C1189.522,250.545,1189.522,250.546,1188.347,249.778Zm-1.093-2.576c.649.481,1.133.793,1.562,1.17.694.612,1.072.205,1.551-.326.526-.586.591-.978-.01-1.589-1.164-1.181-1.123-1.223-2.324-.039C1187.81,246.635,1187.593,246.859,1187.254,247.2Z" transform="translate(-1186.137 -244.159)" fill="#1e242b"/>
      <path id="Path_1749" data-name="Path 1749" d="M1187.552,247.574c.339-.342.556-.567.778-.784,1.2-1.184,1.16-1.142,2.324.039.6.611.536,1,.01,1.589-.478.531-.857.937-1.551.326C1188.685,248.367,1188.2,248.055,1187.552,247.574Z" transform="translate(-1186.436 -244.531)" fill="#feea02"/>
    </g>
    <g id="Group_2663" data-name="Group 2663" transform="translate(1165.57 236.599)">
      <path id="Path_1750" data-name="Path 1750" d="M1182.484,256.044c-2.845-1.858-2.887-2.3-.445-4.655,1.323-1.277,1.351-1.278,2.8-.054,2.2,1.85,2.2,1.85.244,4-.128.141-.266.275-.4.413C1183.658,256.811,1183.658,256.811,1182.484,256.044Zm-1.093-2.577c.648.481,1.133.794,1.561,1.171.694.612,1.073.205,1.551-.326.526-.586.592-.979-.01-1.59-1.164-1.18-1.122-1.222-2.324-.039C1181.946,252.9,1181.73,253.124,1181.391,253.467Z" transform="translate(-1180.274 -250.424)" fill="#1e242b"/>
      <path id="Path_1751" data-name="Path 1751" d="M1181.689,253.839c.339-.342.556-.566.777-.784,1.2-1.183,1.16-1.141,2.324.039.6.611.536,1,.01,1.59-.477.531-.856.937-1.551.326C1182.822,254.633,1182.337,254.32,1181.689,253.839Z" transform="translate(-1180.572 -250.796)" fill="#feea02"/>
    </g>
    <g id="Group_2664" data-name="Group 2664" transform="translate(1175.415 236.762)">
      <path id="Path_1752" data-name="Path 1752" d="M1194.959,256.25c-2.845-1.858-2.887-2.3-.444-4.655,1.323-1.277,1.351-1.278,2.8-.054,2.2,1.849,2.2,1.85.245,4-.129.142-.266.276-.4.414C1196.135,257.017,1196.135,257.017,1194.959,256.25Zm-1.092-2.577c.648.481,1.132.794,1.561,1.171.694.612,1.073.205,1.551-.326.526-.586.591-.979-.01-1.59-1.164-1.181-1.123-1.222-2.324-.039C1194.423,253.107,1194.206,253.33,1193.868,253.673Z" transform="translate(-1192.75 -250.63)" fill="#1e242b"/>
      <path id="Path_1753" data-name="Path 1753" d="M1194.166,254.045c.338-.342.555-.566.777-.784,1.2-1.183,1.16-1.141,2.324.039.6.611.537,1,.01,1.59-.477.531-.856.937-1.551.326C1195.3,254.839,1194.814,254.526,1194.166,254.045Z" transform="translate(-1193.049 -251.002)" fill="#feea02"/>
    </g>
    <g id="Group_2665" data-name="Group 2665" transform="translate(1179.868 232.108)">
      <path id="Path_1754" data-name="Path 1754" d="M1200.6,250.352c-2.845-1.858-2.888-2.3-.445-4.655,1.323-1.277,1.351-1.277,2.8-.054,2.2,1.85,2.2,1.85.245,4-.129.141-.266.275-.4.414C1201.777,251.119,1201.777,251.119,1200.6,250.352Zm-1.093-2.577c.648.481,1.133.794,1.561,1.171.694.612,1.073.205,1.551-.326.526-.585.591-.979-.01-1.59-1.164-1.181-1.123-1.222-2.324-.039C1200.065,247.209,1199.848,247.432,1199.51,247.775Z" transform="translate(-1198.392 -244.733)" fill="#1e242b"/>
      <path id="Path_1755" data-name="Path 1755" d="M1199.808,248.147c.339-.342.555-.566.777-.784,1.2-1.183,1.16-1.141,2.324.039.6.611.537,1,.01,1.59-.477.531-.856.937-1.551.326C1200.941,248.941,1200.456,248.628,1199.808,248.147Z" transform="translate(-1198.691 -245.105)" fill="#feea02"/>
    </g>
    <g id="Group_2666" data-name="Group 2666" transform="translate(1170.917 241.493)">
      <path id="Path_1756" data-name="Path 1756" d="M1189.259,262.246c-2.845-1.858-2.887-2.3-.445-4.655,1.323-1.277,1.351-1.277,2.8-.054,2.2,1.85,2.2,1.85.245,4-.129.141-.265.275-.4.413C1190.434,263.013,1190.434,263.013,1189.259,262.246Zm-1.093-2.577c.648.481,1.133.794,1.561,1.171.694.612,1.073.205,1.551-.326.527-.586.592-.979-.01-1.59-1.163-1.181-1.122-1.222-2.324-.039C1188.721,259.1,1188.505,259.327,1188.166,259.669Z" transform="translate(-1187.049 -256.627)" fill="#1e242b"/>
      <path id="Path_1757" data-name="Path 1757" d="M1188.464,260.041c.339-.342.555-.566.777-.784,1.2-1.183,1.161-1.141,2.324.039.6.611.537,1,.01,1.59-.477.531-.856.937-1.551.326C1189.6,260.835,1189.112,260.522,1188.464,260.041Z" transform="translate(-1187.347 -256.999)" fill="#feea02"/>
    </g>
    <g id="Group_2667" data-name="Group 2667" transform="translate(1160.581 222.436)">
      <path id="Path_1758" data-name="Path 1758" d="M1176.4,238.222c-.71-.642-1.434-1.267-2.122-1.93a.815.815,0,0,1,.013-1.319c.674-.677,1.285-1.416,1.95-2.1.537-.556,1.027-.5,1.647.017,2.8,2.3,2.783,3.131-.136,5.421A.927.927,0,0,1,1176.4,238.222Zm-1.186-2.79c.562.564,1,1.016,1.451,1.452a.631.631,0,0,0,.85.081c1.258-.773,1.312-1.572.311-2.632-.621-.659-1.072-.8-1.641-.009C1175.932,234.678,1175.609,234.987,1175.216,235.432Z" transform="translate(-1173.951 -232.476)" fill="#1e242b"/>
      <path id="Path_1759" data-name="Path 1759" d="M1175.554,235.781c.394-.445.716-.754.971-1.109.57-.8,1.02-.649,1.641.009,1,1.061.947,1.86-.311,2.632a.631.631,0,0,1-.85-.08C1176.553,236.8,1176.116,236.345,1175.554,235.781Z" transform="translate(-1174.289 -232.825)" fill="#feea02"/>
    </g>
    <g id="Group_2668" data-name="Group 2668" transform="translate(1165.275 217.87)">
      <path id="Path_1760" data-name="Path 1760" d="M1182.352,232.436c-.709-.642-1.434-1.267-2.122-1.931a.815.815,0,0,1,.013-1.319c.675-.677,1.286-1.416,1.95-2.1.537-.556,1.027-.5,1.648.017,2.794,2.3,2.782,3.13-.136,5.421A.927.927,0,0,1,1182.352,232.436Zm-1.186-2.79c.562.564,1,1.016,1.451,1.451a.628.628,0,0,0,.849.081c1.258-.772,1.312-1.571.311-2.632-.621-.658-1.072-.8-1.641-.009C1181.881,228.892,1181.559,229.2,1181.166,229.646Z" transform="translate(-1179.9 -226.69)" fill="#1e242b"/>
      <path id="Path_1761" data-name="Path 1761" d="M1181.5,229.995c.393-.446.715-.754.97-1.109.57-.8,1.02-.649,1.641.009,1,1.061.947,1.861-.311,2.632a.628.628,0,0,1-.849-.08C1182.5,231.01,1182.066,230.559,1181.5,229.995Z" transform="translate(-1180.238 -227.039)" fill="#feea02"/>
    </g>
    <g id="Group_2669" data-name="Group 2669" transform="translate(1156.104 227.445)">
      <path id="Path_1762" data-name="Path 1762" d="M1170.729,244.57c-.709-.642-1.434-1.267-2.122-1.931a.815.815,0,0,1,.013-1.319c.674-.677,1.286-1.416,1.95-2.1.537-.556,1.027-.5,1.648.016,2.794,2.3,2.782,3.131-.136,5.422A.928.928,0,0,1,1170.729,244.57Zm-1.186-2.79c.562.564,1,1.016,1.451,1.451a.628.628,0,0,0,.849.081c1.258-.773,1.312-1.571.311-2.632-.621-.658-1.072-.8-1.641-.009C1170.258,241.026,1169.936,241.334,1169.543,241.78Z" transform="translate(-1168.277 -238.824)" fill="#1e242b"/>
      <path id="Path_1763" data-name="Path 1763" d="M1169.881,242.129c.394-.446.715-.754.97-1.11.57-.795,1.02-.649,1.641.009,1,1.061.947,1.86-.311,2.632a.628.628,0,0,1-.849-.081C1170.879,243.144,1170.443,242.693,1169.881,242.129Z" transform="translate(-1168.615 -239.173)" fill="#feea02"/>
    </g>
    <g id="Group_2670" data-name="Group 2670" transform="translate(1165.301 226.769)">
      <path id="Path_1764" data-name="Path 1764" d="M1182.384,243.713c-.709-.642-1.434-1.267-2.122-1.931a.815.815,0,0,1,.013-1.319c.674-.677,1.286-1.416,1.95-2.1.536-.556,1.026-.5,1.647.016,2.8,2.3,2.782,3.131-.137,5.421A.927.927,0,0,1,1182.384,243.713Zm-1.186-2.79c.562.563,1,1.016,1.451,1.451a.629.629,0,0,0,.849.081c1.258-.773,1.312-1.571.312-2.632-.621-.658-1.072-.8-1.641-.009C1181.914,240.169,1181.592,240.477,1181.2,240.923Z" transform="translate(-1179.932 -237.967)" fill="#1e242b"/>
      <path id="Path_1765" data-name="Path 1765" d="M1181.536,241.271c.394-.446.716-.754.971-1.11.57-.8,1.02-.649,1.641.009,1,1.061.946,1.86-.312,2.632a.629.629,0,0,1-.849-.081C1182.535,242.287,1182.1,241.835,1181.536,241.271Z" transform="translate(-1180.271 -238.315)" fill="#feea02"/>
    </g>
    <g id="Group_2671" data-name="Group 2671" transform="translate(1169.995 222.203)">
      <path id="Path_1766" data-name="Path 1766" d="M1188.333,237.926c-.709-.642-1.433-1.267-2.121-1.93a.815.815,0,0,1,.013-1.319c.674-.677,1.286-1.416,1.95-2.1.537-.556,1.027-.5,1.648.017,2.794,2.3,2.782,3.131-.136,5.421A.928.928,0,0,1,1188.333,237.926Zm-1.186-2.79c.563.564,1,1.016,1.452,1.452a.63.63,0,0,0,.849.08c1.258-.773,1.312-1.572.311-2.632-.621-.659-1.072-.8-1.641-.009C1187.862,234.382,1187.541,234.69,1187.147,235.136Z" transform="translate(-1185.882 -232.18)" fill="#1e242b"/>
      <path id="Path_1767" data-name="Path 1767" d="M1187.485,235.485c.394-.446.716-.754.971-1.109.57-.8,1.02-.649,1.641.009,1,1.061.947,1.86-.311,2.632a.63.63,0,0,1-.849-.08C1188.484,236.5,1188.048,236.049,1187.485,235.485Z" transform="translate(-1186.22 -232.529)" fill="#feea02"/>
    </g>
    <g id="Group_2672" data-name="Group 2672" transform="translate(1160.824 231.777)">
      <path id="Path_1768" data-name="Path 1768" d="M1176.71,250.06c-.708-.642-1.433-1.267-2.121-1.93a.816.816,0,0,1,.013-1.32c.674-.676,1.285-1.416,1.95-2.1.537-.556,1.027-.5,1.648.017,2.794,2.3,2.783,3.131-.136,5.421A.928.928,0,0,1,1176.71,250.06Zm-1.185-2.79c.562.564,1,1.016,1.451,1.452a.629.629,0,0,0,.849.08c1.258-.772,1.312-1.571.311-2.632-.621-.659-1.072-.8-1.641-.009C1176.24,246.516,1175.918,246.824,1175.525,247.27Z" transform="translate(-1174.259 -244.314)" fill="#1e242b"/>
      <path id="Path_1769" data-name="Path 1769" d="M1175.863,247.619c.393-.446.715-.754.97-1.109.57-.8,1.02-.649,1.641.009,1,1.061.947,1.86-.311,2.632a.629.629,0,0,1-.849-.08C1176.861,248.635,1176.425,248.183,1175.863,247.619Z" transform="translate(-1174.597 -244.663)" fill="#feea02"/>
    </g>
    <g id="Group_2673" data-name="Group 2673" transform="translate(1150.82 222.571)">
      <path id="Path_1770" data-name="Path 1770" d="M1165.411,233.024a12.1,12.1,0,0,0,1.289,1.134c1.559,1.035,1.51,1.452.061,2.946-2.449,2.522-1.827,2.075-4.044.1-.285-.253-.532-.549-.809-.812a.823.823,0,0,1,.014-1.324c.617-.644,1.261-1.263,1.853-1.929A1,1,0,0,1,1165.411,233.024Zm-.684.69a5.783,5.783,0,0,0-1.5,1.406.641.641,0,0,0-.137.849c.826,1.464,2.068,1.524,3.063.182.393-.53.356-.92-.137-1.293C1165.566,234.515,1165.324,233.94,1164.727,233.714Z" transform="translate(-1161.581 -232.647)" fill="#1e242b"/>
      <path id="Path_1771" data-name="Path 1771" d="M1165.1,234c.6.226.839.8,1.292,1.144.493.373.53.764.137,1.293-1,1.341-2.237,1.282-3.063-.182a.641.641,0,0,1,.137-.849A5.784,5.784,0,0,1,1165.1,234Z" transform="translate(-1161.957 -232.932)" fill="#feea02"/>
    </g>
    <g id="Group_2674" data-name="Group 2674" transform="translate(1155.381 217.699)">
      <path id="Path_1772" data-name="Path 1772" d="M1171.192,226.85a12.293,12.293,0,0,0,1.289,1.134c1.56,1.035,1.511,1.452.061,2.946-2.449,2.522-1.827,2.074-4.044.1-.285-.254-.532-.549-.809-.812a.823.823,0,0,1,.014-1.324c.617-.644,1.261-1.263,1.853-1.929A1,1,0,0,1,1171.192,226.85Zm-.684.689a5.818,5.818,0,0,0-1.5,1.407.641.641,0,0,0-.137.849c.826,1.464,2.068,1.524,3.064.182.393-.529.355-.92-.138-1.294C1171.348,228.341,1171.105,227.765,1170.508,227.539Z" transform="translate(-1167.362 -226.473)" fill="#1e242b"/>
      <path id="Path_1773" data-name="Path 1773" d="M1170.884,227.824c.6.226.84.8,1.292,1.144.493.374.531.765.138,1.294-1,1.341-2.238,1.282-3.064-.182a.641.641,0,0,1,.137-.849A5.815,5.815,0,0,1,1170.884,227.824Z" transform="translate(-1167.738 -226.758)" fill="#feea02"/>
    </g>
    <g id="Group_2675" data-name="Group 2675" transform="translate(1159.941 213.051)">
      <path id="Path_1774" data-name="Path 1774" d="M1176.97,220.96a12.118,12.118,0,0,0,1.289,1.134c1.559,1.035,1.51,1.452.061,2.946-2.449,2.522-1.827,2.075-4.044.1-.285-.254-.532-.549-.809-.812a.823.823,0,0,1,.014-1.324c.617-.644,1.26-1.263,1.853-1.929A1,1,0,0,1,1176.97,220.96Zm-.685.689a5.811,5.811,0,0,0-1.5,1.407.641.641,0,0,0-.137.849c.826,1.464,2.068,1.524,3.063.182.393-.529.356-.92-.137-1.294C1177.125,222.451,1176.883,221.875,1176.285,221.649Z" transform="translate(-1173.14 -220.583)" fill="#1e242b"/>
      <path id="Path_1775" data-name="Path 1775" d="M1176.661,221.934c.6.226.84.8,1.293,1.144.493.374.53.765.137,1.294-1,1.341-2.237,1.281-3.063-.182a.641.641,0,0,1,.137-.849A5.815,5.815,0,0,1,1176.661,221.934Z" transform="translate(-1173.516 -220.868)" fill="#feea02"/>
    </g>
    <path id="Path_1776" data-name="Path 1776" d="M1220.523,266.441c-.233.249-.489.413-.813.23a.63.63,0,0,1-.248-.938.6.6,0,0,1,.921-.259C1220.768,265.73,1220.693,266.1,1220.523,266.441Z" transform="translate(-22.945 -16.973)" fill="#1e242b"/>
    <path id="Path_1777" data-name="Path 1777" d="M1217.977,268.125c.225.255.339.553.12.828a.581.581,0,0,1-.937.111.628.628,0,0,1,.817-.939Z" transform="translate(-22.447 -17.534)" fill="#1e242b"/>
    <path id="Path_1778" data-name="Path 1778" d="M1210.7,275.709a.583.583,0,0,1-.8.24.5.5,0,0,1-.147-.784.468.468,0,0,1,.63-.175A.56.56,0,0,1,1210.7,275.709Z" transform="translate(-20.894 -18.995)" fill="#1e242b"/>
    <path id="Path_1779" data-name="Path 1779" d="M1215.542,270.246c.36.244.443.55.266.843a.636.636,0,0,1-.966.187.557.557,0,0,1-.223-.8A.646.646,0,0,1,1215.542,270.246Z" transform="translate(-21.928 -17.983)" fill="#1e242b"/>
    <path id="Path_1780" data-name="Path 1780" d="M1222.839,262.973c.187.256.364.521.135.835a.456.456,0,0,1-.649.153.569.569,0,0,1-.153-.82A.552.552,0,0,1,1222.839,262.973Z" transform="translate(-23.516 -16.463)" fill="#1e242b"/>
    <path id="Path_1781" data-name="Path 1781" d="M1212.105,272.868a.53.53,0,0,1,.772-.225.433.433,0,0,1,.2.623.5.5,0,0,1-.759.249A.549.549,0,0,1,1212.105,272.868Z" transform="translate(-21.412 -18.493)" fill="#1e242b"/>
    <path id="Path_1782" data-name="Path 1782" d="M1208.3,278.135a.51.51,0,0,1-.8.185c-.2-.13-.4-.331-.267-.63a.563.563,0,0,1,.777-.317C1208.357,277.507,1208.4,277.819,1208.3,278.135Z" transform="translate(-20.379 -19.498)" fill="#1e242b"/>
    <path id="Path_1783" data-name="Path 1783" d="M1223.441,268.294c-.226.255-.478.426-.806.253a.631.631,0,0,1-.276-.93.6.6,0,0,1,.913-.286C1223.664,267.575,1223.6,267.944,1223.441,268.294Z" transform="translate(-23.558 -17.367)" fill="#1e242b"/>
    <path id="Path_1784" data-name="Path 1784" d="M1220.944,270.052c.232.249.355.543.144.825a.59.59,0,1,1-.144-.825Z" transform="translate(-23.076 -17.943)" fill="#1e242b"/>
    <path id="Path_1785" data-name="Path 1785" d="M1213.894,277.847a.582.582,0,0,1-.8.263.5.5,0,0,1-.171-.779.468.468,0,0,1,.624-.193A.559.559,0,0,1,1213.894,277.847Z" transform="translate(-21.566 -19.449)" fill="#1e242b"/>
    <path id="Path_1786" data-name="Path 1786" d="M1218.572,272.243c.367.233.458.537.291.835a.636.636,0,0,1-.96.215.557.557,0,0,1-.246-.8A.646.646,0,0,1,1218.572,272.243Z" transform="translate(-22.57 -18.406)" fill="#1e242b"/>
    <path id="Path_1787" data-name="Path 1787" d="M1225.652,264.76c.2.25.379.51.16.831a.456.456,0,0,1-.644.172.57.57,0,0,1-.177-.816A.552.552,0,0,1,1225.652,264.76Z" transform="translate(-24.113 -16.842)" fill="#1e242b"/>
    <path id="Path_1788" data-name="Path 1788" d="M1215.213,274.966a.531.531,0,0,1,.766-.248.432.432,0,0,1,.213.618.5.5,0,0,1-.751.271A.549.549,0,0,1,1215.213,274.966Z" transform="translate(-22.068 -18.932)" fill="#1e242b"/>
    <path id="Path_1789" data-name="Path 1789" d="M1211.562,280.341a.51.51,0,0,1-.8.209c-.2-.125-.406-.32-.285-.622a.563.563,0,0,1,.768-.339C1211.6,279.711,1211.651,280.022,1211.562,280.341Z" transform="translate(-21.066 -19.967)" fill="#1e242b"/>
    <path id="Path_1790" data-name="Path 1790" d="M1226.592,270.119c-.225.256-.477.427-.805.254a.63.63,0,0,1-.276-.93.6.6,0,0,1,.913-.286C1226.816,269.4,1226.751,269.77,1226.592,270.119Z" transform="translate(-24.223 -17.752)" fill="#1e242b"/>
    <path id="Path_1791" data-name="Path 1791" d="M1224.1,271.877c.232.249.355.544.144.825a.589.589,0,1,1-.144-.825Z" transform="translate(-23.741 -18.328)" fill="#1e242b"/>
    <path id="Path_1792" data-name="Path 1792" d="M1217.045,279.672a.582.582,0,0,1-.8.264.5.5,0,0,1-.17-.779.469.469,0,0,1,.624-.193A.559.559,0,0,1,1217.045,279.672Z" transform="translate(-22.231 -19.834)" fill="#1e242b"/>
    <path id="Path_1793" data-name="Path 1793" d="M1221.723,274.068c.367.234.458.537.29.835a.636.636,0,0,1-.96.215.558.558,0,0,1-.246-.8A.647.647,0,0,1,1221.723,274.068Z" transform="translate(-23.235 -18.791)" fill="#1e242b"/>
    <path id="Path_1794" data-name="Path 1794" d="M1228.8,266.586c.195.249.38.51.159.831a.455.455,0,0,1-.644.171.569.569,0,0,1-.177-.815A.552.552,0,0,1,1228.8,266.586Z" transform="translate(-24.777 -17.227)" fill="#1e242b"/>
    <path id="Path_1795" data-name="Path 1795" d="M1218.364,276.791a.53.53,0,0,1,.765-.248.433.433,0,0,1,.214.618.5.5,0,0,1-.752.271A.549.549,0,0,1,1218.364,276.791Z" transform="translate(-22.733 -19.317)" fill="#1e242b"/>
    <path id="Path_1796" data-name="Path 1796" d="M1214.713,282.167a.51.51,0,0,1-.8.208c-.2-.124-.406-.32-.285-.621a.564.564,0,0,1,.768-.34C1214.754,281.537,1214.8,281.848,1214.713,282.167Z" transform="translate(-21.731 -20.352)" fill="#1e242b"/>
    <path id="Path_1797" data-name="Path 1797" d="M1134.321,220.321c.427-.57,37.243,36.343,36.816,36.913S1133.895,220.891,1134.321,220.321Z" transform="translate(-5.011 -7.475)" fill="#1e242b"/>
  </g>
</svg>
