<svg xmlns="http://www.w3.org/2000/svg" width="112.579" height="30.892" viewBox="0 0 112.579 30.892">
  <g id="five" transform="translate(-1230.999 -1018.51)">
    <g id="Group_22" data-name="Group 22" transform="translate(1230.999 1018.51)">
      <path id="Path_68" data-name="Path 68" d="M1243.084,1018.51a4.964,4.964,0,0,0,.912.107,9.683,9.683,0,0,1,4.177,1.371,6.4,6.4,0,0,1,2.66,3.923c.112.424.182.856.254,1.288.028.166-.031.183-.163.19-.511.03-1.021.07-1.532.1l-4.406.27-.083,0c-.407.018-.407.018-.5-.372a3.071,3.071,0,0,0-1.3-2.082,3.837,3.837,0,0,0-2.456-.485,2.44,2.44,0,0,0-1.328.455,1.441,1.441,0,0,0,.3,2.592,14.492,14.492,0,0,0,2.605.72,28.463,28.463,0,0,1,5.5,1.713,6.694,6.694,0,0,1,3.676,3.657,7.645,7.645,0,0,1,.46,2.464c.01.26-.075.36-.33.418q-2.171.5-4.335,1.036c-.743.183-1.48.389-2.221.585a.231.231,0,0,1-.189,0,5.531,5.531,0,0,0,.208-.614,2.139,2.139,0,0,0-1.133-2.294,10.667,10.667,0,0,0-2.839-.971,20.466,20.466,0,0,1-5.561-1.945,5.979,5.979,0,0,1-3.1-3.768,6.254,6.254,0,0,1,3.327-7.219,9.578,9.578,0,0,1,3.285-.979c.469-.06.938-.11,1.407-.165C1241.292,1018.51,1242.188,1018.51,1243.084,1018.51Z" transform="translate(-1230.825 -1018.51)" fill="#010431"/>
      <path id="Path_69" data-name="Path 69" d="M1331.5,1024.568a4.751,4.751,0,0,0-.421,1.041q-2.878,7.871-5.741,15.748c-.118.324-.116.326-.434.176q-3.3-1.558-6.7-2.9a.445.445,0,0,1-.281-.265q-2.829-6.892-5.67-13.781c-.082-.2-.038-.225.155-.224q3.091.009,6.182,0c.16,0,.233.033.285.2q1.608,5.331,3.231,10.656c.016.052.036.1.078.218.186-.657.356-1.252.525-1.848q1.275-4.515,2.543-9.029c.055-.2.16-.2.317-.2q2.817.005,5.633,0c.1,0,.2-.014.3-.021C1331.5,1024.419,1331.5,1024.5,1331.5,1024.568Z" transform="translate(-1218.919 -1017.642)" fill="#010431"/>
      <path id="Path_70" data-name="Path 70" d="M1316.176,1046.606a4.343,4.343,0,0,0-.879-.108c-.625-.079-1.251-.151-1.878-.219-.1-.011-.144-.046-.154-.148-.089-.855-.185-1.708-.277-2.562-.057-.527-.106-1.055-.176-1.58-.024-.183.026-.2.18-.154a9.989,9.989,0,0,0,2.867.384,2.69,2.69,0,0,0,2.615-1.641,1.368,1.368,0,0,0,.052-1.352c-.307-.6-.53-1.251-.81-1.931.527.21,1.009.4,1.484.593q2.79,1.153,5.524,2.431c.169.079.225.137.149.34a19.712,19.712,0,0,1-1.546,3.406,5.036,5.036,0,0,1-3.4,2.322c-.4.091-.814.149-1.221.223C1317.865,1046.606,1317.026,1046.606,1316.176,1046.606Z" transform="translate(-1218.83 -1015.716)" fill="#010431"/>
      <path id="Path_71" data-name="Path 71" d="M1231,1032.5c.827-.092,1.659-.117,2.488-.17,1.287-.082,2.572-.165,3.856-.264.245-.018.328.045.365.288a4.612,4.612,0,0,0,.924,2.338,3.569,3.569,0,0,0,1.782,1.139c-.4.129-.754.242-1.105.351-1.908.594-3.8,1.222-5.676,1.918a.3.3,0,0,1-.392-.108,9.012,9.012,0,0,1-2.117-4.388,4.059,4.059,0,0,0-.126-.72C1231,1032.749,1231,1032.623,1231,1032.5Z" transform="translate(-1230.999 -1016.494)" fill="#010431"/>
      <path id="Path_72" data-name="Path 72" d="M1303.7,1033.529c-.719-.157-1.439-.317-2.162-.472-1.276-.275-2.556-.53-3.843-.752-.161-.028-.3-.03-.279-.284a8.369,8.369,0,0,1,7.094-7.769,12.539,12.539,0,0,1,5.946.318,7.781,7.781,0,0,1,5.643,6.5,9.469,9.469,0,0,1-.643,5.558c-.1.225-.187.237-.4.163-1.731-.6-3.482-1.145-5.242-1.654-.172-.049-.2-.089-.158-.274a7.683,7.683,0,0,0-.1-4.4,2.844,2.844,0,0,0-3.205-1.941,2.945,2.945,0,0,0-2.339,2.1,6.857,6.857,0,0,0-.3,2.626c0,.073.009.146.01.219C1303.738,1033.483,1303.715,1033.494,1303.7,1033.529Z" transform="translate(-1221.12 -1017.687)" fill="#010431"/>
      <path id="Path_73" data-name="Path 73" d="M1261.052,1038.181a10.167,10.167,0,0,1-2.06,1.985,6.054,6.054,0,0,1-2.919,1,7.154,7.154,0,0,1-2.981-.255,4.8,4.8,0,0,1-3.253-3.747,15.047,15.047,0,0,1-.237-3.466c0-.149.073-.17.2-.2,1.6-.357,3.209-.677,4.822-.977.359-.067.718-.128,1.073-.206.2-.044.25.014.25.214a9.559,9.559,0,0,0,.1,1.941,1.9,1.9,0,0,0,1.279,1.6,2.285,2.285,0,0,0,2.308-.449,3.153,3.153,0,0,0,.93-2.075,10.865,10.865,0,0,0,.066-1.781c0-.2.069-.268.26-.292,1.375-.173,2.749-.358,4.123-.533.553-.07,1.107-.118,1.66-.185.209-.024.28.032.279.26q-.012,4.768,0,9.537c0,.219-.061.272-.275.271q-2.666-.012-5.331,0c-.222,0-.3-.044-.292-.281C1261.064,1039.778,1261.052,1039.008,1261.052,1038.181Z" transform="translate(-1228.232 -1016.688)" fill="#010431"/>
      <path id="Path_74" data-name="Path 74" d="M1292.511,1031.964c0-.359.016-.625-.006-.889-.017-.214.071-.24.249-.216,1,.133,1.994.249,2.988.4,1.138.167,2.271.366,3.409.533.273.04.37.123.35.418a15.03,15.03,0,0,1-.689,4.2,7.062,7.062,0,0,1-3.993,4.067,9.166,9.166,0,0,1-3.461.722,16.387,16.387,0,0,1-4.144-.317,6.932,6.932,0,0,1-5.363-4.9,13.119,13.119,0,0,1-.543-2.817c-.018-.178.093-.17.2-.185q1.072-.153,2.142-.3c1.384-.192,2.77-.375,4.152-.579.2-.029.2.022.208.181a6.983,6.983,0,0,0,.222,1.929,1.953,1.953,0,0,0,1.573,1.6,2.052,2.052,0,0,0,2.543-1.856A9.592,9.592,0,0,0,1292.511,1031.964Z" transform="translate(-1223.516 -1016.674)" fill="#010431"/>
      <path id="Path_75" data-name="Path 75" d="M1298.091,1026.352c-.02,1.823.029,4.085-.018,6.347,0,.211-.039.272-.272.23-1.645-.3-3.3-.534-4.953-.762-.507-.07-1.016-.132-1.524-.178-.188-.017-.265-.056-.265-.27q.01-6.319,0-12.637c0-.2.061-.237.246-.235q3.269.01,6.539,0c.208,0,.255.052.254.256C1298.079,1021.366,1298.091,1023.641,1298.091,1026.352Z" transform="translate(-1222.066 -1018.46)" fill="#010431"/>
      <path id="Path_76" data-name="Path 76" d="M1271.532,1027.116a10.678,10.678,0,0,1,1.814-1.822,5.969,5.969,0,0,1,3.1-1.185,7.387,7.387,0,0,1,3.037.238,4.747,4.747,0,0,1,3.25,3.649,12.1,12.1,0,0,1,.271,2.032c.017.232-.032.316-.291.309-1.555-.044-3.112-.075-4.667-.047-.466.008-.933.024-1.4.038-.11,0-.217.013-.27-.123a2.151,2.151,0,0,0-2.986-.842,2.182,2.182,0,0,0-.918.917.369.369,0,0,1-.366.215c-1.3.07-2.611.141-3.915.231-.765.053-1.528.133-2.29.213-.214.022-.258-.052-.258-.254q.01-3.009,0-6.017c0-.2.056-.267.263-.265q2.693.01,5.385,0c.2,0,.241.07.24.253C1271.52,1025.451,1271.532,1026.243,1271.532,1027.116Z" transform="translate(-1225.845 -1017.685)" fill="#010431"/>
      <path id="Path_77" data-name="Path 77" d="M1297.433,1031.78c2.057.369,4.085.772,6.1,1.243.15.036.206.075.224.237a5,5,0,0,0,.458,1.763,2.8,2.8,0,0,0,2.727,1.674,2.751,2.751,0,0,0,2.572-1.855c.086-.209.162-.232.372-.171,1.767.511,3.517,1.074,5.263,1.655.223.075.169.157.089.3a8.106,8.106,0,0,1-5.641,4.142,12.114,12.114,0,0,1-6.156-.167,8.07,8.07,0,0,1-5.825-6.177A8.87,8.87,0,0,1,1297.433,1031.78Z" transform="translate(-1221.121 -1016.536)" fill="#010431"/>
      <path id="Path_78" data-name="Path 78" d="M1241.6,1040.875a18.416,18.416,0,0,1-5.087-.647,7.007,7.007,0,0,1-2.783-1.531c-.163-.153-.194-.219.06-.311q3.241-1.174,6.538-2.176a.807.807,0,0,1,.4-.014,4.247,4.247,0,0,0,2.949-.354,2.164,2.164,0,0,0,.689-.619.8.8,0,0,1,.484-.319q3.209-.85,6.443-1.593c.327-.075.339-.073.318.244a7.245,7.245,0,0,1-1.716,4.242,8.319,8.319,0,0,1-4.919,2.76,14.237,14.237,0,0,1-2.527.285C1242.17,1040.852,1241.883,1040.875,1241.6,1040.875Z" transform="translate(-1230.612 -1016.314)" fill="#010431"/>
      <path id="Path_79" data-name="Path 79" d="M1281.608,1035.5c0,1.713,0,3.424.006,5.137,0,.233-.069.285-.291.284q-2.884-.012-5.768,0c-.216,0-.273-.056-.273-.272q.01-4.3,0-8.6a5.89,5.89,0,0,0-.21-1.785c-.054-.171.025-.183.157-.183.376,0,.751-.006,1.126-.006q2.445.005,4.889.014c.361,0,.361.006.361.355C1281.608,1032.136,1281.608,1033.825,1281.608,1035.5Z" transform="translate(-1224.445 -1016.789)" fill="#010431"/>
      <path id="Path_80" data-name="Path 80" d="M1265.651,1035.813c0-1.612,0-3.223,0-4.835,0-.228.072-.294.293-.311,1.056-.078,2.109-.18,3.165-.262.647-.051,1.295-.082,1.943-.118.383-.022.766-.038,1.149-.06.139-.008.175.024.122.171a6.955,6.955,0,0,0-.349,2.4c0,2.592,0,5.183.006,7.773,0,.254-.045.338-.322.335q-2.829-.021-5.659,0c-.264,0-.354-.045-.35-.337C1265.662,1038.984,1265.651,1037.4,1265.651,1035.813Z" transform="translate(-1225.846 -1016.767)" fill="#010431"/>
      <path id="Path_81" data-name="Path 81" d="M1249.6,1029.07c0-1.474,0-2.949-.006-4.423,0-.23.063-.289.291-.289q2.885.014,5.769,0c.206,0,.283.038.283.268q-.014,3.846,0,7.692c0,.194-.05.257-.249.293q-2.96.528-5.9,1.172c-.235.052-.19-.086-.19-.208C1249.6,1032.068,1249.6,1030.563,1249.6,1029.07Z" transform="translate(-1228.233 -1017.64)" fill="#010431"/>
      <path id="Path_82" data-name="Path 82" d="M1259.2,1028.061c0-1.144.006-2.29,0-3.434,0-.219.063-.278.28-.277q2.885.012,5.768,0c.228,0,.269.076.268.281q-.01,3.062,0,6.125c0,.208-.052.278-.268.3-1.053.091-2.1.218-3.151.362-.885.122-1.771.227-2.656.353-.2.029-.244-.026-.241-.219Q1259.2,1029.815,1259.2,1028.061Z" transform="translate(-1226.805 -1017.642)" fill="#010431"/>
    </g>
  </g>
</svg>
