<svg xmlns="http://www.w3.org/2000/svg" width="138.747" height="37.452" viewBox="0 0 138.747 37.452">
  <g id="four" transform="translate(-1368.504 -935.274)">
    <g id="Group_21" data-name="Group 21" transform="translate(1368.504 935.274)">
      <path id="Path_56" data-name="Path 56" d="M1388.448,972.7a19.459,19.459,0,0,1-12.24-3.568,18.75,18.75,0,0,1-2.441-28.175,18.184,18.184,0,0,1,13.159-5.686,18.6,18.6,0,0,1,18.58,15.094.732.732,0,0,1-.153.586c-.239-.589-.48-1.177-.718-1.766a16.8,16.8,0,1,0-16.911,23.116,5.856,5.856,0,0,0,.685-.026C1388.419,972.423,1388.434,972.563,1388.448,972.7Z" transform="translate(-1368.504 -935.274)" fill="#010431"/>
      <path id="Path_57" data-name="Path 57" d="M1387.391,947.228c.429-1.95,1.749-2.307,3.513-2.076,1.092.143,2.431-.3,3.258.2.844.5.878,1.955,1.247,3,1.744,4.9,3.453,9.818,5.172,14.729.123.354.228.715.364,1.147-1.63,0-3.164-.052-4.692.021-.852.041-1.3-.217-1.38-1.073-.11-1.2-.718-1.638-1.958-1.511a27.918,27.918,0,0,1-3.909.016,1,1,0,0,0-1.2.869c-.451,1.69-.5,1.679-2.267,1.679h-3.905c.33-1.082.639-2.088.947-3.1,1.383-3.864,2.775-7.725,4.141-11.594a3.763,3.763,0,0,0,.486-1.822l-.034-.014c.389-.013.171-.314.229-.484Zm4.035,3.756-.256-.026c-.626,2.1-1.246,4.2-1.88,6.3-.154.508,0,.7.527.685.954-.02,1.91-.023,2.863,0,.559.016.735-.1.548-.715C1392.587,955.161,1392.021,953.068,1391.426,950.984Z" transform="translate(-1363.043 -931.193)" fill="#010431"/>
      <path id="Path_58" data-name="Path 58" d="M1460.657,954.749c1.232-1.436,2.3-2.632,3.308-3.876a1.645,1.645,0,0,1,1.468-.661c1.559.04,3.121.013,5,.013-1.592,1.587-2.949,3.019-4.4,4.35-.656.6-.607,1.01-.137,1.689,1.76,2.547,3.456,5.138,5.321,7.93-2.169,0-4.133.006-6.1,0-.371,0-.464-.354-.62-.606-.722-1.174-1.424-2.36-2.167-3.521-.207-.323-.309-.994-.767-.82a1.411,1.411,0,0,0-.98,1.294c0,.958-.024,1.918.007,2.876.018.583-.167.818-.784.8-1.3-.04-2.608-.044-3.911,0-.65.023-.746-.259-.745-.815q.021-8.741,0-17.486c0-.616.2-.789.793-.769,1.226.04,2.457.058,3.68-.006.766-.04.988.217.977.966-.038,2.53-.016,5.062-.011,7.592C1460.586,953.954,1460.628,954.211,1460.657,954.749Z" transform="translate(-1332.471 -931.175)" fill="#010431"/>
      <path id="Path_59" data-name="Path 59" d="M1448.073,962.867c-1.831,0-3.391.011-4.95-.007-.525-.006-.524-.041-1.025-1.4a7.813,7.813,0,0,1-5.593,1.914c-2.972-.116-4.61-1.839-4.473-4.78a3.276,3.276,0,0,1,2.135-3.119,18.746,18.746,0,0,1,5.154-1.076,6.615,6.615,0,0,0,2-.479,1.138,1.138,0,0,0,.742-1.286,1.059,1.059,0,0,0-1-.961c-1.15-.1-2.429-.486-3.092.988-.136.3-.4.3-.681.3-1.3,0-2.609-.033-3.913.01-.731.024-.728-.358-.613-.866a3.819,3.819,0,0,1,2.452-2.84,13.238,13.238,0,0,1,9.658-.03,3.576,3.576,0,0,1,2.437,3.663c-.014,2.417-.007,4.834,0,7.25A3.248,3.248,0,0,0,1448.073,962.867Zm-8.863-2.592c2.064-.013,3.191-1.325,2.908-3.227-.05-.336-.074-.6-.551-.435-.939.323-1.909.556-2.839.9-.745.275-1.43.692-1.194,1.675C1437.752,960.13,1438.545,960.221,1439.21,960.275Z" transform="translate(-1342.088 -929.842)" fill="#010431"/>
      <path id="Path_60" data-name="Path 60" d="M1416.5,960.34c-1.7,2.128-3.618,3.016-6.037,2.673a4.347,4.347,0,0,1-4.012-4.063c-.323-3.172-.129-6.361-.177-9.543-.008-.592.283-.688.783-.68,1.3.023,2.609.04,3.912-.006.656-.023.746.269.742.82-.023,2.263-.016,4.526-.007,6.79.007,1.8.544,2.55,1.86,2.649,1.392.1,2.309-.709,2.405-2.454.123-2.257.092-4.524.052-6.785-.014-.8.214-1.069,1.025-1.022,1.185.067,2.379.048,3.567,0,.615-.023.779.194.776.787q-.032,6.214,0,12.428c0,.6-.164.814-.777.784a19.488,19.488,0,0,0-2.874.009c-1.028.1-1.413-.245-1.242-1.257C1416.526,961.218,1416.5,960.949,1416.5,960.34Z" transform="translate(-1352.804 -929.685)" fill="#010431"/>
      <path id="Path_61" data-name="Path 61" d="M1407.561,954.031c-.422,0-.845-.023-1.266,0-.8.052-1.427.018-1.729-.984-.265-.879-1.145-1.012-2.008-.994a1.945,1.945,0,0,0-1.938,1.182,6.889,6.889,0,0,0-.011,5.268,1.951,1.951,0,0,0,2.049,1.192,1.916,1.916,0,0,0,2.063-1.322c.2-.749.622-.813,1.249-.8,1.189.034,2.381.05,3.568,0,.738-.034.81.244.673.874-.568,2.607-2.645,4.348-5.914,4.818a10.608,10.608,0,0,1-4.337-.249,7.008,7.008,0,0,1-5.24-7.654c.358-4.136,2.76-6.587,6.9-6.935a8.945,8.945,0,0,1,6.73,1.726,5.363,5.363,0,0,1,1.839,3.1c.15.66-.062.818-.67.786C1408.864,954,1408.213,954.03,1407.561,954.031Z" transform="translate(-1357.615 -929.826)" fill="#010431"/>
      <path id="Path_62" data-name="Path 62" d="M1456.369,954.034c-.384,0-.767,0-1.15,0-.827.007-1.606.153-1.913-1.049-.222-.868-1.188-.95-2.036-.923a1.942,1.942,0,0,0-1.9,1.24,7.187,7.187,0,0,0-.007,5.162,1.94,1.94,0,0,0,2.015,1.236,1.918,1.918,0,0,0,2.1-1.263c.227-.78.623-.889,1.311-.859a25.663,25.663,0,0,0,3.333-.008c1.018-.086,1.03.306.8,1.1a5.816,5.816,0,0,1-1.6,2.737c-2.788,2.632-8.8,2.643-11.573-.007-2.485-2.37-2.778-5.311-1.792-8.376.97-3.02,3.414-4.293,6.405-4.594a9.453,9.453,0,0,1,5.883,1.1,5.342,5.342,0,0,1,2.7,3.674c.119.59.051.865-.622.826C1457.672,954,1457.021,954.034,1456.369,954.034Z" transform="translate(-1337.344 -929.831)" fill="#010431"/>
      <path id="Path_63" data-name="Path 63" d="M1419.46,957.357c0-1.151-.041-2.305.016-3.453.035-.719-.214-1.015-.912-.886-1.007.185-1.287-.283-1.144-1.2a2.687,2.687,0,0,0,0-.8c-.123-.81.2-1.145,1.007-1,.908.167,1.119-.268,1.05-1.092-.067-.8.013-1.611-.024-2.415-.027-.6.094-.916.806-.885,1.264.055,2.533.048,3.8,0,.644-.023.773.246.75.811-.035.92.03,1.843-.023,2.762-.038.661.191.847.838.838.582-.007,1.47-.339,1.7.208a5.711,5.711,0,0,1,.106,2.379c-.032.606-.578.365-.909.377-1.717.055-1.719.045-1.719,1.787,0,1.228-.006,2.456,0,3.684.007,1.412.338,1.821,1.744,1.808.837-.007,1,.276,1,1.051-.014,2.891.013,2.887-2.919,2.894a12.32,12.32,0,0,1-2.519-.18,2.829,2.829,0,0,1-2.59-2.9c-.075-1.261-.014-2.532-.014-3.8A.309.309,0,0,1,1419.46,957.357Z" transform="translate(-1348.177 -930.97)" fill="#010431"/>
      <path id="Path_64" data-name="Path 64" d="M1430.254,951.34a3.97,3.97,0,0,1,3.913-2.843c.51,0,.8.017.787.627-.025,1.341-.018,2.683,0,4.024.006.477-.125.68-.661.651a6.5,6.5,0,0,0-1.822.133c-1.3.306-2,1.375-2.044,3.086-.038,1.647-.034,3.3,0,4.944.014.643-.171.878-.837.854-1.263-.047-2.53-.044-3.793,0-.629.021-.769-.232-.766-.806q.027-6.21,0-12.418c0-.607.2-.8.794-.777,1.033.04,2.073.058,3.1,0,.777-.047,1.144.156,1.039,1a11.535,11.535,0,0,0-.011,1.434Z" transform="translate(-1344.997 -929.776)" fill="#010431"/>
      <path id="Path_65" data-name="Path 65" d="M1396.929,946.354a1.822,1.822,0,0,1-1.96-.418c-3.7-2.706-7.667-3.215-11.788-1.143a10.491,10.491,0,0,0-6.134,10.135c.082,4.577,2.417,7.883,6.516,9.932.28.14.851.133.7.569-.16.471-.656.2-1,.1-8.159-2.25-11.562-12.811-6.25-19.391A12.387,12.387,0,0,1,1395.5,944.7,17.861,17.861,0,0,1,1396.929,946.354Z" transform="translate(-1366.026 -932.799)" fill="#010431"/>
      <path id="Path_66" data-name="Path 66" d="M1388.264,947.408a6.732,6.732,0,0,0-5.1,11.9c.3.269.571.517.446.967-3.149-1-5.1-4.8-4.362-8.488.745-3.717,4.811-6.543,8.375-5.889.7.128.915.394.827,1.031l.011-.02c-.255.077-.265.269-.229.484Z" transform="translate(-1364.101 -930.895)" fill="#010431"/>
      <path id="Path_67" data-name="Path 67" d="M1382.6,961.835c-.013-.14-.025-.282-.04-.422h2.18A4.364,4.364,0,0,1,1382.6,961.835Z" transform="translate(-1362.657 -924.405)" fill="#010431"/>
    </g>
  </g>
</svg>
