<svg xmlns="http://www.w3.org/2000/svg" width="142.624" height="25.571" viewBox="0 0 142.624 25.571">
  <g id="one" transform="translate(-1231.001 -863.214)">
    <g id="Group_18" data-name="Group 18" transform="translate(1231.001 863.214)">
      <path id="Path_31" data-name="Path 31" d="M1243.863,864.525c1.624,0,3.116-.017,4.608,0,2.452.035,4.906.154,7.356.128,3.114-.032,5.734,3.209,5.505,6.325a5.505,5.505,0,0,1-3.144,4.987c2.449,1.116,2.566,3.234,2.531,5.42a12.047,12.047,0,0,0,.031,2.062,13.993,13.993,0,0,0,.61,1.976,1.8,1.8,0,0,1,.19.726c-.017.109-.387.227-.6.23-1.286.018-2.574.031-3.859-.025a.871.871,0,0,1-.626-.541c-.182-.99-.3-2-.386-3-.086-.979-.051-1.973-.176-2.947a2.308,2.308,0,0,0-2.378-2.069c-1.437-.039-2.874,0-4.311-.02-.53-.007-.76.183-.757.731.012,2.333-.026,4.666.017,7,.012.637-.173.873-.786.867-1.046-.012-2.094-.015-3.139.017-.5.015-.713-.15-.7-.662.023-.748.006-1.5.006-2.244V865.617C1243.863,865.292,1243.863,864.966,1243.863,864.525Zm4.614,3.75c0,1.944-.015,3.672.022,5.4,0,.176.306.5.463.5,1.934-.035,3.878-.015,5.8-.223,1.343-.146,1.841-.96,1.871-2.392.037-1.675-.479-2.771-1.746-2.925C1252.827,868.377,1250.732,868.385,1248.476,868.275Z" transform="translate(-1225.149 -862.62)" fill="#010431"/>
      <path id="Path_32" data-name="Path 32" d="M1291.906,871.294h-4.456a3.281,3.281,0,0,0-2.432-2.992,5.645,5.645,0,0,0-4.84.451,1.962,1.962,0,0,0,.262,3.613,44.363,44.363,0,0,0,4.819,1.352c1.123.3,2.266.546,3.37.907,3.6,1.18,4.538,4.242,3.739,7.374a6.332,6.332,0,0,1-4.52,4.575,13.119,13.119,0,0,1-9.634-.5,6.224,6.224,0,0,1-3.7-6.2h4.318a.121.121,0,0,1,.076.07c.646,2.494,1.66,3.344,4.238,3.33a14.174,14.174,0,0,0,3.261-.413,2.221,2.221,0,0,0,1.681-2.2,2,2,0,0,0-1.512-2,11.785,11.785,0,0,0-1.265-.447c-1.968-.493-3.95-.939-5.913-1.449-2.743-.715-4.343-2.387-4.545-4.674-.3-3.373.835-5.837,3.545-6.982,3.939-1.665,7.825-1.569,11.331,1.157A6.173,6.173,0,0,1,1291.906,871.294Z" transform="translate(-1211.197 -862.853)" fill="#010431"/>
      <path id="Path_33" data-name="Path 33" d="M1316.52,879.842h4.37c.639,2.973,2.292,3.484,4.83,3.475a9.578,9.578,0,0,0,2.637-.393,2.361,2.361,0,0,0,1.8-2.3c.02-1.038-.4-1.671-1.733-2.077-1.854-.563-3.756-.965-5.632-1.452-.72-.188-1.437-.4-2.142-.64-3.087-1.041-4.1-3.547-3.712-6.451a6.152,6.152,0,0,1,4.894-5.441c3.164-.828,6.3-.761,9.162,1.084a6.267,6.267,0,0,1,2.925,5.657c-1.39,0-2.727.017-4.062-.025-.15,0-.371-.335-.419-.546a3.164,3.164,0,0,0-2.331-2.475,6.157,6.157,0,0,0-4.543.236,2.2,2.2,0,0,0-1.394,2.12,1.981,1.981,0,0,0,1.608,1.927c2.219.6,4.459,1.109,6.678,1.7a6.91,6.91,0,0,1,4.178,2.417,6.511,6.511,0,0,1-3.189,9.656,12.49,12.49,0,0,1-10.114-.287A6.359,6.359,0,0,1,1316.52,879.842Z" transform="translate(-1192.065 -862.831)" fill="#010431"/>
      <path id="Path_34" data-name="Path 34" d="M1304.551,864.539h15.912V868.4h-11.348v4.562h10.42v3.894H1309.1v5.457h11.961c0,1.289.021,2.5-.032,3.713-.006.122-.445.32-.687.324-1.678.029-3.356.016-5.034.016h-10.755C1304.551,879.074,1304.551,871.871,1304.551,864.539Z" transform="translate(-1197.515 -862.611)" fill="#010431"/>
      <path id="Path_35" data-name="Path 35" d="M1235.656,878.483c0,2.477-.044,4.66.022,6.841.028.9-.29,1.135-1.128,1.073a26.113,26.113,0,0,0-2.782-.017c-.522.016-.783-.134-.766-.7.022-.716,0-1.433,0-2.151q.007-9.116.016-18.233c0-.262.031-.524.039-.655,3.765,0,7.484-.228,11.164.067,3.385.272,5.022,2.27,5.271,5.581a17.038,17.038,0,0,1-.435,4.417c-.377,1.959-1.9,2.93-3.657,3.36a22.311,22.311,0,0,1-4.159.4C1238.072,878.529,1236.908,878.483,1235.656,878.483Zm0-6.953c0,.808-.029,1.617.019,2.42.015.24.233.661.38.669,1.778.114,3.6.39,5.3-.31a2.494,2.494,0,0,0,1.54-2.572c-.032-2.446-.851-3.324-3.314-3.349-1.048-.01-2.1.029-3.144,0-.6-.018-.795.266-.787.808Q1235.658,870.365,1235.656,871.529Z" transform="translate(-1231.001 -862.601)" fill="#010431"/>
      <path id="Path_36" data-name="Path 36" d="M1309.129,864.537v3.887h-6.463v17.887h-4.657V868.468h-6.427v-3.931Z" transform="translate(-1203.419 -862.611)" fill="#010431"/>
      <path id="Path_37" data-name="Path 37" d="M1287.78,864.542h4.477v21.81c-1.334,0-2.7.029-4.06-.041-.151-.007-.389-.581-.392-.892-.031-3.324-.023-6.649-.025-9.974q0-4.9,0-9.794Z" transform="translate(-1205.151 -862.609)" fill="#010431"/>
      <path id="Path_38" data-name="Path 38" d="M1281.708,875.939a12.752,12.752,0,1,1-12.722-12.725A12.683,12.683,0,0,1,1281.708,875.939Zm-.655-.019a12.093,12.093,0,1,0-11.983,12.265A12.093,12.093,0,0,0,1281.054,875.92Z" transform="translate(-1219.525 -863.214)" fill="#010431"/>
      <path id="Path_39" data-name="Path 39" d="M1257.2,875.3a11.375,11.375,0,1,1,10.366,11.628C1262.1,886.546,1256.818,881.6,1257.2,875.3Zm12.05-.179c-.036-.13-.071-.259-.108-.387l4.072-3.456c-.029-.077-.057-.154-.086-.231-.371-.026-.742-.07-1.115-.071a8.064,8.064,0,0,1-.889.063,2.754,2.754,0,0,1-.706-.288,2.678,2.678,0,0,1,.384-.6c.816-.739,1.658-1.449,2.483-2.179.378-.335.742-.688,1.3-1.2-2.394.012-4.5-.32-6.6.141a.748.748,0,0,0,.332.355c.926.476.95.576.214,1.284-.623.6-1.273,1.172-1.908,1.76q-1.354,1.251-2.7,2.507c.026.082.052.163.08.245h2.513c.05.1.1.207.147.31q-2.008,1.823-4.018,3.643c.036.076.073.151.108.227h4.351c-1.429,2.183-2.72,4.158-4.011,6.131l.218.17,8.788-8.1c-.042-.109-.086-.217-.128-.325Z" transform="translate(-1219.083 -862.781)" fill="#010431"/>
    </g>
  </g>
</svg>
