<svg xmlns="http://www.w3.org/2000/svg" width="113.086" height="37.469" viewBox="0 0 113.086 37.469">
  <g id="three" transform="translate(-1231.004 -932.265)">
    <g id="Group_20" data-name="Group 20" transform="translate(1231.004 932.265)">
      <path id="Path_47" data-name="Path 47" d="M1313.893,955.083c-.11-.622-.225-1.242-.329-1.865a21.054,21.054,0,0,0-4.846-10.459,22.345,22.345,0,0,0-7.776-5.957,21.357,21.357,0,0,0-9.9-1.993,22.263,22.263,0,0,0-8.378,2.033,20.709,20.709,0,0,0-8.817,7.428c-.275.412-.569.37-.965.216a18,18,0,0,0-5.8-1.349,18.359,18.359,0,0,0-6.273.825,16.778,16.778,0,0,0-5.546,2.887,12.354,12.354,0,0,0-4.654,6.612c-.177.7-.217.687-1.112.664.521-1.123.938-2.214,1.51-3.215a21.771,21.771,0,0,1,3.814-5.164,18.455,18.455,0,0,1,7.683-4.474,17.686,17.686,0,0,1,6.986-.537,28,28,0,0,1,4.412,1.093.871.871,0,0,0,1.161-.349,22.134,22.134,0,0,1,14.118-8.838,21.7,21.7,0,0,1,14.186,2.136,22.712,22.712,0,0,1,7.532,6.3c.139.175.286.344.306.368a18.152,18.152,0,0,1,23.252,12.016c-.729,0-1.421.035-2.1-.024-.168-.015-.35-.312-.46-.515a19.1,19.1,0,0,0-6.33-6.975,18.069,18.069,0,0,0-11.629-2.876c-.47.036-.936.124-1.526.2,1.764,3.764,1.679,7.779,1.693,11.782Z" transform="translate(-1228.156 -932.265)" fill="#010431"/>
      <path id="Path_48" data-name="Path 48" d="M1317.707,960.315a5.737,5.737,0,0,1-1.279,4.126,5.813,5.813,0,0,1-10.3-3.929c.007-2.031.013-4.063-.02-6.094-.009-.55.14-.771.714-.742,1.663.082,1.637-.369,1.611,1.58-.025,1.88-.065,3.768.07,5.64a3.438,3.438,0,0,0,6.233,1.871,4.926,4.926,0,0,0,.7-2.3c.1-2,.052-4.011.024-6.017-.008-.592.184-.824.779-.77.442.04.891.008,1.478.008,0,.71,0,1.346,0,1.981,0,1.078-.024,2.157,0,3.233,0,.175.2.347.313.522.114-.157.3-.3.332-.474a6.8,6.8,0,0,1,4.492-5.46,6.214,6.214,0,0,1,4.968.1c.7.31,1.35.72,2.13,1.141a6.056,6.056,0,0,0,.125-.833c.009-1.479.016-2.96-.01-4.438-.01-.6.238-.817.81-.729a2.833,2.833,0,0,0,.522.045c.988-.037,1.125.076,1.117,1.043-.025,3.431-.051,6.863-.1,10.294a7.067,7.067,0,0,1-14.108.591c-.007-.187-.232-.365-.354-.547C1317.88,960.206,1317.788,960.26,1317.707,960.315Zm7.674,4.508a4.708,4.708,0,0,0,4.7-4.788,4.832,4.832,0,0,0-4.693-4.7,4.763,4.763,0,0,0-4.785,4.833A4.714,4.714,0,0,0,1325.381,964.822Z" transform="translate(-1219.438 -929.732)" fill="#010431"/>
      <path id="Path_49" data-name="Path 49" d="M1292.989,948.743v10.644l.279.081a2.422,2.422,0,0,0,.266-.66,6.022,6.022,0,0,1,1.814-3.6,7.074,7.074,0,0,1,8.01-1.537,7.084,7.084,0,0,1,.057,12.846,6.962,6.962,0,0,1-8.677-2.238,14.043,14.043,0,0,1-1.123-2.337,2.683,2.683,0,0,0-.411-.493l-.168.118c0,1.294-.047,2.588.016,3.879.044.912-.069,1.119-.976,1.125-1.327.009-1.331.009-1.331-1.328q0-7.826,0-15.65c0-.93.034-.946.99-.855C1292.1,948.773,1292.47,948.743,1292.989,948.743Zm7.42,16.081a4.738,4.738,0,1,0,.059-9.477,4.738,4.738,0,0,0-.059,9.477Z" transform="translate(-1221.804 -929.734)" fill="#010431"/>
      <path id="Path_50" data-name="Path 50" d="M1292.037,961.868c-.748,2.816-4.96,5.708-9.127,5.357a9.524,9.524,0,0,1-.977-18.857c4.706-.857,9.044,2.2,10.107,5.1a2.754,2.754,0,0,1-3.214-.61,6.8,6.8,0,0,0-7.165-2.022,7.185,7.185,0,0,0,.754,13.981,6.545,6.545,0,0,0,6.324-2.112C1289.775,961.507,1290.837,961.766,1292.037,961.868Z" transform="translate(-1224.36 -929.807)" fill="#010431"/>
      <path id="Path_51" data-name="Path 51" d="M1248.875,961.858a9.249,9.249,0,0,1-9.12,5.32,9.593,9.593,0,0,1-8.751-9.224,9.478,9.478,0,0,1,7.564-9.484,9.124,9.124,0,0,1,10.313,5.113c-1.21,0-2.294.333-3.326-.849a6.555,6.555,0,0,0-7.51-1.794,7.193,7.193,0,1,0,7.95,11.4,1.537,1.537,0,0,1,.93-.457A17.419,17.419,0,0,1,1248.875,961.858Z" transform="translate(-1231.004 -929.798)" fill="#010431"/>
      <path id="Path_52" data-name="Path 52" d="M1247.31,959.526a7.017,7.017,0,1,1,7.028,7.043A6.917,6.917,0,0,1,1247.31,959.526Zm7,4.734a4.767,4.767,0,1,0-.026-9.533,4.833,4.833,0,0,0-4.757,4.8A4.766,4.766,0,0,0,1254.315,964.26Z" transform="translate(-1228.493 -929.148)" fill="#010431"/>
      <path id="Path_53" data-name="Path 53" d="M1265.557,965.894h-2.166c-.017-.254-.042-.448-.042-.642,0-3.786.009-7.573-.021-11.359,0-.647.207-.842.823-.772.541.062,1.166-.241,1.564.471a5.83,5.83,0,0,1,4.569-.968,5.665,5.665,0,0,1,4.576,5.074c.135,2.65.037,5.311.039,7.966a1.02,1.02,0,0,1-.082.225h-2.108c-.044-.582-.107-1.145-.124-1.709-.06-2.076-.066-4.153-.166-6.227a3.125,3.125,0,0,0-2.258-3,3.285,3.285,0,0,0-3.741,1.183,3.579,3.579,0,0,0-.877,2.4c.05,2.18.016,4.362.016,6.544C1265.557,965.329,1265.557,965.576,1265.557,965.894Z" transform="translate(-1226.026 -929.148)" fill="#010431"/>
      <path id="Path_54" data-name="Path 54" d="M1262.529,959.552c0,1.9-.011,3.806.007,5.709,0,.449-.133.629-.6.629-1.633,0-1.6.01-1.6-1.612,0-3.128-.035-6.258-.051-9.386,0-.172.044-.344.054-.517.08-1.37.36-1.576,1.748-1.341.584.1.426.556.429.884C1262.541,955.795,1262.529,957.673,1262.529,959.552Z" transform="translate(-1226.494 -929.079)" fill="#010431"/>
      <path id="Path_55" data-name="Path 55" d="M1259.96,950.337a1.554,1.554,0,1,1,3.108.007,1.555,1.555,0,0,1-1.5,1.61A1.462,1.462,0,0,1,1259.96,950.337Z" transform="translate(-1226.545 -929.722)" fill="#010431"/>
    </g>
  </g>
</svg>
