<svg xmlns="http://www.w3.org/2000/svg" width="98.004" height="37.066" viewBox="0 0 98.004 37.066">
  <g id="two" transform="translate(-1368.497 -853.467)">
    <g id="Group_19" data-name="Group 19">
      <path id="Path_40" data-name="Path 40" d="M1446.88,867.033a54.528,54.528,0,0,1,.3-5.743,2.4,2.4,0,0,0-1.426-2.619c-.84-.4-.839-1.2-.15-1.933.885-.936,2.2-1.309,3-2.339.049-.063.113-.113.168-.171,1.146-1.181,1.655-1.014,2.177.684a15.231,15.231,0,0,1,.356,8.259c-.5,2.033.006,2.618,2.092,2.326a21.764,21.764,0,0,1,10.464,1.254c.758.269,1.335.839,2.12,1.067a.658.658,0,0,1,.282,1.155,2.978,2.978,0,0,0-.73,2.086,41.057,41.057,0,0,1-2.431,11.772c-.319.88-.73,1.778-2,1.705-.873-.05-1.005-.351-.514-.98a6.613,6.613,0,0,0,1.181-4.994,6.883,6.883,0,0,0-3.455-5.4,4.46,4.46,0,0,0-5.441,1.049,7.862,7.862,0,0,0-1.539,8.047,7.031,7.031,0,0,0,.881,1.551c.346.532.171.631-.394.7a1.761,1.761,0,0,1-2.095-1.32A48.329,48.329,0,0,1,1446.88,867.033Z" fill="#010431"/>
      <path id="Path_41" data-name="Path 41" d="M1390.04,880.135c0-2.956-.022-5.913.02-8.868.008-.554-.333-1.511.62-1.525.81-.011,2.034-.655,2.355.855.118.554.416.426.794.254.693-.315,1.193-.905,1.934-1.176a5.283,5.283,0,0,1,6.88,3.169,11.022,11.022,0,0,1-.183,8.484,5.71,5.71,0,0,1-8.11,2.673c-.226-.149-.433-.429-.734-.314-.4.151-.256.538-.255.837,0,1.558-.013,3.117.039,4.674.029.888-.207,1.394-1.207,1.259a3.055,3.055,0,0,0-.835.048c-1.095.164-1.446-.4-1.378-1.384C1390.18,886.127,1390.04,883.13,1390.04,880.135Zm3.32-2.677h-.006c0,.878,0,1.756,0,2.633a1.319,1.319,0,0,0,.325.991c1.595,1.659,4.883,1.042,5.595-1.1a8.489,8.489,0,0,0,.178-5.621,2.728,2.728,0,0,0-3.355-2.108,3.012,3.012,0,0,0-2.733,2.929C1393.35,875.942,1393.36,876.7,1393.36,877.458Z" fill="#010431"/>
      <path id="Path_42" data-name="Path 42" d="M1442.69,879.2c0,1.436-.013,2.872.007,4.308.007.517.015,1.055-.676.971-.736-.089-1.777.576-2.13-.6-.279-.932-.625-.835-1.23-.325a5.534,5.534,0,0,1-3.888,1.25,3.77,3.77,0,0,1-3.932-3.149,4.237,4.237,0,0,1,1.995-4.8,10.556,10.556,0,0,1,4.615-1.486c.693-.054,1.648.213,1.72-.961a2.046,2.046,0,0,0-1.832-2.148,5.44,5.44,0,0,0-3.9.8c-.682.485-1.061.339-1.468-.4-.684-1.239-.671-1.295.595-2.032a8.8,8.8,0,0,1,6.083-1.208,4.561,4.561,0,0,1,3.806,4.052A35.145,35.145,0,0,1,1442.69,879.2Zm-3.43-.54c.033-1.4-.042-1.531-.934-1.386a9.344,9.344,0,0,0-3.616,1.421c-.805.527-.7,1.429-.593,2.283.1.818.7,1.023,1.348,1.1C1437.77,882.349,1439.29,881.494,1439.26,878.661Z" fill="#010431"/>
      <path id="Path_43" data-name="Path 43" d="M1380.61,878.834c0,1.516.006,3.032,0,4.548,0,.607-.135,1.167-.921,1.081-.686-.075-1.66.6-1.912-.713-.187-.97-.749-.642-1.183-.238a5.582,5.582,0,0,1-4.46,1.248,4,4,0,0,1-3.6-3.678,4.493,4.493,0,0,1,2.456-4.391,12.645,12.645,0,0,1,5.127-1.371c1.048-.064,1.268-.567.8-1.53-.805-1.656-3.1-2.146-4.992-1.066-.068.039-.119.108-.187.149a1.522,1.522,0,0,1-2.368-1.3.568.568,0,0,1,.333-.574c2.243-1.2,4.522-2.167,7.161-1.421a4.752,4.752,0,0,1,3.615,4.241A26.105,26.105,0,0,1,1380.61,878.834Zm-3.35.2a6.371,6.371,0,0,1,0-.718c.118-1.019-.314-1.274-1.26-1.005a13.06,13.06,0,0,0-3.306,1.331,1.955,1.955,0,0,0-.8,1.988,1.414,1.414,0,0,0,1.114,1.366A3.068,3.068,0,0,0,1377.26,879.036Z" fill="#010431"/>
      <path id="Path_44" data-name="Path 44" d="M1416.45,879.115c0,1.517-.024,3.034.012,4.55.014.626-.221.929-.825.828-.8-.135-1.96.61-2.169-1.041-.076-.6-.759-.109-1.051.127a5.736,5.736,0,0,1-4.259,1.192,4.13,4.13,0,0,1-3.076-6.4c1.035-1.641,2.684-2.143,4.319-2.71a14.652,14.652,0,0,1,1.888-.283c.665-.134,1.666.246,1.715-.959a2.21,2.21,0,0,0-1.865-2.165,5.421,5.421,0,0,0-4,.844c-.626.471-1.012.432-1.29-.229-.268-.638-1.031-1.441-.046-1.972a10.324,10.324,0,0,1,4.82-1.588c3-.027,5.65,1.425,5.741,5.26.036,1.515.006,3.032.006,4.548Zm-3.38-.045a6.811,6.811,0,0,1,0-.715c.107-.991-.315-1.3-1.259-1.043a12.305,12.305,0,0,0-2.981,1.169,2.026,2.026,0,0,0-1.066,2.2,1.679,1.679,0,0,0,1.523,1.442A3.011,3.011,0,0,0,1413.07,879.07Z" fill="#010431"/>
      <path id="Path_45" data-name="Path 45" d="M1425.15,884.793c-4.048.029-6.4-2.609-6.816-6.683a7.707,7.707,0,0,1,2.162-6.672c2.086-1.995,5.921-3.161,8.712-.924.6.483.654.923.163,1.35-.476.414-.616,1.541-1.7.91a3.591,3.591,0,0,0-5.478,2.2,7.219,7.219,0,0,0-.181,3.76c.825,3.559,3.557,3.9,5.921,2.727.924-.459,1.264-.053,1.6.536s.533,1.215-.3,1.733A7.03,7.03,0,0,1,1425.15,884.793Z" fill="#010431"/>
      <path id="Path_46" data-name="Path 46" d="M1383.43,872.936c0-2.837.027-5.674-.016-8.51-.014-.887.284-1.176,1.17-1.191,2.318-.04,2.275-.079,2.262,2.238-.028,5.114-.007,10.227-.016,15.341a1.057,1.057,0,0,0,.8,1.227c.887.324.77,1.32.742,2.081-.03.8-.779.686-1.3.692-2.292.025-3.413-.492-3.556-3.251-.149-2.868-.033-5.751-.033-8.627Z" fill="#010431"/>
    </g>
  </g>
</svg>
