<svg xmlns="http://www.w3.org/2000/svg" width="59.45" height="58.45" viewBox="0 0 59.45 58.45">
  <g id="_1" data-name="1" transform="translate(0 0)">
    <path id="Path_3369" data-name="Path 3369" d="M33.574,30.585c-.074-.308,9.417,3.185,9.66,3.22l2.12-2.12a1.992,1.992,0,0,0,0-2.82l-14.18-14.18a1.992,1.992,0,0,0-2.82,0l-14.18,14.18a1.992,1.992,0,0,0,0,2.82l14.18,14.18a1.992,1.992,0,0,0,2.82,0l3.12-3.12-3.08-8.84a2.521,2.521,0,0,1,2.36-3.32Z" transform="translate(-2.264 -2.775)" fill="#616161"/>
    <path id="Path_3370" data-name="Path 3370" d="M7.264,52.775v3.5a1.5,1.5,0,1,0,3,0v-3.5h27.52l-1.05-3H10.264v-39h39v25.13l3,1.04V10.775h3.5a1.5,1.5,0,1,0,0-3h-3.5v-3.5a1.5,1.5,0,1,0-3,0v3.5h-39v-3.5a1.5,1.5,0,0,0-3,0v3.5h-3.5a1.5,1.5,0,1,0,0,3h3.5v39h-3.5a1.5,1.5,0,1,0,0,3Z" transform="translate(-2.264 -2.775)" fill="#616161"/>
    <path id="Path_3371" data-name="Path 3371" d="M33.1,33.252l9.617,27.637a.5.5,0,0,0,.947-.006l4.347-13.041a.5.5,0,0,1,.316-.316l13.041-4.347a.5.5,0,0,0,.006-.947L33.741,32.615a.5.5,0,0,0-.637.637Z" transform="translate(-2.264 -2.775)" fill="#616161"/>
  </g>
</svg>
