<svg id="_2" data-name="2" xmlns="http://www.w3.org/2000/svg" width="58.003" height="54.4" viewBox="0 0 58.003 54.4">
  <path id="Path_3376" data-name="Path 3376" d="M14.43,50.98,4.71,60.71a1,1,0,0,1-1.42-1.42l9.73-9.72c-.01.2-.02.33-.02.38a1.024,1.024,0,0,0,.29.76A1.007,1.007,0,0,0,14,51h.05C14.1,51,14.23,50.99,14.43,50.98Z" transform="translate(-2.998 -6.6)" fill="#616161"/>
  <path id="Path_3377" data-name="Path 3377" d="M36,30.93a.981.981,0,0,0,.47.91l7.51,4.76c-9.09,8.68-21.74,11.33-27.26,12.1L32.71,32.71a1,1,0,0,0-1.42-1.42L15.3,47.28c.78-5.64,3.54-18.7,12.66-27.82C38.11,9.3,53.16,7.04,57.4,6.6a58.652,58.652,0,0,1-4.05,15.89l-16.76,7.6A1,1,0,0,0,36,30.93Z" transform="translate(-2.998 -6.6)" fill="#616161"/>
  <path id="Path_3378" data-name="Path 3378" d="M60.6,59.2l-4.038-3.028a7.5,7.5,0,0,0-9.084.079L46.9,56.7a5.493,5.493,0,0,1-7.246-.451,7.5,7.5,0,0,0-7.92-1.716l-12.09,4.534A1,1,0,0,0,20,61a1.029,1.029,0,0,0,.351-.063L32.441,56.4a5.5,5.5,0,0,1,5.8,1.257,7.5,7.5,0,0,0,9.887.616l.573-.445a5.5,5.5,0,0,1,6.657-.059L59.4,60.8a1,1,0,0,0,1.2-1.6Z" transform="translate(-2.998 -6.6)" fill="#616161"/>
</svg>
