<svg id="_3" data-name="3" xmlns="http://www.w3.org/2000/svg" width="58" height="61.156" viewBox="0 0 58 61.156">
  <circle id="Ellipse_21" data-name="Ellipse 21" cx="0.59" cy="0.59" r="0.59" transform="translate(28.41 11.516)" fill="#616161"/>
  <path id="Path_3360" data-name="Path 3360" d="M24.46,37.34a1,1,0,0,0,2,0,5.46,5.46,0,0,1,2-4.29,29,29,0,0,0,2.86,2.88,1,1,0,0,0,1.29,0,29,29,0,0,0,2.86-2.88,5.46,5.46,0,0,1,2,4.29,1,1,0,1,0,2,0,7.54,7.54,0,0,0-2.78-5.83c2.4-3.12,5-7.62,5-12.71C41.73,9.4,33,2,32.64,1.67a1,1,0,0,0-1.29,0C31,2,22.27,9.4,22.27,18.8c0,5.09,2.56,9.6,5,12.71A7.54,7.54,0,0,0,24.46,37.34ZM32,11a2.59,2.59,0,1,1-2.59,2.59A2.59,2.59,0,0,1,32,11Z" transform="translate(-3 -1.434)" fill="#616161"/>
  <path id="Path_3361" data-name="Path 3361" d="M31,39.41v3.65a1,1,0,0,0,2,0V39.41a1,1,0,0,0-2,0Z" transform="translate(-3 -1.434)" fill="#616161"/>
  <path id="Path_3362" data-name="Path 3362" d="M36.76,41.58a1,1,0,0,0-1,1v3.65a1,1,0,1,0,2,0V42.58A1,1,0,0,0,36.76,41.58Z" transform="translate(-3 -1.434)" fill="#616161"/>
  <path id="Path_3363" data-name="Path 3363" d="M27.24,41.58a1,1,0,0,0-1,1v3.65a1,1,0,0,0,2,0V42.58A1,1,0,0,0,27.24,41.58Z" transform="translate(-3 -1.434)" fill="#616161"/>
  <path id="Path_3364" data-name="Path 3364" d="M60,27.7H54a22.11,22.11,0,0,0-2.3-5.57l4.22-4.22a1,1,0,0,0,0-1.41L49.07,9.62a1,1,0,0,0-1.41,0L42.9,14.38h0a3.266,3.266,0,0,0-.21.33,1,1,0,0,0,0,.13,1,1,0,0,0,0,.25h0l.14,4.69h0a1,1,0,0,0,0,.2.5.5,0,0,0,.14.3,1,1,0,0,0,.14.18h0a17.12,17.12,0,1,1-22.19,0h0a1,1,0,0,0,.14-.18.5.5,0,0,0,.14-.3,1,1,0,0,0,0-.2h0l.14-4.69h0a1,1,0,0,0,0-.25,1,1,0,0,0,0-.13,3.265,3.265,0,0,0-.21-.33h0L16.35,9.62a1,1,0,0,0-1.41,0L8.05,16.5a1,1,0,0,0,0,1.41l4.22,4.22A22.11,22.11,0,0,0,10,27.7H4a1,1,0,0,0-1,1v9.73a1,1,0,0,0,1,1h6A22.11,22.11,0,0,0,12.27,45L8.05,49.22a1,1,0,0,0,0,1.41l6.88,6.88a1,1,0,0,0,1.41,0l4.22-4.22a22.11,22.11,0,0,0,5.57,2.3v6a1,1,0,0,0,1,1h9.73a1,1,0,0,0,1-1v-6a22.11,22.11,0,0,0,5.57-2.3l4.22,4.22a1,1,0,0,0,1.41,0l6.88-6.88a1,1,0,0,0,0-1.41L51.73,45A22.11,22.11,0,0,0,54,39.43h6a1,1,0,0,0,1-1V28.7A1,1,0,0,0,60,27.7Z" transform="translate(-3 -1.434)" fill="#616161"/>
</svg>
