<svg id="_4" data-name="4" xmlns="http://www.w3.org/2000/svg" width="77.714" height="54.4" viewBox="0 0 77.714 54.4">
  <path id="Path_3365" data-name="Path 3365" d="M69.943,31.366C68.777,19.709,58.674,10.771,46.629,10.771a22.742,22.742,0,0,0-5.051.777A13.116,13.116,0,0,0,29.143,3a13.768,13.768,0,0,0-13.6,13.6A10.119,10.119,0,0,0,17.1,22.429,17.488,17.488,0,0,0,17.486,57.4H64.114a13.69,13.69,0,0,0,5.829-26.034ZM32.251,49.629a3.886,3.886,0,1,1,0-7.771,3.671,3.671,0,0,1,3.886,3.886A3.894,3.894,0,0,1,32.251,49.629Zm15.543,0a3.886,3.886,0,1,1,3.886-3.886A3.894,3.894,0,0,1,47.794,49.629Zm8.16-24.869-2.72,11.657a2.582,2.582,0,0,1-1.943,1.554H28.754a2.582,2.582,0,0,1-1.943-1.554L23.7,24.76a2.176,2.176,0,0,1,1.943-2.331H54.011A1.786,1.786,0,0,1,55.954,24.76Z" transform="translate(0 -3)" fill="#616161"/>
</svg>
