<svg xmlns="http://www.w3.org/2000/svg" width="52.031" height="59.992" viewBox="0 0 52.031 59.992">
  <path id="_5" data-name="5" d="M11,61.24A1,1,0,0,0,12,62H52a1,1,0,0,0,1-.76l5-20A.993.993,0,0,0,57,40H55.89a4.69,4.69,0,0,0-4.63-4H38V34.39a11.92,11.92,0,0,0,5.64-7.45,4,4,0,0,0,.36-7.8V17.83A3,3,0,0,0,46,15a8.88,8.88,0,0,0-8.74-9H28.08a8.54,8.54,0,0,1-5.41-2L20.48,2.23a1,1,0,0,0-1.62.67l-.75,7.77a21.46,21.46,0,0,0,.06,4.68,3,3,0,0,0,1.8,2.4v1.39a4,4,0,0,0,.37,7.8A12,12,0,0,0,26,34.39V36H12.66A4.69,4.69,0,0,0,8,40H7a.992.992,0,0,0-.97,1.24Zm15.5-6.09-1.06,1.7-8-5a1.022,1.022,0,0,1,.03-1.7l8-5,1.06,1.7L19.89,51Zm3.36,2.3-1.78-.9,6-12,1.78.9Zm16.64-5.6-8,5-1.06-1.7L44.11,51l-6.64-4.15,1.06-1.7,8,5a1,1,0,0,1,0,1.7ZM41.48,38h9.78a2.7,2.7,0,0,1,2.6,2H40.6A10.21,10.21,0,0,0,41.48,38ZM22,17.85l2.42-.49a8.88,8.88,0,0,1,3.29-.07l2.85.48a9.19,9.19,0,0,0,3,0l2.88-.48a9,9,0,0,1,3.24.05l2.36.47v1.47l-2.2.72H34a1,1,0,0,0-1,1v1H31V21a1,1,0,0,0-1-1H24.16L22,19.28ZM22,24V21.38l1,.34V25a1,1,0,0,0,1,1h6a1,1,0,0,0,1-1V24h2v1a1,1,0,0,0,1,1h6a1,1,0,0,0,1-1V21.72l1-.33V24a10,10,0,1,1-20,0Zm5,14a1,1,0,0,0,1-1V35.31A12.1,12.1,0,0,0,32,36a11.82,11.82,0,0,0,4-.7V37a1,1,0,0,0,1,1h2.4a8.19,8.19,0,0,1-1.17,2H25.73a8.19,8.19,0,0,1-1.17-2ZM12.7,38h9.78a10.21,10.21,0,0,0,.88,2H10.06a2.7,2.7,0,0,1,2.6-2Z" transform="translate(-5.999 -2.008)" fill="#616161"/>
</svg>
