<svg id="_7" data-name="7" xmlns="http://www.w3.org/2000/svg" width="54" height="54" viewBox="0 0 54 54">
  <path id="Path_3372" data-name="Path 3372" d="M27.582,6.336v17.41a3.841,3.841,0,0,1-3.836,3.836H6.336A3.841,3.841,0,0,1,2.5,23.746V6.336A3.841,3.841,0,0,1,6.336,2.5h17.41A3.841,3.841,0,0,1,27.582,6.336ZM52.664,2.5H35.254a3.841,3.841,0,0,0-3.836,3.836v17.41a3.841,3.841,0,0,0,3.836,3.836h17.41A3.841,3.841,0,0,0,56.5,23.746V6.336A3.841,3.841,0,0,0,52.664,2.5ZM23.746,31.418H6.336A3.841,3.841,0,0,0,2.5,35.254v17.41A3.841,3.841,0,0,0,6.336,56.5h17.41a3.841,3.841,0,0,0,3.836-3.836V35.254a3.841,3.841,0,0,0-3.836-3.836ZM56.5,43.221A13.279,13.279,0,1,1,43.221,29.943,13.279,13.279,0,0,1,56.5,43.221Zm-2.361,0A10.918,10.918,0,1,0,43.221,54.139,10.918,10.918,0,0,0,54.139,43.221Z" transform="translate(-2.5 -2.5)" fill="#616161"/>
</svg>
