<svg id="_8" data-name="8" xmlns="http://www.w3.org/2000/svg" width="54" height="54" viewBox="0 0 54 54">
  <path id="Path_3373" data-name="Path 3373" d="M2,51.375A3.385,3.385,0,0,0,5.375,54.75h47.25A3.378,3.378,0,0,0,56,51.375V12H2Zm9.274-22.154a17.978,17.978,0,0,1,35.684,2.164l1.394-1.858a1.125,1.125,0,1,1,1.8,1.35l-3.375,4.5a1.125,1.125,0,0,1-1.8,0l-3.375-4.5a1.125,1.125,0,1,1,1.8-1.35l1.3,1.734A15.741,15.741,0,1,0,28.951,48l2.786-.253c.041,0,.082,0,.122,0a15.671,15.671,0,0,0,10.5-7.144,1.125,1.125,0,0,1,1.907,1.194A17.975,17.975,0,0,1,11.274,29.221ZM30.126,21v11.25a1.125,1.125,0,0,1-.33.8l-7.874,7.875a1.125,1.125,0,0,1-1.591-1.591l7.545-7.545V21a1.125,1.125,0,0,1,2.25,0Z" transform="translate(-2 -0.75)" fill="#616161"/>
  <path id="Path_3374" data-name="Path 3374" d="M52.625,2H5.375A3.378,3.378,0,0,0,2,5.375V11H56V5.375A3.37,3.37,0,0,0,52.625,2ZM9.877,8.746H7.627V6.5h2.25Zm5.625,0h-2.25V6.5H15.5Z" transform="translate(-2 -2)" fill="#616161"/>
</svg>
