<svg xmlns="http://www.w3.org/2000/svg" width="20.177" height="20" viewBox="0 0 20.177 20">
  <g id="chat" transform="translate(-5 -5.236)">
    <path id="Path_1615" data-name="Path 1615" d="M22.99,5.237H13.116a2.107,2.107,0,0,0-2.138,2.071v5.029H7.187A2.134,2.134,0,0,0,5,14.407v6.321A2.134,2.134,0,0,0,7.187,22.8h.055v1.987a.45.45,0,0,0,.731.352L10.909,22.8h6.126A2.132,2.132,0,0,0,19.2,20.7v-5h.069L22.2,18.038a.451.451,0,0,0,.732-.352V15.7h.055a2.134,2.134,0,0,0,2.187-2.071V7.308A2.134,2.134,0,0,0,22.99,5.237ZM18.451,20.7a1.385,1.385,0,0,1-1.416,1.348H10.826a.51.51,0,0,0-.318.111L7.989,24.169V22.548a.5.5,0,0,0-.5-.5h-.3a1.387,1.387,0,0,1-1.44-1.323V14.407a1.387,1.387,0,0,1,1.44-1.323h3.791v.545A2.107,2.107,0,0,0,13.116,15.7h5.335Zm5.978-7.075a1.387,1.387,0,0,1-1.44,1.323h-.3a.5.5,0,0,0-.5.5V17.07L19.67,15.064a.511.511,0,0,0-.319-.112H13.116a1.36,1.36,0,0,1-1.39-1.323V7.308a1.36,1.36,0,0,1,1.39-1.323H22.99a1.387,1.387,0,0,1,1.44,1.323Z" fill="#fff"/>
    <circle id="Ellipse_19" data-name="Ellipse 19" cx="0.56" cy="0.56" r="0.56" transform="translate(8.923 17.007)" fill="#fff"/>
    <circle id="Ellipse_20" data-name="Ellipse 20" cx="0.56" cy="0.56" r="0.56" transform="translate(11.539 17.007)" fill="#fff"/>
    <circle id="Ellipse_21" data-name="Ellipse 21" cx="0.56" cy="0.56" r="0.56" transform="translate(14.154 17.007)" fill="#fff"/>
    <path id="Path_1616" data-name="Path 1616" d="M32.363,12.986H29.374a.374.374,0,1,1,0-.747h2.989a.374.374,0,0,1,0,.747Z" transform="translate(-15.033 -4.386)" fill="#fff"/>
    <path id="Path_1617" data-name="Path 1617" d="M36.847,18.986H29.374a.374.374,0,1,1,0-.747h7.473a.374.374,0,0,1,0,.747Z" transform="translate(-15.033 -8.144)" fill="#fff"/>
    <path id="Path_1618" data-name="Path 1618" d="M46.986,24.986H45.561a.374.374,0,1,1,0-.747h1.425a.374.374,0,1,1,0,.747Z" transform="translate(-25.172 -11.902)" fill="#fff"/>
    <path id="Path_1619" data-name="Path 1619" d="M33.857,24.986H29.374a.374.374,0,1,1,0-.747h4.484a.374.374,0,1,1,0,.747Z" transform="translate(-15.033 -11.902)" fill="#fff"/>
  </g>
</svg>
