<svg xmlns="http://www.w3.org/2000/svg" width="20.099" height="20.095" viewBox="0 0 20.099 20.095">
  <g id="Group_363" data-name="Group 363" transform="translate(0 0)">
    <path id="Path_101" data-name="Path 101" d="M-2932.688,4849.945c-2.728,0-3.071.012-4.144.06a7.354,7.354,0,0,0-2.437.467,4.9,4.9,0,0,0-1.779,1.16,4.984,4.984,0,0,0-1.16,1.779,7.36,7.36,0,0,0-.467,2.441c-.048,1.068-.06,1.412-.06,4.139s.012,3.071.06,4.144a7.4,7.4,0,0,0,.467,2.44,4.891,4.891,0,0,0,1.16,1.779,4.978,4.978,0,0,0,1.779,1.161,7.372,7.372,0,0,0,2.44.467c1.073.048,1.412.06,4.144.06s3.071-.012,4.143-.06a7.416,7.416,0,0,0,2.441-.467,4.9,4.9,0,0,0,1.779-1.161,4.984,4.984,0,0,0,1.16-1.779,7.37,7.37,0,0,0,.467-2.44c.048-1.072.06-1.411.06-4.144s-.012-3.07-.06-4.143a7.421,7.421,0,0,0-.467-2.441,4.905,4.905,0,0,0-1.16-1.778,4.983,4.983,0,0,0-1.779-1.16,7.359,7.359,0,0,0-2.441-.467C-2929.618,4849.957-2929.961,4849.945-2932.688,4849.945Zm0,4.889a5.161,5.161,0,0,0-5.161,5.16,5.158,5.158,0,0,0,5.161,5.16,5.158,5.158,0,0,0,5.16-5.16A5.158,5.158,0,0,0-2932.688,4854.834Zm0,8.506a3.349,3.349,0,0,1-3.35-3.35,3.349,3.349,0,0,1,3.35-3.35,3.349,3.349,0,0,1,3.35,3.35A3.349,3.349,0,0,1-2932.688,4863.34Zm6.568-8.713a1.2,1.2,0,0,1-1.2,1.2,1.2,1.2,0,0,1-1.2-1.2,1.2,1.2,0,0,1,1.2-1.2A1.2,1.2,0,0,1-2926.12,4854.627Z" transform="translate(2942.734 -4849.945)" fill="#fff" fill-rule="evenodd"/>
  </g>
</svg>
