<svg xmlns="http://www.w3.org/2000/svg" width="18.751" height="18.751" viewBox="0 0 18.751 18.751">
  <path id="Path_103" data-name="Path 103" d="M-2492.02,4854.7H-2508a1.383,1.383,0,0,0-.979.405,1.385,1.385,0,0,0-.406.979v15.983a1.387,1.387,0,0,0,.406.979,1.385,1.385,0,0,0,.979.4h15.983a1.385,1.385,0,0,0,.979-.4,1.386,1.386,0,0,0,.406-.979v-15.983a1.384,1.384,0,0,0-.406-.979A1.383,1.383,0,0,0-2492.02,4854.7Zm-11.778,15.974h-2.819v-8.956h2.819Zm-1.412-10.2a1.61,1.61,0,0,1-.9-.277,1.617,1.617,0,0,1-.592-.729,1.62,1.62,0,0,1-.088-.934,1.623,1.623,0,0,1,.446-.827,1.621,1.621,0,0,1,.829-.44,1.619,1.619,0,0,1,.934.1,1.614,1.614,0,0,1,.725.6,1.618,1.618,0,0,1,.271.9,1.594,1.594,0,0,1-.118.625,1.6,1.6,0,0,1-.353.529,1.593,1.593,0,0,1-.531.349A1.59,1.59,0,0,1-2505.21,4860.476Zm11.8,10.2h-2.818v-4.892c0-1.443-.614-1.888-1.406-1.888a1.715,1.715,0,0,0-1.656,1.924v4.856h-2.819v-8.957h2.711v1.242h.036a3.076,3.076,0,0,1,2.68-1.493c1.573,0,3.272.933,3.272,3.668Z" transform="translate(2509.387 -4854.698)" fill="#fff"/>
</svg>
