<svg xmlns="http://www.w3.org/2000/svg" width="21.111" height="17.777" viewBox="0 0 21.111 17.777">
  <g id="Group_365" data-name="Group 365" transform="translate(0 0)">
    <path id="Path_102" data-name="Path 102" d="M-2717.385,4866.369c.009.2.009.382.009.578.009,5.929-4.347,12.773-12.313,12.773a12,12,0,0,1-6.637-2.018,7.9,7.9,0,0,0,1.029.063,8.5,8.5,0,0,0,5.376-1.929,4.357,4.357,0,0,1-4.047-3.12,4.043,4.043,0,0,0,1.955-.08,4.441,4.441,0,0,1-3.473-4.392v-.053a4.157,4.157,0,0,0,1.964.56,4.6,4.6,0,0,1-1.337-5.991,12.173,12.173,0,0,0,8.926,4.693,4.611,4.611,0,0,1,1.252-4.293,4.237,4.237,0,0,1,6.131.2,8.427,8.427,0,0,0,2.752-1.093,4.494,4.494,0,0,1-1.9,2.479,8.693,8.693,0,0,0,2.487-.7A9.049,9.049,0,0,1-2717.385,4866.369Z" transform="translate(2736.326 -4861.943)" fill="#fff"/>
  </g>
</svg>
