<?xml version="1.0" encoding="UTF-8"?>
<svg xmlns="http://www.w3.org/2000/svg" xmlns:xlink="http://www.w3.org/1999/xlink" width="30px" height="30px" viewBox="0 0 30 30" version="1.1">
<g id="surface1">
<path style=" stroke:none;fill-rule:nonzero;fill:rgb(100%,100%,100%);fill-opacity:1;" d="M 4.402344 25.640625 C 9.457031 30.671875 17.347656 31.476562 23.3125 27.566406 C 24.121094 27.03125 24.648438 26.160156 24.746094 25.191406 C 24.84375 24.226562 24.5 23.265625 23.8125 22.578125 L 23.234375 22.007812 L 23.996094 21.242188 C 24.492188 20.75 24.714844 20.046875 24.597656 19.355469 C 24.480469 18.667969 24.039062 18.078125 23.40625 17.773438 L 19.105469 15.699219 C 18.769531 15.539062 18.371094 15.609375 18.117188 15.875 L 16.773438 17.273438 L 16.730469 17.273438 C 14.925781 16.550781 13.496094 15.117188 12.78125 13.308594 L 14.175781 11.910156 C 14.4375 11.65625 14.503906 11.265625 14.351562 10.9375 L 12.265625 6.625 C 11.960938 5.996094 11.371094 5.550781 10.683594 5.433594 C 9.992188 5.316406 9.289062 5.542969 8.796875 6.039062 L 7.984375 6.847656 C 6.101562 8.730469 5.496094 11.535156 6.425781 14.023438 C 8.089844 18.460938 11.589844 21.953125 16.027344 23.613281 C 17.96875 24.339844 20.136719 24.132812 21.910156 23.054688 C 21.945312 23.113281 21.984375 23.164062 22.03125 23.214844 L 22.601562 23.785156 C 22.925781 24.109375 23.089844 24.5625 23.042969 25.019531 C 22.996094 25.472656 22.75 25.886719 22.367188 26.140625 C 16.878906 29.761719 9.570312 28.84375 5.148438 23.976562 C 0.726562 19.109375 0.511719 11.75 4.640625 6.632812 C 8.769531 1.515625 16.011719 0.171875 21.703125 3.464844 C 27.390625 6.757812 29.832031 13.707031 27.453125 19.835938 C 27.273438 20.277344 27.488281 20.777344 27.925781 20.957031 C 28.367188 21.132812 28.867188 20.921875 29.046875 20.480469 C 31.339844 14.679688 29.785156 8.058594 25.152344 3.882812 C 19.109375 -1.613281 9.785156 -1.285156 4.148438 4.625 C -1.484375 10.539062 -1.375 19.867188 4.402344 25.640625 Z M 16.625 22.015625 C 12.648438 20.527344 9.511719 17.390625 8.027344 13.417969 C 7.332031 11.558594 7.789062 9.464844 9.191406 8.058594 L 10.003906 7.246094 C 10.085938 7.160156 10.199219 7.109375 10.316406 7.113281 L 10.394531 7.113281 C 10.542969 7.132812 10.671875 7.226562 10.738281 7.363281 L 12.550781 11.121094 L 11.527344 12.144531 C 11.082031 12.59375 10.949219 13.269531 11.183594 13.855469 C 12.0625 16.128906 13.839844 17.9375 16.101562 18.847656 L 16.199219 18.882812 C 16.8125 19.128906 17.507812 18.976562 17.960938 18.5 L 18.921875 17.503906 L 22.683594 19.308594 C 22.8125 19.375 22.90625 19.496094 22.929688 19.644531 C 22.953125 19.785156 22.90625 19.929688 22.804688 20.035156 L 21.992188 20.847656 C 20.585938 22.257812 18.484375 22.710938 16.621094 22.015625 Z M 16.625 22.015625 "/>
</g>
</svg>
