<?xml version="1.0" encoding="UTF-8"?>
<svg xmlns="http://www.w3.org/2000/svg" xmlns:xlink="http://www.w3.org/1999/xlink" width="30px" height="30px" viewBox="0 0 30 30" version="1.1">
<g id="surface1">
<path style=" stroke:none;fill-rule:nonzero;fill:rgb(100%,100%,100%);fill-opacity:1;" d="M 18.574219 25.335938 C 21.089844 26.175781 23.511719 25.476562 25.761719 24.570312 L 25.828125 24.546875 C 25.828125 24.546875 28.4375 25.984375 29.136719 26.425781 C 29.164062 26.445312 29.203125 26.445312 29.230469 26.421875 C 29.257812 26.402344 29.269531 26.363281 29.257812 26.328125 C 29.027344 25.496094 28.246094 22.378906 28.246094 22.378906 L 28.285156 22.328125 C 29.0625 21.308594 29.597656 20.125 29.855469 18.871094 C 30.824219 14.285156 27.992188 9.753906 23.449219 8.609375 C 18.90625 7.472656 14.269531 10.128906 12.957031 14.628906 C 11.644531 19.125 14.128906 23.855469 18.574219 25.335938 Z M 18.574219 25.335938 "/>
<path style=" stroke:none;fill-rule:nonzero;fill:rgb(100%,100%,100%);fill-opacity:1;" d="M 22.472656 12.292969 C 22.1875 10.902344 21.640625 9.578125 20.863281 8.386719 C 16.902344 8.570312 13.574219 11.417969 12.777344 15.300781 C 12.0625 18.929688 13.695312 22.617188 16.867188 24.523438 C 21.195312 22.097656 23.457031 17.15625 22.472656 12.292969 Z M 22.472656 12.292969 "/>
<path style=" stroke:none;fill-rule:nonzero;fill:rgb(100%,100%,100%);fill-opacity:1;" d="M 11.011719 14.933594 C 11.886719 10.703125 15.273438 7.445312 19.53125 6.734375 C 16.023438 3.085938 10.519531 2.203125 6.046875 4.570312 C 1.574219 6.933594 -0.796875 11.980469 0.242188 16.933594 C 0.582031 18.601562 1.304688 20.164062 2.347656 21.507812 C 2.386719 21.5625 1.34375 25.570312 1.027344 26.664062 C 1.011719 26.703125 1.027344 26.753906 1.0625 26.78125 C 1.097656 26.8125 1.152344 26.8125 1.191406 26.785156 C 2.101562 26.207031 5.503906 24.34375 5.503906 24.34375 L 5.582031 24.375 C 8.5 25.546875 11.640625 26.453125 14.898438 25.398438 C 11.699219 22.949219 10.1875 18.875 11.011719 14.933594 Z M 11.011719 14.933594 "/>
</g>
</svg>
