<svg xmlns="http://www.w3.org/2000/svg" width="17.22" height="12.054" viewBox="0 0 17.22 12.054">
  <path id="Path_1481" data-name="Path 1481" d="M127.29,123.2A1.289,1.289,0,0,0,126,124.492v9.471a1.289,1.289,0,0,0,1.292,1.292h14.637a1.289,1.289,0,0,0,1.292-1.292v-9.471a1.289,1.289,0,0,0-1.292-1.292Zm1.022,1.931h0a.431.431,0,0,1,.357.128L134,130.485a.87.87,0,0,0,1.211,0l5.341-5.227h0a.431.431,0,1,1,.605.612l-3.491,3.424,3.484,3.276h0a.431.431,0,0,1-.592.626l-3.5-3.3-1.238,1.211a1.74,1.74,0,0,1-2.421,0l-1.224-1.2-3.5,3.3h0a.431.431,0,0,1-.592-.626l3.478-3.276-3.484-3.424a.43.43,0,0,1,.249-.74Z" transform="translate(-125.998 -123.2)" fill="#fff"/>
</svg>
