<svg xmlns="http://www.w3.org/2000/svg" xmlns:xlink="http://www.w3.org/1999/xlink" width="212.416" height="51.25" viewBox="0 0 212.416 51.25"><defs><clipPath id="a"><rect width="212.416" height="51.25" fill="none"/></clipPath></defs><path d="M196.071,2.351l3.419,16.9,3.7-16.9h4.467l-4.915,19.713h-6.162L193.142,5.79l-3.495,16.273h-6.162L178.626,2.351h4.638l3.66,16.9,3.467-16.9Z" transform="translate(-107.23 -1.411)" fill="#dfe0e0"/><g clip-path="url(#a)"><path d="M265.593,23.075a7.54,7.54,0,0,1-.969,2.326,6.733,6.733,0,0,1-1.6,1.751,7.022,7.022,0,0,1-2.14,1.1,8.413,8.413,0,0,1-2.582.383,8.629,8.629,0,0,1-2.16-.262,7.387,7.387,0,0,1-1.868-.755,6.882,6.882,0,0,1-1.53-1.2,7.035,7.035,0,0,1-1.148-1.6,8.289,8.289,0,0,1-.72-1.951,9.725,9.725,0,0,1-.251-2.257,9.854,9.854,0,0,1,.248-2.251,8.243,8.243,0,0,1,.713-1.947,7.022,7.022,0,0,1,1.134-1.592,6.736,6.736,0,0,1,1.513-1.192,7.381,7.381,0,0,1,1.851-.751,8.453,8.453,0,0,1,2.137-.262,7.918,7.918,0,0,1,3.056.569,6.639,6.639,0,0,1,2.351,1.613,7.22,7.22,0,0,1,1.506,2.516,9.609,9.609,0,0,1,.531,3.278q0,.276-.01.555c-.007.186-.022.376-.046.569H254.613a5.008,5.008,0,0,0,.4,1.526,3.654,3.654,0,0,0,.793,1.138,3.34,3.34,0,0,0,1.144.713,4.134,4.134,0,0,0,1.465.248,3.471,3.471,0,0,0,2.03-.568,3.675,3.675,0,0,0,1.272-1.692ZM261.7,19.16a4.235,4.235,0,0,0-1.13-2.471,3.229,3.229,0,0,0-2.329-.831,3.91,3.91,0,0,0-1.345.221,3.118,3.118,0,0,0-1.061.641,3.438,3.438,0,0,0-.755,1.037,4.965,4.965,0,0,0-.424,1.4Z" transform="translate(-150.449 -7.571)" fill="#dfe0e0"/><path d="M296,10.435a9.017,9.017,0,0,1,.717-2.133,5.769,5.769,0,0,1,1.113-1.575,4.489,4.489,0,0,1,1.478-.975,4.777,4.777,0,0,1,1.806-.334,5.438,5.438,0,0,1,1.709.265,5.383,5.383,0,0,1,1.489.762,5.935,5.935,0,0,1,1.227,1.21,7.541,7.541,0,0,1,.927,1.6,9.451,9.451,0,0,1,.586,1.94,12.325,12.325,0,0,1,0,4.46,9.519,9.519,0,0,1-.586,1.943,7.427,7.427,0,0,1-.927,1.6,6.045,6.045,0,0,1-1.227,1.209,5.32,5.32,0,0,1-1.486.765,5.408,5.408,0,0,1-1.706.265,4.752,4.752,0,0,1-1.813-.338,4.53,4.53,0,0,1-1.478-.978,5.775,5.775,0,0,1-1.113-1.575A9.023,9.023,0,0,1,296,16.418v4.611h-4.129V.627H296Zm0,2.991a6.9,6.9,0,0,0,.238,1.9,3.908,3.908,0,0,0,.7,1.4,2.979,2.979,0,0,0,1.127.865,3.728,3.728,0,0,0,1.524.3,3.14,3.14,0,0,0,2.622-1.13,5.291,5.291,0,0,0,.893-3.329A5.277,5.277,0,0,0,302.2,10.1a3.153,3.153,0,0,0-2.63-1.127,3.694,3.694,0,0,0-1.52.3,2.978,2.978,0,0,0-1.124.865,3.91,3.91,0,0,0-.7,1.4,6.864,6.864,0,0,0-.238,1.9" transform="translate(-175.21 -0.376)" fill="#dfe0e0"/><path d="M179.643,61.793h7.189a12.056,12.056,0,0,1,2.8.313,9.943,9.943,0,0,1,2.423.913,8.81,8.81,0,0,1,1.988,1.461,8.629,8.629,0,0,1,1.492,1.958,9.734,9.734,0,0,1,.941,2.405,12.181,12.181,0,0,1,0,5.61,9.73,9.73,0,0,1-.941,2.406,8.618,8.618,0,0,1-1.492,1.957,8.786,8.786,0,0,1-1.988,1.461,9.936,9.936,0,0,1-2.426.914,12.075,12.075,0,0,1-2.8.313h-7.189Zm7.093,15.977a6.726,6.726,0,0,0,2.409-.4,4.684,4.684,0,0,0,1.785-1.182,5.186,5.186,0,0,0,1.11-1.92,9.135,9.135,0,0,0,0-5.231,5.188,5.188,0,0,0-1.11-1.919,4.685,4.685,0,0,0-1.785-1.182,6.727,6.727,0,0,0-2.409-.4h-2.778V77.77Z" transform="translate(-107.84 -37.094)" fill="#dfe0e0"/><path d="M240.691,82.516a7.541,7.541,0,0,1-.968,2.327,6.762,6.762,0,0,1-1.6,1.751,7.021,7.021,0,0,1-2.14,1.1,8.418,8.418,0,0,1-2.581.383,8.614,8.614,0,0,1-2.161-.262,7.354,7.354,0,0,1-1.868-.755,6.873,6.873,0,0,1-1.53-1.2,7.031,7.031,0,0,1-1.148-1.6,8.307,8.307,0,0,1-.721-1.951,10.292,10.292,0,0,1,0-4.508,8.224,8.224,0,0,1,.713-1.947,7.022,7.022,0,0,1,1.134-1.592,6.745,6.745,0,0,1,1.513-1.192,7.384,7.384,0,0,1,1.851-.751,8.45,8.45,0,0,1,2.137-.262,7.921,7.921,0,0,1,3.056.569,6.643,6.643,0,0,1,2.351,1.613,7.231,7.231,0,0,1,1.506,2.516,9.61,9.61,0,0,1,.531,3.278q0,.276-.01.555t-.045.568H229.711a5.031,5.031,0,0,0,.4,1.527,3.653,3.653,0,0,0,.793,1.137,3.327,3.327,0,0,0,1.144.713,4.125,4.125,0,0,0,1.465.248,3.465,3.465,0,0,0,2.03-.569,3.667,3.667,0,0,0,1.272-1.692ZM236.8,78.6a4.235,4.235,0,0,0-1.13-2.471,3.231,3.231,0,0,0-2.33-.831,3.909,3.909,0,0,0-1.344.221,3.114,3.114,0,0,0-1.061.641,3.438,3.438,0,0,0-.755,1.037,4.965,4.965,0,0,0-.424,1.4Z" transform="translate(-135.5 -43.254)" fill="#dfe0e0"/><path d="M272.871,72.054a11.171,11.171,0,0,1,2.988.365,6.511,6.511,0,0,1,2.216,1.051,4.6,4.6,0,0,1,1.379,1.665,4.984,4.984,0,0,1,.476,2.206h-4.074a2.307,2.307,0,0,0-.186-.948,1.9,1.9,0,0,0-.555-.713,2.565,2.565,0,0,0-.91-.451,4.547,4.547,0,0,0-1.251-.155,5.161,5.161,0,0,0-1.137.117,3.1,3.1,0,0,0-.883.331,1.7,1.7,0,0,0-.568.517,1.176,1.176,0,0,0-.2.669,1.043,1.043,0,0,0,.262.734,1.937,1.937,0,0,0,.7.468,5.454,5.454,0,0,0,1.01.3q.572.118,1.2.221l1.02.179q.613.1,1.3.238a12.167,12.167,0,0,1,1.351.348,7.951,7.951,0,0,1,1.282.537,4.291,4.291,0,0,1,1.082.807,3.61,3.61,0,0,1,.744,1.151,4.132,4.132,0,0,1,.276,1.578,4.309,4.309,0,0,1-.472,2.04,4.155,4.155,0,0,1-1.385,1.513,6.842,6.842,0,0,1-2.247.937,13.167,13.167,0,0,1-3.064.321,12.828,12.828,0,0,1-3.2-.359,6.718,6.718,0,0,1-2.316-1.044,4.4,4.4,0,0,1-1.41-1.7,5.366,5.366,0,0,1-.476-2.312h4.073a2.061,2.061,0,0,0,.813,1.754,4.145,4.145,0,0,0,2.489.61,6.91,6.91,0,0,0,1.313-.114,3.412,3.412,0,0,0,.986-.334,1.717,1.717,0,0,0,.617-.538,1.253,1.253,0,0,0,.214-.717,1.194,1.194,0,0,0-.259-.8,1.954,1.954,0,0,0-.717-.51,5.444,5.444,0,0,0-1.086-.335q-.628-.131-1.358-.262l-1.02-.179q-.559-.1-1.207-.227a11.819,11.819,0,0,1-1.289-.338,7.962,7.962,0,0,1-1.237-.517,4.154,4.154,0,0,1-1.051-.772,3.509,3.509,0,0,1-.727-1.1,3.823,3.823,0,0,1-.272-1.5,4.155,4.155,0,0,1,.465-1.975,4.237,4.237,0,0,1,1.337-1.492,6.525,6.525,0,0,1,2.13-.941,11.309,11.309,0,0,1,2.843-.327" transform="translate(-159.568 -43.254)" fill="#dfe0e0"/><path d="M309.737,63.681h-4.212V60.069h4.212Zm-.041,16.79h-4.129v-15.2H309.7Z" transform="translate(-183.407 -36.06)" fill="#dfe0e0"/><path d="M335.171,72.467V85.632a8.84,8.84,0,0,1-.541,3.174,6.623,6.623,0,0,1-3.974,3.957,8.967,8.967,0,0,1-3.2.541,10.221,10.221,0,0,1-2.082-.2,8.4,8.4,0,0,1-1.809-.586,6.766,6.766,0,0,1-1.493-.93,5.816,5.816,0,0,1-1.123-1.234,5.587,5.587,0,0,1-.71-1.5,5.811,5.811,0,0,1-.248-1.713h4.115a2.888,2.888,0,0,0,.245,1.2,2.747,2.747,0,0,0,.679.934,3.074,3.074,0,0,0,1.037.6,3.953,3.953,0,0,0,1.327.214,3.639,3.639,0,0,0,1.523-.307,3.153,3.153,0,0,0,1.148-.882,4.032,4.032,0,0,0,.723-1.4,6.31,6.31,0,0,0,.252-1.854V82.261a8.035,8.035,0,0,1-.72,2,5.487,5.487,0,0,1-1.12,1.478,4.555,4.555,0,0,1-1.492.921,5.135,5.135,0,0,1-1.83.317,5.663,5.663,0,0,1-1.689-.248,5.334,5.334,0,0,1-1.475-.717,5.922,5.922,0,0,1-1.22-1.138,6.847,6.847,0,0,1-.923-1.5,8.526,8.526,0,0,1-.582-1.823,10.345,10.345,0,0,1-.2-2.092,10.182,10.182,0,0,1,.2-2.085,8.365,8.365,0,0,1,.582-1.8A6.566,6.566,0,0,1,321.5,74.1a5.824,5.824,0,0,1,1.22-1.106,5.418,5.418,0,0,1,1.475-.7,5.819,5.819,0,0,1,1.689-.241,5.335,5.335,0,0,1,1.83.3,4.527,4.527,0,0,1,1.492.889,5.305,5.305,0,0,1,1.12,1.448,7.821,7.821,0,0,1,.72,1.971v-4.2Zm-4.128,6.989a4,4,0,0,0-.938-2.874,3.547,3.547,0,0,0-2.688-.979,3.366,3.366,0,0,0-2.585.951,4.122,4.122,0,0,0-.889,2.9,4.362,4.362,0,0,0,.882,2.96,3.268,3.268,0,0,0,2.592,1,4.2,4.2,0,0,0,1.544-.265,2.994,2.994,0,0,0,1.138-.772,3.382,3.382,0,0,0,.7-1.244,5.4,5.4,0,0,0,.241-1.682" transform="translate(-191.969 -43.254)" fill="#dfe0e0"/><path d="M366.819,87.665H362.69v-15.2h4.129v4.57a8.382,8.382,0,0,1,.709-2.137,5.489,5.489,0,0,1,1.144-1.561,4.613,4.613,0,0,1,1.554-.958,5.5,5.5,0,0,1,1.933-.327,5.054,5.054,0,0,1,2.168.441,4.156,4.156,0,0,1,1.582,1.3,6.039,6.039,0,0,1,.969,2.126,11.736,11.736,0,0,1,.327,2.915v8.829h-4.129v-8.14q0-3.88-2.95-3.88a3.509,3.509,0,0,0-1.406.265,2.731,2.731,0,0,0-1.037.779,3.506,3.506,0,0,0-.644,1.268,6.191,6.191,0,0,0-.22,1.733Z" transform="translate(-217.724 -43.254)" fill="#dfe0e0"/><path d="M420.377,81.505h-6.548V74.323h-4.686v7.182h-6.548V61.793h6.548v7.223h4.686V61.793h6.548Z" transform="translate(-241.678 -37.094)" fill="#fff"/><path d="M459.052,73.088h6.135v15.2h-6.135V83.454a7.113,7.113,0,0,1-1.582,3.956,4.322,4.322,0,0,1-3.312,1.289,4.669,4.669,0,0,1-1.937-.369,3.206,3.206,0,0,1-1.34-1.141,5.488,5.488,0,0,1-.783-1.957,13.58,13.58,0,0,1-.255-2.819V73.088h6.135v7.6a4.585,4.585,0,0,0,.375,2.119,1.326,1.326,0,0,0,2.323,0,4.579,4.579,0,0,0,.376-2.119Z" transform="translate(-270.042 -43.875)" fill="#fff"/><path d="M497.123,69.787a7.119,7.119,0,0,1,1.451-3.708,3.657,3.657,0,0,1,2.885-1.22,4.734,4.734,0,0,1,2.33.579,5.431,5.431,0,0,1,1.8,1.63,7.991,7.991,0,0,1,1.162,2.526,13.287,13.287,0,0,1,0,6.548,8.036,8.036,0,0,1-1.162,2.53,5.407,5.407,0,0,1-1.8,1.633,4.738,4.738,0,0,1-2.326.58,3.658,3.658,0,0,1-2.885-1.22,7.12,7.12,0,0,1-1.451-3.708V80.47h-6.135v-20.4h6.135Zm0,3.081a3.843,3.843,0,0,0,.465,2.126,1.871,1.871,0,0,0,2.9,0,5.059,5.059,0,0,0,0-4.246,1.877,1.877,0,0,0-2.9,0,3.809,3.809,0,0,0-.468,2.119" transform="translate(-294.741 -36.059)" fill="#fff"/><path d="M0,39.781V53.932l21.2,21.2,9.548-9.775L40.3,75.13l21.194-21.2V39.785L40.379,60.9l-2.64-2.7-.071.071-6.921,6.921-6.921-6.921-.071-.071-2.639,2.7Z" transform="translate(0 -23.88)" fill="#dfe0e0"/><path d="M30.747,27.154,13.6,10.005H47.9ZM61.49,0H0V10.558L23.755,34.313l.071-.072,6.921-7.087,6.921,7.087.071.072L61.49,10.558V0" fill="#eff0f0"/><path d="M66.425,67.937,59.5,75.024l-.071.072.071.07,6.921,6.922,6.921-6.922.071-.07-.071-.072Z" transform="translate(-35.678 -40.783)" fill="#fff"/></g></svg>