<svg id="Group_2378" data-name="Group 2378" xmlns="http://www.w3.org/2000/svg" width="17.22" height="21.05" viewBox="0 0 17.22 21.05">
  <path id="Path_1471" data-name="Path 1471" d="M153.087,233.52h-2.969a.6.6,0,0,0-.6.6v1.795a.6.6,0,0,0,.6.6h2.969a.6.6,0,0,0,.6-.6v-1.795A.6.6,0,0,0,153.087,233.52Z" transform="translate(-148.842 -224.834)" fill="#fff"/>
  <path id="Path_1472" data-name="Path 1472" d="M153.087,351.68h-2.969a.6.6,0,0,0-.6.6v1.795a.6.6,0,0,0,.6.6h2.969a.6.6,0,0,0,.6-.6v-1.795A.6.6,0,0,0,153.087,351.68Z" transform="translate(-148.842 -338.318)" fill="#fff"/>
  <path id="Path_1473" data-name="Path 1473" d="M153.087,470.4h-2.969a.6.6,0,0,0-.6.6v1.795a.6.6,0,0,0,.6.6h2.969a.6.6,0,0,0,.6-.6V471A.6.6,0,0,0,153.087,470.4Z" transform="translate(-148.842 -452.342)" fill="#fff"/>
  <path id="Path_1474" data-name="Path 1474" d="M300.927,233.52h-2.969a.6.6,0,0,0-.6.6v1.795a.6.6,0,0,0,.6.6h2.969a.6.6,0,0,0,.6-.6v-1.795A.6.6,0,0,0,300.927,233.52Z" transform="translate(-290.833 -224.834)" fill="#fff"/>
  <path id="Path_1475" data-name="Path 1475" d="M300.927,351.68h-2.969a.6.6,0,0,0-.6.6v1.795a.6.6,0,0,0,.6.6h2.969a.6.6,0,0,0,.6-.6v-1.795A.6.6,0,0,0,300.927,351.68Z" transform="translate(-290.833 -338.318)" fill="#fff"/>
  <path id="Path_1476" data-name="Path 1476" d="M300.927,470.4h-2.969a.6.6,0,0,0-.6.6v1.795a.6.6,0,0,0,.6.6h2.969a.6.6,0,0,0,.6-.6V471A.6.6,0,0,0,300.927,470.4Z" transform="translate(-290.833 -452.342)" fill="#fff"/>
  <path id="Path_1477" data-name="Path 1477" d="M448.767,233.52H445.8a.6.6,0,0,0-.6.6v1.795a.6.6,0,0,0,.6.6h2.969a.6.6,0,0,0,.6-.6v-1.795A.6.6,0,0,0,448.767,233.52Z" transform="translate(-432.823 -224.834)" fill="#fff"/>
  <path id="Path_1478" data-name="Path 1478" d="M448.767,351.68H445.8a.6.6,0,0,0-.6.6v1.795a.6.6,0,0,0,.6.6h2.969a.6.6,0,0,0,.6-.6v-1.795A.6.6,0,0,0,448.767,351.68Z" transform="translate(-432.823 -338.318)" fill="#fff"/>
  <path id="Path_1479" data-name="Path 1479" d="M448.767,470.4H445.8a.6.6,0,0,0-.6.6v1.795a.6.6,0,0,0,.6.6h2.969a.6.6,0,0,0,.6-.6V471A.6.6,0,0,0,448.767,470.4Z" transform="translate(-432.823 -452.342)" fill="#fff"/>
  <path id="Path_1480" data-name="Path 1480" d="M149.138,16.681a9.231,9.231,0,0,0-1.33-1.019,13.8,13.8,0,0,0-6.8-1.662,13.574,13.574,0,0,0-6.8,1.684,9.242,9.242,0,0,0-1.33,1.019,1.389,1.389,0,0,0-.443,1.374l.532,2.437a.731.731,0,0,0,.908.532l3.567-1.13a.7.7,0,0,0,.487-.753l-.266-1.95a10.911,10.911,0,0,1,3.346-.51,10.565,10.565,0,0,1,3.39.532l-.244,1.906a.682.682,0,0,0,.487.753l3.545,1.13a.7.7,0,0,0,.908-.532l.487-2.437a1.389,1.389,0,0,0-.443-1.374Z" transform="translate(-132.397 -14)" fill="#fff"/>
</svg>
