<?xml version="1.0" encoding="utf-8"?>
<!-- Generator: Adobe Illustrator 26.0.0, SVG Export Plug-In . SVG Version: 6.00 Build 0)  -->
<svg version="1.1" id="Layer_1" xmlns="http://www.w3.org/2000/svg" xmlns:xlink="http://www.w3.org/1999/xlink" x="0px" y="0px"
	 viewBox="0 0 728.5 1031.8" style="enableBackground:new 0 0 728.5 1031.8;" xml:space="preserve">
<style type="text/css">
	.st0{fill:url(#SVGID_1_);}
	.st1{fill:url(#SVGID_00000127745642331444634110000014286556360380052360_);}
	.st2{fill-rule:evenodd;clip-rule:evenodd;fill:url(#Rectangle-19-Copy-3_00000175318196167099323860000018198875880557530005_);}
</style>
<g>
	<linearGradient id="SVGID_1_" gradientUnits="userSpaceOnUse" x1="91.063" y1="606.9685" x2="455.315" y2="606.9685">
		<stop  offset="0" style="stop-color:#E3EB8A"/>
		<stop  offset="0.3492" style="stop-color:#FF5D57"/>
		<stop  offset="1" style="stop-color:#FF6BC1"/>
	</linearGradient>
	<path class="st0" d="M182.1,424.8V607c0,50.3,40.8,91.1,91.1,91.1h182.1v24.8c0,42.9-23.3,66.2-66.2,66.2H157.3
		c-42.9,0-66.2-23.3-66.2-66.2V491.1c0-42.9,23.3-66.2,66.2-66.2H182.1z"/>
	
		<linearGradient id="SVGID_00000014630121494980422320000010757709262431975068_" gradientUnits="userSpaceOnUse" x1="242.8347" y1="455.1968" x2="607.0867" y2="455.1968">
		<stop  offset="0" style="stop-color:#F88357"/>
		<stop  offset="0.3492" style="stop-color:#FF5D57"/>
		<stop  offset="1" style="stop-color:#FF6BC1"/>
	</linearGradient>
	<path style="fill:url(#SVGID_00000014630121494980422320000010757709262431975068_);" d="M516,637.3V455.2
		c0-50.3-40.8-91.1-91.1-91.1H242.8v-24.8c0-42.9,23.3-66.2,66.2-66.2h231.8c42.9,0,66.2,23.3,66.2,66.2v231.8
		c0,42.9-23.3,66.2-66.2,66.2H516z"/>
	
		<linearGradient id="Rectangle-19-Copy-3_00000090982133497318840530000005057445871593818505_" gradientUnits="userSpaceOnUse" x1="242.8347" y1="531.0827" x2="455.315" y2="531.0827">
		<stop  offset="0" style="stop-color:#EFE6D0"/>
		<stop  offset="0.433" style="stop-color:#F6C6C5"/>
		<stop  offset="1" style="stop-color:#F6CAE4"/>
	</linearGradient>
	
		<path id="Rectangle-19-Copy-3" style="fill-rule:evenodd;clip-rule:evenodd;fill:url(#Rectangle-19-Copy-3_00000090982133497318840530000005057445871593818505_);" d="
		M281.5,424.8h135.2c25,0,38.6,13.6,38.6,38.6v135.2c0,25-13.6,38.6-38.6,38.6H281.5c-25,0-38.6-13.6-38.6-38.6V463.5
		C242.8,438.4,256.4,424.8,281.5,424.8z"/>
</g>
</svg>
