<?xml version="1.0" encoding="utf-8"?>
<!-- Generator: Adobe Illustrator 26.0.0, SVG Export Plug-In . SVG Version: 6.00 Build 0)  -->
<svg version="1.1" id="Layer_1" xmlns="http://www.w3.org/2000/svg" xmlns:xlink="http://www.w3.org/1999/xlink" x="0px" y="0px"
	 viewBox="0 0 728.5 1031.8" style="enableBackground:new 0 0 728.5 1031.8;" xml:space="preserve">
<style type="text/css">
	.st0{fill:url(#SVGID_1_);}
	.st1{fill-rule:evenodd;clip-rule:evenodd;fill:url(#SVGID_00000111183774051936043310000006572000584549568904_);}
</style>
<g>
	<linearGradient id="SVGID_1_" gradientUnits="userSpaceOnUse" x1="121.4173" y1="606.9685" x2="607.0867" y2="606.9685">
		<stop  offset="0" style="stop-color:#EFE6D0"/>
		<stop  offset="0.433" style="stop-color:#F6C6C5"/>
		<stop  offset="1" style="stop-color:#F6CAE4"/>
	</linearGradient>
	<path class="st0" d="M364.3,485.5c25.4-19.1,56.9-30.3,91.1-30.3c83.8,0,151.8,68,151.8,151.8s-68,151.8-151.8,151.8
		c-34.2,0-65.7-11.3-91.1-30.3c-25.4,19.1-56.9,30.3-91.1,30.3c-83.8,0-151.8-68-151.8-151.8s68-151.8,151.8-151.8
		C307.4,455.2,338.9,466.5,364.3,485.5z M404.7,531.2c12.9,22.3,20.2,48.2,20.2,75.8c0,27.6-7.4,53.5-20.2,75.8
		c14.7,9.9,32.2,15.3,50.6,15.3c50.3,0,91.1-40.8,91.1-91.1s-40.8-91.1-91.1-91.1C436.9,515.9,419.4,521.4,404.7,531.2z"/>
	
		<linearGradient id="SVGID_00000146460701449428542090000017408211887809104783_" gradientUnits="userSpaceOnUse" x1="212.4803" y1="424.8425" x2="516.0236" y2="424.8425">
		<stop  offset="0" style="stop-color:#E3EB8A"/>
		<stop  offset="0.3492" style="stop-color:#FF5D57"/>
		<stop  offset="1" style="stop-color:#FF6BC1"/>
	</linearGradient>
	
		<circle style="fill-rule:evenodd;clip-rule:evenodd;fill:url(#SVGID_00000146460701449428542090000017408211887809104783_);" cx="364.3" cy="424.8" r="151.8"/>
</g>
</svg>
